<svg width="1440" height="862" viewBox="0 0 1440 862" fill="none" xmlns="http://www.w3.org/2000/svg">
<g clip-path="url(#clip0_1357_5431)">
<rect width="1440" height="862" fill="white"/>
<rect x="1" width="1440" height="862" fill="url(#paint0_linear_1357_5431)"/>
<path d="M645 452.5H795V302.5H645V452.5Z" fill="black"/>
<path d="M546.262 571V565.961H553.352C555.174 565.961 556.691 565.635 557.902 564.984C559.113 564.333 560.025 563.337 560.637 561.996C561.249 560.642 561.555 558.923 561.555 556.84C561.555 554.757 561.249 553.044 560.637 551.703C560.038 550.349 559.133 549.353 557.922 548.715C556.711 548.077 555.201 547.758 553.391 547.758H546.125V542.719H553.684C556.522 542.719 558.97 543.285 561.027 544.418C563.098 545.538 564.68 547.159 565.773 549.281C566.88 551.404 567.434 553.923 567.434 556.84C567.434 559.77 566.88 562.296 565.773 564.418C564.667 566.54 563.072 568.168 560.988 569.301C558.918 570.434 556.457 571 553.605 571H546.262ZM549.504 571H543.645V542.719H549.504V571ZM581.184 571.41C579.048 571.41 577.186 570.967 575.598 570.082C574.022 569.197 572.805 567.934 571.945 566.293C571.099 564.652 570.676 562.725 570.676 560.512C570.676 558.324 571.099 556.404 571.945 554.75C572.805 553.083 574.009 551.794 575.559 550.883C577.108 549.971 578.905 549.516 580.949 549.516C582.863 549.516 584.569 549.919 586.066 550.727C587.564 551.521 588.742 552.725 589.602 554.34C590.461 555.954 590.891 557.927 590.891 560.258V561.879H573.039V558.266H585.441C585.441 557.406 585.253 556.645 584.875 555.98C584.497 555.303 583.977 554.776 583.312 554.398C582.648 554.021 581.893 553.832 581.047 553.832C580.148 553.832 579.348 554.04 578.645 554.457C577.941 554.861 577.388 555.421 576.984 556.137C576.594 556.853 576.392 557.634 576.379 558.48V561.879C576.379 562.934 576.581 563.858 576.984 564.652C577.388 565.447 577.954 566.052 578.684 566.469C579.426 566.885 580.285 567.094 581.262 567.094C581.913 567.094 582.505 567.003 583.039 566.82C583.573 566.625 584.022 566.378 584.387 566.078C584.764 565.766 585.051 565.401 585.246 564.984H590.754C590.48 566.273 589.914 567.406 589.055 568.383C588.208 569.346 587.108 570.095 585.754 570.629C584.413 571.15 582.889 571.41 581.184 571.41ZM606.125 571H599.621L592.199 549.789H598.332L602.766 565.023H603L607.453 549.789H613.586L606.125 571ZM625.324 571.41C623.189 571.41 621.327 570.967 619.738 570.082C618.163 569.197 616.945 567.934 616.086 566.293C615.24 564.652 614.816 562.725 614.816 560.512C614.816 558.324 615.24 556.404 616.086 554.75C616.945 553.083 618.15 551.794 619.699 550.883C621.249 549.971 623.046 549.516 625.09 549.516C627.004 549.516 628.71 549.919 630.207 550.727C631.704 551.521 632.883 552.725 633.742 554.34C634.602 555.954 635.031 557.927 635.031 560.258V561.879H617.18V558.266H629.582C629.582 557.406 629.393 556.645 629.016 555.98C628.638 555.303 628.117 554.776 627.453 554.398C626.789 554.021 626.034 553.832 625.188 553.832C624.289 553.832 623.488 554.04 622.785 554.457C622.082 554.861 621.529 555.421 621.125 556.137C620.734 556.853 620.533 557.634 620.52 558.48V561.879C620.52 562.934 620.721 563.858 621.125 564.652C621.529 565.447 622.095 566.052 622.824 566.469C623.566 566.885 624.426 567.094 625.402 567.094C626.053 567.094 626.646 567.003 627.18 566.82C627.714 566.625 628.163 566.378 628.527 566.078C628.905 565.766 629.191 565.401 629.387 564.984H634.895C634.621 566.273 634.055 567.406 633.195 568.383C632.349 569.346 631.249 570.095 629.895 570.629C628.553 571.15 627.03 571.41 625.324 571.41ZM644.445 571H638.664V542.719H644.445V571ZM681.711 542.719V561.098C681.711 563.129 681.223 564.919 680.246 566.469C679.283 568.018 677.915 569.229 676.145 570.102C674.374 570.961 672.329 571.391 670.012 571.391C667.681 571.391 665.637 570.961 663.879 570.102C662.121 569.229 660.754 568.018 659.777 566.469C658.814 564.919 658.332 563.129 658.332 561.098V542.719H664.191V560.609C664.191 561.677 664.432 562.641 664.914 563.5C665.396 564.346 666.079 565.017 666.965 565.512C667.85 565.993 668.866 566.234 670.012 566.234C671.171 566.234 672.193 565.993 673.078 565.512C673.964 565.017 674.641 564.346 675.109 563.5C675.591 562.641 675.832 561.677 675.832 560.609V542.719H681.711ZM686.359 549.789H692.043V553.344H692.316L692.434 553.109C692.772 552.445 693.189 551.853 693.684 551.332C694.178 550.798 694.816 550.362 695.598 550.023C696.379 549.685 697.297 549.516 698.352 549.516C699.953 549.516 701.405 549.926 702.707 550.746C704.009 551.566 705.038 552.797 705.793 554.438C706.561 556.078 706.945 558.07 706.945 560.414C706.945 562.706 706.574 564.678 705.832 566.332C705.09 567.973 704.068 569.216 702.766 570.062C701.464 570.909 699.986 571.332 698.332 571.332C697.29 571.332 696.366 571.156 695.559 570.805C694.764 570.453 694.12 570.023 693.625 569.516C693.13 569.008 692.707 568.415 692.355 567.738L692.316 567.621H692.141V578.969H686.359V549.789ZM691.984 560.375C691.984 561.638 692.167 562.751 692.531 563.715C692.896 564.678 693.417 565.421 694.094 565.941C694.771 566.462 695.591 566.723 696.555 566.723C697.505 566.723 698.319 566.456 698.996 565.922C699.686 565.388 700.201 564.646 700.539 563.695C700.891 562.732 701.066 561.625 701.066 560.375C701.066 559.125 700.891 558.031 700.539 557.094C700.201 556.156 699.693 555.434 699.016 554.926C698.339 554.405 697.518 554.145 696.555 554.145C695.591 554.145 694.771 554.398 694.094 554.906C693.417 555.401 692.896 556.117 692.531 557.055C692.167 557.992 691.984 559.099 691.984 560.375ZM510.656 590.719H516.516V614.156H528.684V619H510.656V590.719ZM541.984 619.41C539.849 619.41 537.987 618.967 536.398 618.082C534.823 617.197 533.605 615.934 532.746 614.293C531.9 612.652 531.477 610.725 531.477 608.512C531.477 606.324 531.9 604.404 532.746 602.75C533.605 601.083 534.81 599.794 536.359 598.883C537.909 597.971 539.706 597.516 541.75 597.516C543.664 597.516 545.37 597.919 546.867 598.727C548.365 599.521 549.543 600.725 550.402 602.34C551.262 603.954 551.691 605.927 551.691 608.258V609.879H533.84V606.266H546.242C546.242 605.406 546.053 604.645 545.676 603.98C545.298 603.303 544.777 602.776 544.113 602.398C543.449 602.021 542.694 601.832 541.848 601.832C540.949 601.832 540.148 602.04 539.445 602.457C538.742 602.861 538.189 603.421 537.785 604.137C537.395 604.853 537.193 605.634 537.18 606.48V609.879C537.18 610.934 537.382 611.858 537.785 612.652C538.189 613.447 538.755 614.052 539.484 614.469C540.227 614.885 541.086 615.094 542.062 615.094C542.714 615.094 543.306 615.003 543.84 614.82C544.374 614.625 544.823 614.378 545.188 614.078C545.565 613.766 545.852 613.401 546.047 612.984H551.555C551.281 614.273 550.715 615.406 549.855 616.383C549.009 617.346 547.909 618.095 546.555 618.629C545.214 619.15 543.69 619.41 541.984 619.41ZM566.926 619H560.422L553 597.789H559.133L563.566 613.023H563.801L568.254 597.789H574.387L566.926 619ZM586.125 619.41C583.99 619.41 582.128 618.967 580.539 618.082C578.964 617.197 577.746 615.934 576.887 614.293C576.04 612.652 575.617 610.725 575.617 608.512C575.617 606.324 576.04 604.404 576.887 602.75C577.746 601.083 578.951 599.794 580.5 598.883C582.049 597.971 583.846 597.516 585.891 597.516C587.805 597.516 589.51 597.919 591.008 598.727C592.505 599.521 593.684 600.725 594.543 602.34C595.402 603.954 595.832 605.927 595.832 608.258V609.879H577.98V606.266H590.383C590.383 605.406 590.194 604.645 589.816 603.98C589.439 603.303 588.918 602.776 588.254 602.398C587.59 602.021 586.835 601.832 585.988 601.832C585.09 601.832 584.289 602.04 583.586 602.457C582.883 602.861 582.329 603.421 581.926 604.137C581.535 604.853 581.333 605.634 581.32 606.48V609.879C581.32 610.934 581.522 611.858 581.926 612.652C582.329 613.447 582.896 614.052 583.625 614.469C584.367 614.885 585.227 615.094 586.203 615.094C586.854 615.094 587.447 615.003 587.98 614.82C588.514 614.625 588.964 614.378 589.328 614.078C589.706 613.766 589.992 613.401 590.188 612.984H595.695C595.422 614.273 594.855 615.406 593.996 616.383C593.15 617.346 592.049 618.095 590.695 618.629C589.354 619.15 587.831 619.41 586.125 619.41ZM605.246 619H599.465V590.719H605.246V619ZM642.512 590.719V609.098C642.512 611.129 642.023 612.919 641.047 614.469C640.083 616.018 638.716 617.229 636.945 618.102C635.174 618.961 633.13 619.391 630.812 619.391C628.482 619.391 626.438 618.961 624.68 618.102C622.922 617.229 621.555 616.018 620.578 614.469C619.615 612.919 619.133 611.129 619.133 609.098V590.719H624.992V608.609C624.992 609.677 625.233 610.641 625.715 611.5C626.197 612.346 626.88 613.017 627.766 613.512C628.651 613.993 629.667 614.234 630.812 614.234C631.971 614.234 632.993 613.993 633.879 613.512C634.764 613.017 635.441 612.346 635.91 611.5C636.392 610.641 636.633 609.677 636.633 608.609V590.719H642.512ZM647.16 597.789H652.844V601.344H653.117L653.234 601.109C653.573 600.445 653.99 599.853 654.484 599.332C654.979 598.798 655.617 598.362 656.398 598.023C657.18 597.685 658.098 597.516 659.152 597.516C660.754 597.516 662.206 597.926 663.508 598.746C664.81 599.566 665.839 600.797 666.594 602.438C667.362 604.078 667.746 606.07 667.746 608.414C667.746 610.706 667.375 612.678 666.633 614.332C665.891 615.973 664.868 617.216 663.566 618.062C662.264 618.909 660.786 619.332 659.133 619.332C658.091 619.332 657.167 619.156 656.359 618.805C655.565 618.453 654.921 618.023 654.426 617.516C653.931 617.008 653.508 616.415 653.156 615.738L653.117 615.621H652.941V626.969H647.16V597.789ZM652.785 608.375C652.785 609.638 652.967 610.751 653.332 611.715C653.697 612.678 654.217 613.421 654.895 613.941C655.572 614.462 656.392 614.723 657.355 614.723C658.306 614.723 659.12 614.456 659.797 613.922C660.487 613.388 661.001 612.646 661.34 611.695C661.691 610.732 661.867 609.625 661.867 608.375C661.867 607.125 661.691 606.031 661.34 605.094C661.001 604.156 660.493 603.434 659.816 602.926C659.139 602.405 658.319 602.145 657.355 602.145C656.392 602.145 655.572 602.398 654.895 602.906C654.217 603.401 653.697 604.117 653.332 605.055C652.967 605.992 652.785 607.099 652.785 608.375Z" fill="#304CC4"/>
<path d="M739.211 574.691H734.152V539.008H739.211V574.691ZM719.895 541.527C721.678 541.527 723.28 542.048 724.699 543.09C726.132 544.132 727.245 545.609 728.039 547.523C728.846 549.438 729.25 551.664 729.25 554.203C729.25 556.755 728.846 558.988 728.039 560.902C727.245 562.816 726.132 564.294 724.699 565.336C723.28 566.365 721.678 566.879 719.895 566.879C718.085 566.879 716.464 566.365 715.031 565.336C713.612 564.294 712.499 562.816 711.691 560.902C710.884 558.988 710.48 556.755 710.48 554.203C710.48 551.664 710.884 549.438 711.691 547.523C712.499 545.609 713.612 544.132 715.031 543.09C716.464 542.048 718.085 541.527 719.895 541.527ZM719.895 546.039C718.983 546.026 718.176 546.339 717.473 546.977C716.783 547.602 716.249 548.533 715.871 549.77C715.507 550.993 715.324 552.471 715.324 554.203C715.324 555.935 715.507 557.413 715.871 558.637C716.249 559.861 716.783 560.792 717.473 561.43C718.176 562.055 718.983 562.367 719.895 562.367C720.793 562.367 721.587 562.055 722.277 561.43C722.967 560.792 723.501 559.861 723.879 558.637C724.257 557.413 724.445 555.935 724.445 554.203C724.445 552.471 724.257 550.993 723.879 549.77C723.501 548.533 722.967 547.602 722.277 546.977C721.6 546.339 720.806 546.026 719.895 546.039ZM779.172 550.355H769.27V546.352H779.172V550.355ZM779.172 561.371H769.27V557.367H779.172V561.371ZM763.078 541.527C764.849 541.527 766.431 542.048 767.824 543.09C769.217 544.132 770.305 545.609 771.086 547.523C771.88 549.438 772.277 551.664 772.277 554.203C772.277 556.755 771.88 558.988 771.086 560.902C770.305 562.816 769.217 564.294 767.824 565.336C766.431 566.365 764.849 566.879 763.078 566.879C761.294 566.879 759.699 566.365 758.293 565.336C756.9 564.307 755.806 562.836 755.012 560.922C754.217 558.995 753.82 556.755 753.82 554.203C753.82 551.664 754.217 549.438 755.012 547.523C755.806 545.609 756.9 544.132 758.293 543.09C759.699 542.048 761.294 541.527 763.078 541.527ZM763.078 546.039C762.193 546.026 761.405 546.339 760.715 546.977C760.038 547.615 759.517 548.546 759.152 549.77C758.801 550.993 758.625 552.471 758.625 554.203C758.625 555.935 758.801 557.413 759.152 558.637C759.517 559.861 760.038 560.792 760.715 561.43C761.405 562.055 762.193 562.367 763.078 562.367C763.977 562.367 764.764 562.055 765.441 561.43C766.118 560.792 766.639 559.861 767.004 558.637C767.368 557.413 767.551 555.935 767.551 554.203C767.551 552.458 767.362 550.974 766.984 549.75C766.62 548.526 766.105 547.602 765.441 546.977C764.777 546.339 763.99 546.026 763.078 546.039ZM783.273 574.691H778.332V539.008H783.273V574.691ZM817.785 574.691H812.844V539.008H817.785V574.691ZM813.859 555.922H807.121V551.859H813.859V555.922ZM792.023 562.27C795.448 562.27 798.319 562.211 800.637 562.094C802.967 561.964 805.318 561.69 807.688 561.273L808.078 565.336C805.63 565.74 803.169 566.02 800.695 566.176C798.234 566.319 795.344 566.397 792.023 566.41H789.094V562.27H792.023ZM805.129 555.355H794.074V563.578H789.094V551.391H800.246V546.039H789.016V542.016H805.129V555.355ZM854.895 561.195H822.395V557.289H854.895V561.195ZM841.535 566.938H836.613V559.359H841.535V566.938ZM851.32 573.988H826.184V569.965H851.32V573.988ZM831.145 571.664H826.184V564.125H831.145V571.664ZM831.477 543.891H845.734V540.18H850.695V554.789H826.555V540.18H831.477V543.891ZM845.734 550.863V547.582H831.477V550.863H845.734ZM868.508 541.41C870.37 541.41 872.049 541.788 873.547 542.543C875.044 543.285 876.216 544.32 877.062 545.648C877.922 546.964 878.352 548.461 878.352 550.141C878.352 551.82 877.922 553.324 877.062 554.652C876.216 555.967 875.044 557.003 873.547 557.758C872.062 558.5 870.383 558.871 868.508 558.871C866.659 558.871 864.979 558.5 863.469 557.758C861.958 557.003 860.773 555.967 859.914 554.652C859.055 553.324 858.625 551.82 858.625 550.141C858.625 548.461 859.055 546.964 859.914 545.648C860.773 544.32 861.958 543.285 863.469 542.543C864.979 541.788 866.659 541.41 868.508 541.41ZM868.508 545.707C867.557 545.707 866.711 545.883 865.969 546.234C865.227 546.586 864.641 547.1 864.211 547.777C863.781 548.441 863.566 549.229 863.566 550.141C863.566 551.065 863.781 551.859 864.211 552.523C864.641 553.174 865.227 553.682 865.969 554.047C866.711 554.398 867.557 554.574 868.508 554.574C869.458 554.574 870.311 554.398 871.066 554.047C871.835 553.682 872.427 553.174 872.844 552.523C873.273 551.859 873.488 551.065 873.488 550.141C873.488 549.229 873.273 548.441 872.844 547.777C872.427 547.1 871.835 546.586 871.066 546.234C870.311 545.883 869.458 545.707 868.508 545.707ZM886.848 574.691H881.906V539.008H886.848V574.691ZM857.688 563.363C861.945 563.35 865.891 563.266 869.523 563.109C873.156 562.953 876.613 562.66 879.895 562.23L880.246 565.805C877.837 566.273 875.324 566.625 872.707 566.859C870.09 567.094 867.629 567.243 865.324 567.309C863.033 567.374 860.5 567.406 857.727 567.406L857.141 563.363H857.688ZM686.457 587.555C689.191 587.555 691.522 587.789 693.449 588.258C695.376 588.714 696.841 589.397 697.844 590.309C698.859 591.207 699.367 592.301 699.367 593.59C699.367 594.892 698.859 596.005 697.844 596.93C696.841 597.841 695.376 598.531 693.449 599C691.522 599.469 689.191 599.703 686.457 599.703C683.723 599.703 681.385 599.469 679.445 599C677.518 598.531 676.04 597.841 675.012 596.93C673.996 596.005 673.488 594.892 673.488 593.59C673.488 592.301 673.996 591.207 675.012 590.309C676.04 589.397 677.518 588.714 679.445 588.258C681.385 587.789 683.723 587.555 686.457 587.555ZM686.457 591.188C684.725 591.188 683.286 591.279 682.141 591.461C680.995 591.63 680.135 591.897 679.562 592.262C679.003 592.626 678.723 593.069 678.723 593.59C678.723 594.176 678.996 594.651 679.543 595.016C680.103 595.367 680.943 595.628 682.062 595.797C683.182 595.966 684.647 596.051 686.457 596.051C688.293 596.051 689.771 595.966 690.891 595.797C692.01 595.628 692.844 595.367 693.391 595.016C693.951 594.651 694.23 594.176 694.23 593.59C694.23 593.069 693.944 592.633 693.371 592.281C692.811 591.917 691.958 591.643 690.812 591.461C689.667 591.279 688.215 591.188 686.457 591.188ZM702.688 605.348H670.266V601.402H702.688V605.348ZM698.723 616.461H678.918V619.664H674.016V612.984H693.801V611.031H673.996V607.379H698.723V616.461ZM699.66 622.34H674.016V618.609H699.66V622.34ZM743.039 606.91H717.922V602.945H743.039V606.91ZM746.594 618.57H714.094V614.488H746.594V618.57ZM732.727 615.797H727.824V604.762H732.727V615.797ZM742.785 593.512H722.902V604.742H717.922V589.566H742.785V593.512ZM761.77 613.414H756.809V605.016H761.77V613.414ZM759.25 589.156C761.06 589.156 762.701 589.527 764.172 590.27C765.656 591.012 766.828 592.047 767.688 593.375C768.56 594.69 768.996 596.188 768.996 597.867C768.996 599.547 768.56 601.051 767.688 602.379C766.828 603.694 765.656 604.723 764.172 605.465C762.701 606.194 761.06 606.559 759.25 606.559C757.388 606.559 755.715 606.194 754.23 605.465C752.746 604.723 751.581 603.694 750.734 602.379C749.901 601.051 749.484 599.547 749.484 597.867C749.484 596.188 749.901 594.69 750.734 593.375C751.581 592.047 752.746 591.012 754.23 590.27C755.715 589.527 757.388 589.156 759.25 589.156ZM759.25 593.375C758.299 593.375 757.453 593.557 756.711 593.922C755.982 594.273 755.402 594.788 754.973 595.465C754.556 596.142 754.348 596.943 754.348 597.867C754.348 598.779 754.556 599.573 754.973 600.25C755.402 600.927 755.988 601.448 756.73 601.812C757.473 602.177 758.312 602.359 759.25 602.359C760.161 602.359 760.982 602.177 761.711 601.812C762.44 601.448 763.013 600.927 763.43 600.25C763.859 599.573 764.074 598.779 764.074 597.867C764.074 596.943 763.859 596.148 763.43 595.484C763.013 594.807 762.44 594.286 761.711 593.922C760.995 593.557 760.174 593.375 759.25 593.375ZM776.887 622.594H771.906V587.008H776.887V622.594ZM781.711 605.172H775.363V600.973H781.711V605.172ZM749.035 611.422C753.475 611.409 757.329 611.35 760.598 611.246C763.866 611.142 767.004 610.882 770.012 610.465L770.324 614.137C768.046 614.566 765.669 614.885 763.195 615.094C760.721 615.289 758.378 615.406 756.164 615.445C753.951 615.471 751.529 615.478 748.898 615.465L748.234 611.422H749.035ZM812.18 607.496H787.062V603.512H812.18V607.496ZM815.734 618.277H783.234V614.176H815.734V618.277ZM811.926 594.039H791.984V605.172H787.062V590.016H811.926V594.039ZM822.648 600.973C826.906 600.973 830.194 600.921 832.512 600.816C834.842 600.699 837.16 600.465 839.465 600.113L839.914 603.844C837.544 604.221 835.122 604.482 832.648 604.625C830.188 604.755 826.854 604.82 822.648 604.82H819.562V600.973H822.648ZM836.262 598.316H824.504V602.789H819.562V594.84H831.32V592.496H819.465V588.707H836.262V598.316ZM847.531 616.266H828.801V620.133H823.781V612.672H842.414V610.641H823.703V606.832H847.531V616.266ZM848.508 622.34H823.781V618.512H848.508V622.34ZM847.531 605.602H842.551V587.008H847.531V605.602ZM883.156 622.594H878.469V587.008H883.156V622.594ZM871.867 604.703H864.094V600.738H871.867V604.703ZM875.598 621.031H870.91V587.848H875.598V621.031ZM867.902 591.266C867.902 594.794 867.486 597.997 866.652 600.875C865.832 603.74 864.452 606.376 862.512 608.785C860.572 611.194 857.98 613.329 854.738 615.191L851.926 611.695C854.634 610.094 856.802 608.342 858.43 606.441C860.057 604.527 861.236 602.418 861.965 600.113C862.707 597.809 863.078 595.198 863.078 592.281V591.266H867.902ZM864.68 595.27H853.879V591.266H864.68V595.27ZM899.133 615.113H894.191V605.133H899.133V615.113ZM912.219 615.113H907.199V605.133H912.219V615.113ZM919.445 618.434H886.945V614.352H919.445V618.434ZM903.137 588.766C905.702 588.766 907.993 589.163 910.012 589.957C912.043 590.751 913.632 591.871 914.777 593.316C915.936 594.762 916.516 596.422 916.516 598.297C916.516 600.185 915.943 601.852 914.797 603.297C913.651 604.729 912.062 605.842 910.031 606.637C908.013 607.418 905.715 607.815 903.137 607.828C900.572 607.815 898.273 607.418 896.242 606.637C894.224 605.842 892.642 604.729 891.496 603.297C890.35 601.852 889.777 600.185 889.777 598.297C889.777 596.422 890.35 594.762 891.496 593.316C892.642 591.871 894.23 590.751 896.262 589.957C898.293 589.163 900.585 588.766 903.137 588.766ZM903.137 592.711C901.444 592.698 899.966 592.913 898.703 593.355C897.44 593.798 896.457 594.443 895.754 595.289C895.051 596.122 894.699 597.125 894.699 598.297C894.699 599.456 895.051 600.465 895.754 601.324C896.457 602.171 897.44 602.828 898.703 603.297C899.979 603.753 901.457 603.98 903.137 603.98C904.803 603.98 906.275 603.753 907.551 603.297C908.827 602.828 909.816 602.171 910.52 601.324C911.236 600.465 911.594 599.456 911.594 598.297C911.594 597.125 911.242 596.122 910.539 595.289C909.836 594.456 908.846 593.818 907.57 593.375C906.307 592.919 904.829 592.698 903.137 592.711ZM929.055 610.543H924.074L923.547 590.719H929.602L929.055 610.543ZM926.574 619.352C925.988 619.352 925.441 619.202 924.934 618.902C924.426 618.59 924.022 618.186 923.723 617.691C923.436 617.184 923.293 616.637 923.293 616.051C923.293 615.478 923.436 614.944 923.723 614.449C924.022 613.941 924.426 613.544 924.934 613.258C925.441 612.971 925.988 612.828 926.574 612.828C927.147 612.828 927.681 612.971 928.176 613.258C928.684 613.544 929.087 613.941 929.387 614.449C929.699 614.944 929.855 615.478 929.855 616.051C929.855 616.637 929.699 617.184 929.387 617.691C929.087 618.186 928.684 618.59 928.176 618.902C927.681 619.202 927.147 619.352 926.574 619.352Z" fill="black"/>
</g>
<defs>
<linearGradient id="paint0_linear_1357_5431" x1="721" y1="0" x2="721" y2="862" gradientUnits="userSpaceOnUse">
<stop stop-color="#9CA6E1"/>
<stop offset="1" stop-color="white"/>
</linearGradient>
<clipPath id="clip0_1357_5431">
<rect width="1440" height="862" fill="white"/>
</clipPath>
</defs>
</svg>
