<svg width="1440" height="862" viewBox="0 0 1440 862" fill="none" xmlns="http://www.w3.org/2000/svg">
<g clip-path="url(#clip0_1409_5571)">
<rect width="1440" height="862" fill="white"/>
<rect width="1440" height="862" fill="url(#paint0_linear_1409_5571)"/>
<path d="M561.941 292.203H553.914V284.527H561.941V292.203ZM555.418 290.953H560.457V285.758H555.418V290.953ZM566.746 293.512H565.223V283.219H566.746V293.512ZM569.363 289.039H566.316V287.75H569.363V289.039ZM566.746 300.621H565.223V295.68H555.379V294.449H566.746V300.621ZM579.227 292.203H571.199V284.527H579.227V292.203ZM572.703 290.953H577.742V285.758H572.703V290.953ZM584.031 293.512H582.508V283.219H584.031V293.512ZM586.648 289.039H583.602V287.75H586.648V289.039ZM584.031 300.621H582.508V295.68H572.664V294.449H584.031V300.621ZM601.316 296.246H599.793V283.238H601.316V296.246ZM603.934 290.25H600.828V288.961H603.934V290.25ZM598.133 286.617H587.781V285.367H598.133V286.617ZM592.957 287.574C593.777 287.574 594.503 287.708 595.135 287.975C595.766 288.242 596.258 288.619 596.609 289.107C596.961 289.596 597.137 290.165 597.137 290.816C597.137 291.454 596.961 292.014 596.609 292.496C596.258 292.978 595.766 293.352 595.135 293.619C594.503 293.886 593.777 294.02 592.957 294.02C592.137 294.02 591.408 293.886 590.77 293.619C590.132 293.352 589.64 292.978 589.295 292.496C588.95 292.014 588.777 291.454 588.777 290.816C588.777 290.165 588.95 289.596 589.295 289.107C589.64 288.619 590.132 288.242 590.77 287.975C591.408 287.708 592.137 287.574 592.957 287.574ZM592.957 288.785C592.423 288.785 591.948 288.867 591.531 289.029C591.115 289.192 590.796 289.43 590.574 289.742C590.353 290.055 590.242 290.413 590.242 290.816C590.242 291.22 590.353 291.572 590.574 291.871C590.796 292.171 591.115 292.402 591.531 292.564C591.948 292.727 592.423 292.809 592.957 292.809C593.491 292.809 593.966 292.727 594.383 292.564C594.799 292.402 595.122 292.171 595.35 291.871C595.577 291.572 595.691 291.22 595.691 290.816C595.691 290.413 595.577 290.055 595.35 289.742C595.122 289.43 594.799 289.192 594.383 289.029C593.966 288.867 593.491 288.785 592.957 288.785ZM593.719 286.012H592.195V283.238H593.719V286.012ZM602.117 300.211H590.457V298.922H602.117V300.211ZM591.961 299.449H590.457V295.211H591.961V299.449ZM616.336 286.5C616.336 287.32 616.134 288.085 615.73 288.795C615.327 289.505 614.76 290.113 614.031 290.621C613.302 291.129 612.456 291.507 611.492 291.754L610.828 290.523C611.661 290.341 612.397 290.051 613.035 289.654C613.673 289.257 614.171 288.785 614.529 288.238C614.887 287.691 615.066 287.112 615.066 286.5V286.246H616.336V286.5ZM616.59 286.5C616.59 287.073 616.769 287.613 617.127 288.121C617.485 288.629 617.98 289.072 618.611 289.449C619.243 289.827 619.969 290.107 620.789 290.289L620.164 291.52C619.201 291.285 618.357 290.927 617.635 290.445C616.912 289.964 616.349 289.384 615.945 288.707C615.542 288.03 615.34 287.294 615.34 286.5V286.246H616.59V286.5ZM620.457 286.422H611.199V285.211H620.457V286.422ZM616.59 286.031H615.066V283.277H616.59V286.031ZM616.629 300.074H615.105V293.16H616.629V300.074ZM624.363 300.602H622.859V283.238H624.363V300.602ZM610.008 292.984C612.221 292.984 614.279 292.949 616.18 292.877C618.081 292.805 619.884 292.665 621.59 292.457L621.688 293.57C619.93 293.857 618.113 294.046 616.238 294.137C614.363 294.228 612.358 294.273 610.223 294.273L610.008 292.984ZM640.848 288.648H636.141V287.379H640.848V288.648ZM632.117 284.039C632.977 284.026 633.745 284.189 634.422 284.527C635.099 284.866 635.633 285.341 636.023 285.953C636.414 286.565 636.609 287.262 636.609 288.043C636.609 288.824 636.414 289.521 636.023 290.133C635.633 290.745 635.099 291.22 634.422 291.559C633.745 291.897 632.977 292.066 632.117 292.066C631.245 292.066 630.467 291.897 629.783 291.559C629.1 291.22 628.566 290.745 628.182 290.133C627.798 289.521 627.605 288.824 627.605 288.043C627.605 287.262 627.798 286.565 628.182 285.953C628.566 285.341 629.103 284.866 629.793 284.527C630.483 284.189 631.258 284.026 632.117 284.039ZM632.117 285.348C631.531 285.335 631.007 285.442 630.545 285.67C630.083 285.898 629.721 286.217 629.461 286.627C629.201 287.037 629.07 287.509 629.07 288.043C629.07 288.564 629.201 289.033 629.461 289.449C629.721 289.866 630.083 290.191 630.545 290.426C631.007 290.66 631.531 290.777 632.117 290.777C632.703 290.777 633.224 290.66 633.68 290.426C634.135 290.191 634.49 289.866 634.744 289.449C634.998 289.033 635.125 288.564 635.125 288.043C635.125 287.509 634.998 287.037 634.744 286.627C634.49 286.217 634.135 285.898 633.68 285.67C633.224 285.442 632.703 285.335 632.117 285.348ZM641.727 292.535H640.184V283.219H641.727V292.535ZM632.078 295.621H640.184V293.414H641.727V300.348H630.535V293.414H632.078V295.621ZM640.184 299.098V296.852H632.078V299.098H640.184ZM657.918 285.387C657.918 286.324 657.609 287.18 656.99 287.955C656.372 288.73 655.551 289.368 654.529 289.869C653.507 290.37 652.391 290.712 651.18 290.895L650.613 289.684C651.655 289.54 652.628 289.26 653.533 288.844C654.438 288.427 655.167 287.916 655.721 287.311C656.274 286.705 656.551 286.064 656.551 285.387V284.859H657.918V285.387ZM658.543 285.387C658.543 286.064 658.823 286.705 659.383 287.311C659.943 287.916 660.682 288.427 661.6 288.844C662.518 289.26 663.491 289.54 664.52 289.684L663.914 290.895C662.716 290.712 661.603 290.37 660.574 289.869C659.546 289.368 658.722 288.73 658.104 287.955C657.485 287.18 657.176 286.324 657.176 285.387V284.859H658.543V285.387ZM664.051 285.348H651.082V284.098H664.051V285.348ZM665.516 293.434H649.617V292.164H665.516V293.434ZM658.445 296.988H656.922V292.945H658.445V296.988ZM663.738 300.211H651.648V298.922H663.738V300.211ZM653.191 299.41H651.648V295.25H653.191V299.41ZM681.238 300.621H679.695V283.219H681.238V300.621ZM669.461 289.293H674.637V284.703H676.141V296.422H667.938V284.703H669.461V289.293ZM674.637 295.133V290.523H669.461V295.133H674.637ZM700.086 292.496H684.188V291.285H700.086V292.496ZM698.094 297.574H687.664V299.645H686.121V296.52H696.57V295.035H686.102V293.883H698.094V297.574ZM698.66 300.348H686.121V299.234H698.66V300.348ZM698.035 287.34H687.781V289.254H686.258V286.285H696.492V284.859H686.199V283.746H698.035V287.34ZM698.348 289.977H686.258V288.863H698.348V289.977ZM720.906 300.621H719.363V283.219H720.906V300.621ZM719.832 290.816H715.555V289.547H719.832V290.816ZM712.234 288.375C712.234 289.573 712.013 290.758 711.57 291.93C711.128 293.102 710.532 294.143 709.783 295.055C709.035 295.966 708.204 296.663 707.293 297.145L706.355 295.953C707.189 295.536 707.96 294.928 708.67 294.127C709.38 293.326 709.943 292.418 710.359 291.402C710.776 290.387 710.984 289.378 710.984 288.375V285.68H712.234V288.375ZM712.527 288.375C712.527 289.312 712.736 290.266 713.152 291.236C713.569 292.206 714.129 293.076 714.832 293.844C715.535 294.612 716.303 295.185 717.137 295.562L716.219 296.793C715.307 296.337 714.477 295.67 713.729 294.791C712.98 293.912 712.387 292.91 711.951 291.783C711.515 290.657 711.297 289.521 711.297 288.375V285.68H712.527V288.375ZM716.512 286.285H707.02V285.016H716.512V286.285ZM738.035 300.582H736.512V283.219H738.035V300.582ZM723.895 295.836C726.186 295.836 728.253 295.807 730.096 295.748C731.938 295.689 733.693 295.556 735.359 295.348L735.477 296.48C734.318 296.676 733.11 296.822 731.854 296.92C730.597 297.018 729.386 297.079 728.221 297.105C727.055 297.132 725.835 297.145 724.559 297.145H724.129L723.895 295.836ZM734.91 286.832H724.266V285.582H734.91V286.832ZM729.598 287.789C730.418 287.789 731.144 287.923 731.775 288.189C732.407 288.456 732.898 288.837 733.25 289.332C733.602 289.827 733.777 290.406 733.777 291.07C733.777 291.708 733.602 292.275 733.25 292.77C732.898 293.264 732.407 293.645 731.775 293.912C731.144 294.179 730.418 294.312 729.598 294.312C728.79 294.312 728.071 294.179 727.439 293.912C726.808 293.645 726.32 293.264 725.975 292.77C725.63 292.275 725.457 291.708 725.457 291.07C725.457 290.406 725.63 289.827 725.975 289.332C726.32 288.837 726.808 288.456 727.439 288.189C728.071 287.923 728.79 287.789 729.598 287.789ZM729.598 289C729.077 289 728.608 289.085 728.191 289.254C727.775 289.423 727.452 289.667 727.225 289.986C726.997 290.305 726.883 290.667 726.883 291.07C726.883 291.461 726.997 291.812 727.225 292.125C727.452 292.438 727.775 292.682 728.191 292.857C728.608 293.033 729.077 293.121 729.598 293.121C730.132 293.121 730.604 293.033 731.014 292.857C731.424 292.682 731.743 292.438 731.971 292.125C732.199 291.812 732.312 291.461 732.312 291.07C732.312 290.667 732.199 290.305 731.971 289.986C731.743 289.667 731.424 289.423 731.014 289.254C730.604 289.085 730.132 289 729.598 289ZM730.379 286.383H728.816V283.414H730.379V286.383ZM754.52 300.582H752.996V283.219H754.52V300.582ZM757.332 291.578H754.129V290.289H757.332V291.578ZM750.027 285.094C750.027 286.786 749.751 288.382 749.197 289.879C748.644 291.376 747.775 292.757 746.59 294.02C745.405 295.283 743.895 296.37 742.059 297.281L741.199 296.07C742.814 295.263 744.165 294.319 745.252 293.238C746.339 292.158 747.156 290.956 747.703 289.635C748.25 288.313 748.523 286.884 748.523 285.348V285.094H750.027ZM749.305 286.383H742V285.094H749.305V286.383ZM777.41 292.613H765.418V291.363H777.41V292.613ZM779.285 298.395H763.387V297.105H779.285V298.395ZM772.039 297.633H770.535V291.91H772.039V297.633ZM777.234 285.895H766.961V291.949H765.418V284.645H777.234V285.895ZM786.688 296.109H785.145V291.988H786.688V296.109ZM785.906 284.352C786.792 284.352 787.586 284.524 788.289 284.869C788.992 285.214 789.542 285.696 789.939 286.314C790.337 286.933 790.535 287.639 790.535 288.434C790.535 289.228 790.337 289.931 789.939 290.543C789.542 291.155 788.992 291.633 788.289 291.979C787.586 292.324 786.792 292.496 785.906 292.496C785.008 292.496 784.207 292.324 783.504 291.979C782.801 291.633 782.254 291.155 781.863 290.543C781.473 289.931 781.277 289.228 781.277 288.434C781.277 287.639 781.473 286.933 781.863 286.314C782.254 285.696 782.801 285.214 783.504 284.869C784.207 284.524 785.008 284.352 785.906 284.352ZM785.906 285.68C785.307 285.68 784.77 285.797 784.295 286.031C783.82 286.266 783.449 286.591 783.182 287.008C782.915 287.424 782.781 287.9 782.781 288.434C782.781 288.967 782.915 289.443 783.182 289.859C783.449 290.276 783.82 290.602 784.295 290.836C784.77 291.07 785.307 291.188 785.906 291.188C786.505 291.188 787.039 291.07 787.508 290.836C787.977 290.602 788.348 290.276 788.621 289.859C788.895 289.443 789.031 288.967 789.031 288.434C789.031 287.9 788.895 287.424 788.621 287.008C788.348 286.591 787.977 286.266 787.508 286.031C787.039 285.797 786.505 285.68 785.906 285.68ZM794.09 300.582H792.566V283.219H794.09V300.582ZM796.922 291.715H793.68V290.387H796.922V291.715ZM780.594 295.523C782.911 295.51 784.917 295.475 786.609 295.416C788.302 295.357 789.917 295.224 791.453 295.016L791.551 296.168C790.418 296.363 789.223 296.51 787.967 296.607C786.71 296.705 785.503 296.764 784.344 296.783C783.185 296.803 781.974 296.812 780.711 296.812L780.457 295.523H780.594ZM811.98 292.848H799.988V291.578H811.98V292.848ZM813.855 298.219H797.957V296.93H813.855V298.219ZM811.805 286.109H801.512V292.145H799.988V284.84H811.805V286.109ZM817.527 290.465C819.35 290.465 820.874 290.429 822.098 290.357C823.322 290.286 824.585 290.152 825.887 289.957L826.023 291.148C824.695 291.357 823.403 291.5 822.146 291.578C820.89 291.656 819.35 291.695 817.527 291.695H816.121V290.465H817.527ZM824.09 288.316H817.645V291.051H816.121V287.184H822.586V285.27H816.062V284.078H824.09V288.316ZM829.578 297.223H819.852V299.723H818.328V296.07H828.016V294.352H818.289V293.141H829.578V297.223ZM830.203 300.387H818.328V299.156H830.203V300.387ZM829.578 292.379H828.055V283.219H829.578V292.379ZM847.391 300.582H845.926V283.219H847.391V300.582ZM842.723 291.598H838.27V290.348H842.723V291.598ZM843.738 299.703H842.273V283.688H843.738V299.703ZM840.027 285.445C840.027 286.995 839.799 288.463 839.344 289.85C838.888 291.236 838.172 292.522 837.195 293.707C836.219 294.892 834.969 295.934 833.445 296.832L832.547 295.719C833.901 294.911 835.024 293.993 835.916 292.965C836.808 291.936 837.469 290.813 837.898 289.596C838.328 288.378 838.543 287.086 838.543 285.719V285.445H840.027ZM839.129 286.715H833.289V285.445H839.129V286.715ZM855.262 297.379H853.758V292.184H855.262V297.379ZM861.766 297.379H860.223V292.184H861.766V297.379ZM865.711 298.355H849.812V297.066H865.711V298.355ZM857.723 284.312C858.96 284.312 860.057 284.498 861.014 284.869C861.971 285.24 862.719 285.764 863.26 286.441C863.8 287.118 864.07 287.9 864.07 288.785C864.07 289.671 863.8 290.449 863.26 291.119C862.719 291.79 861.971 292.311 861.014 292.682C860.057 293.053 858.96 293.238 857.723 293.238C856.499 293.238 855.405 293.053 854.441 292.682C853.478 292.311 852.726 291.79 852.186 291.119C851.645 290.449 851.375 289.671 851.375 288.785C851.375 287.9 851.645 287.118 852.186 286.441C852.726 285.764 853.478 285.24 854.441 284.869C855.405 284.498 856.499 284.312 857.723 284.312ZM857.723 285.582C856.785 285.569 855.949 285.696 855.213 285.963C854.477 286.23 853.901 286.607 853.484 287.096C853.068 287.584 852.859 288.147 852.859 288.785C852.859 289.423 853.068 289.986 853.484 290.475C853.901 290.963 854.477 291.344 855.213 291.617C855.949 291.891 856.785 292.027 857.723 292.027C858.66 292.027 859.497 291.891 860.232 291.617C860.968 291.344 861.544 290.963 861.961 290.475C862.378 289.986 862.586 289.423 862.586 288.785C862.586 288.147 862.378 287.584 861.961 287.096C861.544 286.607 860.968 286.23 860.232 285.963C859.497 285.696 858.66 285.569 857.723 285.582ZM869.773 295.016H868.133L867.996 284.859H869.91L869.773 295.016ZM868.953 299.117C868.732 299.117 868.523 299.059 868.328 298.941C868.133 298.824 867.98 298.668 867.869 298.473C867.758 298.277 867.703 298.069 867.703 297.848C867.703 297.626 867.758 297.418 867.869 297.223C867.98 297.027 868.133 296.874 868.328 296.764C868.523 296.653 868.732 296.598 868.953 296.598C869.174 296.598 869.383 296.653 869.578 296.764C869.773 296.874 869.926 297.027 870.037 297.223C870.148 297.418 870.203 297.626 870.203 297.848C870.203 298.069 870.148 298.277 870.037 298.473C869.926 298.668 869.773 298.824 869.578 298.941C869.383 299.059 869.174 299.117 868.953 299.117Z" fill="#0E0E0E"/>
<path d="M397.207 351V345.961H404.297C406.12 345.961 407.637 345.635 408.848 344.984C410.059 344.333 410.97 343.337 411.582 341.996C412.194 340.642 412.5 338.923 412.5 336.84C412.5 334.757 412.194 333.044 411.582 331.703C410.983 330.349 410.078 329.353 408.867 328.715C407.656 328.077 406.146 327.758 404.336 327.758H397.07V322.719H404.629C407.467 322.719 409.915 323.285 411.973 324.418C414.043 325.538 415.625 327.159 416.719 329.281C417.826 331.404 418.379 333.923 418.379 336.84C418.379 339.77 417.826 342.296 416.719 344.418C415.612 346.54 414.017 348.168 411.934 349.301C409.863 350.434 407.402 351 404.551 351H397.207ZM400.449 351H394.59V322.719H400.449V351ZM432.129 351.41C429.993 351.41 428.132 350.967 426.543 350.082C424.967 349.197 423.75 347.934 422.891 346.293C422.044 344.652 421.621 342.725 421.621 340.512C421.621 338.324 422.044 336.404 422.891 334.75C423.75 333.083 424.954 331.794 426.504 330.883C428.053 329.971 429.85 329.516 431.895 329.516C433.809 329.516 435.514 329.919 437.012 330.727C438.509 331.521 439.688 332.725 440.547 334.34C441.406 335.954 441.836 337.927 441.836 340.258V341.879H423.984V338.266H436.387C436.387 337.406 436.198 336.645 435.82 335.98C435.443 335.303 434.922 334.776 434.258 334.398C433.594 334.021 432.839 333.832 431.992 333.832C431.094 333.832 430.293 334.04 429.59 334.457C428.887 334.861 428.333 335.421 427.93 336.137C427.539 336.853 427.337 337.634 427.324 338.48V341.879C427.324 342.934 427.526 343.858 427.93 344.652C428.333 345.447 428.9 346.052 429.629 346.469C430.371 346.885 431.23 347.094 432.207 347.094C432.858 347.094 433.451 347.003 433.984 346.82C434.518 346.625 434.967 346.378 435.332 346.078C435.71 345.766 435.996 345.401 436.191 344.984H441.699C441.426 346.273 440.859 347.406 440 348.383C439.154 349.346 438.053 350.095 436.699 350.629C435.358 351.15 433.835 351.41 432.129 351.41ZM457.07 351H450.566L443.145 329.789H449.277L453.711 345.023H453.945L458.398 329.789H464.531L457.07 351ZM476.27 351.41C474.134 351.41 472.272 350.967 470.684 350.082C469.108 349.197 467.891 347.934 467.031 346.293C466.185 344.652 465.762 342.725 465.762 340.512C465.762 338.324 466.185 336.404 467.031 334.75C467.891 333.083 469.095 331.794 470.645 330.883C472.194 329.971 473.991 329.516 476.035 329.516C477.949 329.516 479.655 329.919 481.152 330.727C482.65 331.521 483.828 332.725 484.688 334.34C485.547 335.954 485.977 337.927 485.977 340.258V341.879H468.125V338.266H480.527C480.527 337.406 480.339 336.645 479.961 335.98C479.583 335.303 479.062 334.776 478.398 334.398C477.734 334.021 476.979 333.832 476.133 333.832C475.234 333.832 474.434 334.04 473.73 334.457C473.027 334.861 472.474 335.421 472.07 336.137C471.68 336.853 471.478 337.634 471.465 338.48V341.879C471.465 342.934 471.667 343.858 472.07 344.652C472.474 345.447 473.04 346.052 473.77 346.469C474.512 346.885 475.371 347.094 476.348 347.094C476.999 347.094 477.591 347.003 478.125 346.82C478.659 346.625 479.108 346.378 479.473 346.078C479.85 345.766 480.137 345.401 480.332 344.984H485.84C485.566 346.273 485 347.406 484.141 348.383C483.294 349.346 482.194 350.095 480.84 350.629C479.499 351.15 477.975 351.41 476.27 351.41ZM495.391 351H489.609V322.719H495.391V351ZM532.656 322.719V341.098C532.656 343.129 532.168 344.919 531.191 346.469C530.228 348.018 528.861 349.229 527.09 350.102C525.319 350.961 523.275 351.391 520.957 351.391C518.626 351.391 516.582 350.961 514.824 350.102C513.066 349.229 511.699 348.018 510.723 346.469C509.759 344.919 509.277 343.129 509.277 341.098V322.719H515.137V340.609C515.137 341.677 515.378 342.641 515.859 343.5C516.341 344.346 517.025 345.017 517.91 345.512C518.796 345.993 519.811 346.234 520.957 346.234C522.116 346.234 523.138 345.993 524.023 345.512C524.909 345.017 525.586 344.346 526.055 343.5C526.536 342.641 526.777 341.677 526.777 340.609V322.719H532.656ZM537.305 329.789H542.988V333.344H543.262L543.379 333.109C543.717 332.445 544.134 331.853 544.629 331.332C545.124 330.798 545.762 330.362 546.543 330.023C547.324 329.685 548.242 329.516 549.297 329.516C550.898 329.516 552.35 329.926 553.652 330.746C554.954 331.566 555.983 332.797 556.738 334.438C557.507 336.078 557.891 338.07 557.891 340.414C557.891 342.706 557.52 344.678 556.777 346.332C556.035 347.973 555.013 349.216 553.711 350.062C552.409 350.909 550.931 351.332 549.277 351.332C548.236 351.332 547.311 351.156 546.504 350.805C545.71 350.453 545.065 350.023 544.57 349.516C544.076 349.008 543.652 348.415 543.301 347.738L543.262 347.621H543.086V358.969H537.305V329.789ZM542.93 340.375C542.93 341.638 543.112 342.751 543.477 343.715C543.841 344.678 544.362 345.421 545.039 345.941C545.716 346.462 546.536 346.723 547.5 346.723C548.451 346.723 549.264 346.456 549.941 345.922C550.632 345.388 551.146 344.646 551.484 343.695C551.836 342.732 552.012 341.625 552.012 340.375C552.012 339.125 551.836 338.031 551.484 337.094C551.146 336.156 550.638 335.434 549.961 334.926C549.284 334.405 548.464 334.145 547.5 334.145C546.536 334.145 545.716 334.398 545.039 334.906C544.362 335.401 543.841 336.117 543.477 337.055C543.112 337.992 542.93 339.099 542.93 340.375Z" fill="#304CC4"/>
<path d="M580.684 336.176H574.746V332.191H580.684V336.176ZM591.211 354.594H586.426V319.008H591.211V354.594ZM583.809 352.953H579.102V319.555H583.809V352.953ZM568.438 321.566C570.013 321.566 571.393 322.087 572.578 323.129C573.763 324.158 574.674 325.642 575.312 327.582C575.964 329.522 576.289 331.807 576.289 334.438C576.289 337.055 575.964 339.34 575.312 341.293C574.674 343.233 573.763 344.73 572.578 345.785C571.393 346.827 570.013 347.354 568.438 347.367C566.875 347.354 565.508 346.827 564.336 345.785C563.164 344.73 562.259 343.233 561.621 341.293C560.996 339.34 560.684 337.055 560.684 334.438C560.684 331.794 560.996 329.509 561.621 327.582C562.259 325.642 563.164 324.158 564.336 323.129C565.521 322.087 566.888 321.566 568.438 321.566ZM568.438 326.293C567.76 326.28 567.188 326.579 566.719 327.191C566.25 327.803 565.892 328.715 565.645 329.926C565.41 331.137 565.293 332.641 565.293 334.438C565.293 336.221 565.41 337.725 565.645 338.949C565.892 340.173 566.25 341.085 566.719 341.684C567.201 342.283 567.773 342.582 568.438 342.582C569.128 342.582 569.714 342.283 570.195 341.684C570.677 341.085 571.048 340.173 571.309 338.949C571.569 337.725 571.699 336.221 571.699 334.438C571.699 332.641 571.569 331.137 571.309 329.926C571.048 328.715 570.677 327.803 570.195 327.191C569.714 326.579 569.128 326.28 568.438 326.293ZM622.52 334.242H613.047V330.238H622.52V334.242ZM607.402 327.074C607.402 330.121 607.044 332.979 606.328 335.648C605.612 338.318 604.518 340.681 603.047 342.738C601.576 344.796 599.753 346.371 597.578 347.465L594.453 343.383C596.406 342.497 598.047 341.208 599.375 339.516C600.716 337.823 601.712 335.909 602.363 333.773C603.027 331.638 603.359 329.405 603.359 327.074V321.762H607.402V327.074ZM608.418 327.074C608.418 329.405 608.73 331.605 609.355 333.676C609.98 335.733 610.938 337.562 612.227 339.164C613.516 340.766 615.117 341.99 617.031 342.836L613.984 346.82C611.849 345.766 610.065 344.262 608.633 342.309C607.214 340.342 606.152 338.07 605.449 335.492C604.759 332.914 604.414 330.108 604.414 327.074V321.762H608.418V327.074ZM624.961 354.691H620.02V319.008H624.961V354.691ZM671.289 340.59H638.809V336.605H671.289V340.59ZM667.734 333.695H642.734V329.711H667.734V333.695ZM667.383 324.301H647.695V331.176H642.734V320.336H667.383V324.301ZM667.91 353.93H642.715V349.926H667.91V353.93ZM647.617 350.98H642.715V343.344H647.617V350.98ZM705.859 340.59H673.379V336.605H705.859V340.59ZM702.305 333.695H677.305V329.711H702.305V333.695ZM701.953 324.301H682.266V331.176H677.305V320.336H701.953V324.301ZM702.48 353.93H677.285V349.926H702.48V353.93ZM682.188 350.98H677.285V343.344H682.188V350.98ZM736.133 345.629H731.152V319.086H736.133V345.629ZM740.938 334.047H734.688V329.965H740.938V334.047ZM729.023 326.723H707.91V322.797H729.023V326.723ZM718.496 327.973C720.189 327.973 721.699 328.266 723.027 328.852C724.355 329.424 725.391 330.232 726.133 331.273C726.875 332.315 727.246 333.513 727.246 334.867C727.246 336.208 726.875 337.393 726.133 338.422C725.391 339.438 724.355 340.232 723.027 340.805C721.699 341.378 720.189 341.664 718.496 341.664C716.777 341.664 715.247 341.378 713.906 340.805C712.565 340.232 711.523 339.438 710.781 338.422C710.039 337.393 709.668 336.208 709.668 334.867C709.668 333.513 710.039 332.315 710.781 331.273C711.523 330.232 712.565 329.424 713.906 328.852C715.247 328.266 716.777 327.973 718.496 327.973ZM718.496 331.801C717.702 331.801 716.999 331.918 716.387 332.152C715.788 332.387 715.326 332.738 715 333.207C714.674 333.676 714.512 334.229 714.512 334.867C714.512 335.505 714.674 336.052 715 336.508C715.326 336.951 715.788 337.289 716.387 337.523C716.999 337.758 717.702 337.875 718.496 337.875C719.29 337.875 719.987 337.758 720.586 337.523C721.198 337.289 721.673 336.951 722.012 336.508C722.35 336.052 722.52 335.505 722.52 334.867C722.52 334.229 722.35 333.676 722.012 333.207C721.673 332.738 721.198 332.387 720.586 332.152C719.987 331.918 719.29 331.801 718.496 331.801ZM720.977 324.73H715.996V319.027H720.977V324.73ZM737.402 353.988H713.066V349.965H737.402V353.988ZM718.047 351.684H713.066V343.578H718.047V351.684ZM778.438 330.668H770.078V326.625H778.438V330.668ZM764.062 325.102C764.062 327.576 763.698 329.861 762.969 331.957C762.24 334.04 761.139 335.863 759.668 337.426C758.21 338.975 756.393 340.147 754.219 340.941L751.523 336.996C753.438 336.358 755.026 335.434 756.289 334.223C757.565 333.012 758.509 331.632 759.121 330.082C759.733 328.533 760.039 326.872 760.039 325.102V321.234H764.062V325.102ZM765.059 325.141C765.059 326.742 765.352 328.266 765.938 329.711C766.523 331.143 767.422 332.432 768.633 333.578C769.857 334.711 771.38 335.59 773.203 336.215L770.488 340.082C768.431 339.301 766.699 338.174 765.293 336.703C763.9 335.219 762.852 333.493 762.148 331.527C761.445 329.561 761.094 327.432 761.094 325.141V321.234H765.059V325.141ZM781.719 345.336H776.758V319.086H781.719V345.336ZM782.48 353.988H758.047V349.965H782.48V353.988ZM763.086 352.152H758.047V342.582H763.086V352.152ZM792.031 330.219H796.875V322.211H801.484V346.176H787.324V322.211H792.031V330.219ZM796.875 342.172V334.125H792.031V342.172H796.875ZM817.148 354.594H812.363V319.008H817.148V354.594ZM813.867 336.664H807.832V332.621H813.867V336.664ZM809.16 352.953H804.473V319.555H809.16V352.953ZM825.488 341.898C824.902 341.898 824.355 341.749 823.848 341.449C823.34 341.137 822.943 340.733 822.656 340.238C822.37 339.73 822.227 339.184 822.227 338.598C822.227 338.025 822.37 337.491 822.656 336.996C822.943 336.488 823.34 336.091 823.848 335.805C824.355 335.518 824.902 335.375 825.488 335.375C826.074 335.375 826.615 335.518 827.109 335.805C827.617 336.091 828.021 336.488 828.32 336.996C828.62 337.491 828.77 338.025 828.77 338.598C828.77 339.184 828.62 339.73 828.32 340.238C828.021 340.733 827.617 341.137 827.109 341.449C826.615 341.749 826.074 341.898 825.488 341.898ZM864.688 339.77H832.207V335.824H864.688V339.77ZM850.879 337.387H845.996V330.473H850.879V337.387ZM860.977 332.777H836.133V328.871H860.977V332.777ZM860.781 324.496H841.074V331.43H836.133V320.609H860.781V324.496ZM848.359 341.527C850.938 341.527 853.151 341.781 855 342.289C856.862 342.797 858.281 343.546 859.258 344.535C860.247 345.525 860.742 346.716 860.742 348.109C860.742 349.49 860.247 350.668 859.258 351.645C858.281 352.621 856.862 353.363 855 353.871C853.151 354.379 850.938 354.639 848.359 354.652C845.781 354.639 843.555 354.379 841.68 353.871C839.818 353.363 838.385 352.621 837.383 351.645C836.393 350.668 835.898 349.49 835.898 348.109C835.898 346.716 836.393 345.525 837.383 344.535C838.385 343.546 839.818 342.797 841.68 342.289C843.542 341.781 845.768 341.527 848.359 341.527ZM848.359 345.336C846.719 345.336 845.352 345.44 844.258 345.648C843.164 345.844 842.344 346.15 841.797 346.566C841.25 346.983 840.977 347.497 840.977 348.109C840.977 348.734 841.25 349.249 841.797 349.652C842.344 350.056 843.158 350.355 844.238 350.551C845.332 350.746 846.706 350.844 848.359 350.844C850 350.844 851.361 350.746 852.441 350.551C853.535 350.355 854.355 350.056 854.902 349.652C855.449 349.236 855.723 348.721 855.723 348.109C855.723 347.497 855.449 346.983 854.902 346.566C854.355 346.15 853.529 345.844 852.422 345.648C851.328 345.44 849.974 345.336 848.359 345.336ZM879.941 348.188H875.078V339.75H879.941V348.188ZM891.328 348.168H886.445V339.711H891.328V348.168ZM899.277 350.648H866.777V346.566H899.277V350.648ZM895.527 333.129H875.488V339.203H870.527V329.164H890.605V325.355H870.469V321.352H895.527V333.129ZM896.367 341.117H870.527V337.074H896.367V341.117ZM941.25 354.594H936.445V319.008H941.25V354.594ZM937.891 336.508H931.836V332.504H937.891V336.508ZM926.055 323.441C926.055 326.918 925.651 330.089 924.844 332.953C924.036 335.805 922.676 338.441 920.762 340.863C918.861 343.272 916.289 345.408 913.047 347.27L910.156 343.852C912.878 342.263 915.052 340.512 916.68 338.598C918.307 336.671 919.486 334.555 920.215 332.25C920.944 329.932 921.309 327.322 921.309 324.418V323.441H926.055ZM922.754 327.406H911.953V323.441H922.754V327.406ZM933.203 353.012H928.555V319.945H933.203V353.012ZM951.152 324.867H958.438V320.629H963.438V336.156H946.211V320.629H951.152V324.867ZM958.438 332.23V328.598H951.152V332.23H958.438ZM973.359 337.133H968.379V319.008H973.359V337.133ZM978.164 330.004H971.289V325.961H978.164V330.004ZM973.359 348.129H954.746V352.387H949.844V344.555H968.398V342.328H949.785V338.48H973.359V348.129ZM974.395 354.34H949.844V350.434H974.395V354.34ZM991.797 328.715C991.797 331.436 991.413 334.079 990.645 336.645C989.876 339.197 988.737 341.469 987.227 343.461C985.716 345.44 983.913 346.924 981.816 347.914L978.887 343.988C980.814 343.09 982.441 341.82 983.77 340.18C985.111 338.539 986.126 336.729 986.816 334.75C987.507 332.771 987.852 330.759 987.852 328.715V324.574H991.797V328.715ZM992.852 328.715C992.852 330.59 993.177 332.465 993.828 334.34C994.492 336.202 995.475 337.914 996.777 339.477C998.092 341.026 999.688 342.23 1001.56 343.09L998.789 346.996C996.706 346.046 994.922 344.62 993.438 342.719C991.953 340.818 990.827 338.656 990.059 336.234C989.29 333.799 988.906 331.293 988.906 328.715V324.574H992.852V328.715ZM1000.02 326.547H980.312V322.484H1000.02V326.547ZM1007.77 354.594H1002.77V319.008H1007.77V354.594ZM1013.05 336.781H1006.68V332.621H1013.05V336.781ZM1027.42 345.414H1022.46V337.016H1027.42V345.414ZM1024.9 321.156C1026.71 321.156 1028.35 321.527 1029.82 322.27C1031.31 323.012 1032.48 324.047 1033.34 325.375C1034.21 326.69 1034.65 328.188 1034.65 329.867C1034.65 331.547 1034.21 333.051 1033.34 334.379C1032.48 335.694 1031.31 336.723 1029.82 337.465C1028.35 338.194 1026.71 338.559 1024.9 338.559C1023.04 338.559 1021.37 338.194 1019.88 337.465C1018.4 336.723 1017.23 335.694 1016.39 334.379C1015.55 333.051 1015.14 331.547 1015.14 329.867C1015.14 328.188 1015.55 326.69 1016.39 325.375C1017.23 324.047 1018.4 323.012 1019.88 322.27C1021.37 321.527 1023.04 321.156 1024.9 321.156ZM1024.9 325.375C1023.95 325.375 1023.11 325.557 1022.36 325.922C1021.63 326.273 1021.05 326.788 1020.62 327.465C1020.21 328.142 1020 328.943 1020 329.867C1020 330.779 1020.21 331.573 1020.62 332.25C1021.05 332.927 1021.64 333.448 1022.38 333.812C1023.12 334.177 1023.96 334.359 1024.9 334.359C1025.81 334.359 1026.63 334.177 1027.36 333.812C1028.09 333.448 1028.67 332.927 1029.08 332.25C1029.51 331.573 1029.73 330.779 1029.73 329.867C1029.73 328.943 1029.51 328.148 1029.08 327.484C1028.67 326.807 1028.09 326.286 1027.36 325.922C1026.65 325.557 1025.83 325.375 1024.9 325.375ZM1042.54 354.594H1037.56V319.008H1042.54V354.594ZM1047.36 337.172H1041.02V332.973H1047.36V337.172ZM1014.69 343.422C1019.13 343.409 1022.98 343.35 1026.25 343.246C1029.52 343.142 1032.66 342.882 1035.66 342.465L1035.98 346.137C1033.7 346.566 1031.32 346.885 1028.85 347.094C1026.37 347.289 1024.03 347.406 1021.82 347.445C1019.6 347.471 1017.18 347.478 1014.55 347.465L1013.89 343.422H1014.69ZM510.059 374.156H488.945V370.23H510.059V374.156ZM499.531 375.289C501.237 375.289 502.747 375.562 504.062 376.109C505.391 376.656 506.426 377.424 507.168 378.414C507.91 379.404 508.281 380.543 508.281 381.832C508.281 383.134 507.91 384.28 507.168 385.27C506.426 386.259 505.391 387.027 504.062 387.574C502.747 388.121 501.237 388.395 499.531 388.395C497.826 388.395 496.302 388.121 494.961 387.574C493.62 387.027 492.572 386.259 491.816 385.27C491.074 384.267 490.703 383.121 490.703 381.832C490.703 380.543 491.074 379.404 491.816 378.414C492.572 377.424 493.62 376.656 494.961 376.109C496.302 375.562 497.826 375.289 499.531 375.289ZM499.531 379.02C498.737 379.02 498.034 379.13 497.422 379.352C496.823 379.56 496.361 379.879 496.035 380.309C495.71 380.725 495.547 381.233 495.547 381.832C495.547 382.431 495.71 382.939 496.035 383.355C496.361 383.759 496.823 384.065 497.422 384.273C498.021 384.482 498.724 384.586 499.531 384.586C500.326 384.586 501.022 384.482 501.621 384.273C502.233 384.065 502.708 383.759 503.047 383.355C503.385 382.939 503.555 382.431 503.555 381.832C503.555 381.233 503.385 380.725 503.047 380.309C502.708 379.879 502.233 379.56 501.621 379.352C501.022 379.13 500.326 379.02 499.531 379.02ZM517.168 389.352H512.188V367.008H517.168V389.352ZM521.973 380.328H515.762V376.266H521.973V380.328ZM517.168 402.594H512.188V394.801H493.242V390.836H517.168V402.594ZM502.012 372.438H497.031V366.852H502.012V372.438ZM532.266 391.383H546.914V388.355H551.855V402.203H527.305V388.355H532.266V391.383ZM546.914 398.277V395.152H532.266V398.277H546.914ZM555.977 386.559H523.555V382.574H555.977V386.559ZM541.504 368.59C541.504 370.634 540.918 372.529 539.746 374.273C538.574 376.018 536.888 377.477 534.688 378.648C532.5 379.82 529.922 380.602 526.953 380.992L525.137 377.086C527.689 376.773 529.876 376.188 531.699 375.328C533.522 374.456 534.889 373.434 535.801 372.262C536.725 371.09 537.188 369.866 537.188 368.59V367.379H541.504V368.59ZM542.324 368.59C542.324 369.84 542.786 371.057 543.711 372.242C544.635 373.414 546.009 374.443 547.832 375.328C549.655 376.214 551.829 376.799 554.355 377.086L552.598 380.992C549.616 380.602 547.025 379.82 544.824 378.648C542.624 377.464 540.938 376.005 539.766 374.273C538.607 372.529 538.027 370.634 538.027 368.59V367.379H542.324V368.59ZM583.906 388.824C586.367 388.811 588.496 389.078 590.293 389.625C592.103 390.159 593.49 390.94 594.453 391.969C595.417 392.997 595.898 394.234 595.898 395.68C595.898 397.138 595.417 398.382 594.453 399.41C593.49 400.452 592.109 401.246 590.312 401.793C588.529 402.353 586.393 402.639 583.906 402.652C581.419 402.639 579.258 402.353 577.422 401.793C575.586 401.246 574.173 400.452 573.184 399.41C572.207 398.382 571.719 397.138 571.719 395.68C571.719 394.234 572.207 392.997 573.184 391.969C574.173 390.94 575.586 390.159 577.422 389.625C579.258 389.078 581.419 388.811 583.906 388.824ZM583.906 392.672C582.344 392.672 581.029 392.783 579.961 393.004C578.906 393.225 578.105 393.557 577.559 394C577.012 394.43 576.738 394.99 576.738 395.68C576.738 396.344 577.012 396.904 577.559 397.359C578.105 397.815 578.913 398.167 579.98 398.414C581.061 398.648 582.37 398.766 583.906 398.766C585.456 398.766 586.751 398.648 587.793 398.414C588.848 398.167 589.642 397.815 590.176 397.359C590.723 396.904 590.996 396.344 590.996 395.68C590.996 394.99 590.729 394.43 590.195 394C589.661 393.557 588.874 393.225 587.832 393.004C586.79 392.783 585.482 392.672 583.906 392.672ZM595.566 388.004H590.586V367.008H595.566V388.004ZM600.371 379.469H594.16V375.309H600.371V379.469ZM573.359 373.785H580.645V369.293H585.645V385.973H568.418V369.293H573.359V373.785ZM580.645 382.066V377.633H573.359V382.066H580.645ZM634.766 376.266H628.594V372.223H634.766V376.266ZM634.766 383.961H628.594V379.898H634.766V383.961ZM630.137 389.625H625.156V367.008H630.137V389.625ZM618.516 389.938C620.951 389.938 623.073 390.191 624.883 390.699C626.693 391.207 628.086 391.943 629.062 392.906C630.039 393.857 630.527 394.983 630.527 396.285C630.527 397.574 630.033 398.701 629.043 399.664C628.066 400.628 626.673 401.357 624.863 401.852C623.066 402.346 620.951 402.594 618.516 402.594C616.055 402.594 613.919 402.346 612.109 401.852C610.299 401.357 608.906 400.628 607.93 399.664C606.966 398.701 606.484 397.574 606.484 396.285C606.484 394.983 606.966 393.85 607.93 392.887C608.906 391.923 610.299 391.194 612.109 390.699C613.919 390.191 616.055 389.938 618.516 389.938ZM618.516 393.746C616.953 393.746 615.645 393.837 614.59 394.02C613.548 394.202 612.76 394.482 612.227 394.859C611.693 395.237 611.426 395.712 611.426 396.285C611.426 396.832 611.693 397.307 612.227 397.711C612.76 398.102 613.555 398.395 614.609 398.59C615.677 398.785 616.979 398.883 618.516 398.883C620.039 398.883 621.322 398.785 622.363 398.59C623.405 398.395 624.186 398.102 624.707 397.711C625.241 397.32 625.508 396.845 625.508 396.285C625.508 395.712 625.247 395.237 624.727 394.859C624.206 394.482 623.431 394.202 622.402 394.02C621.374 393.837 620.078 393.746 618.516 393.746ZM623.027 374.332H601.914V370.445H623.027V374.332ZM612.5 375.523C614.206 375.523 615.716 375.797 617.031 376.344C618.359 376.878 619.395 377.633 620.137 378.609C620.879 379.573 621.25 380.68 621.25 381.93C621.25 383.18 620.879 384.286 620.137 385.25C619.395 386.214 618.359 386.962 617.031 387.496C615.716 388.017 614.206 388.284 612.5 388.297C610.768 388.284 609.232 388.017 607.891 387.496C606.562 386.962 605.527 386.214 604.785 385.25C604.043 384.286 603.672 383.18 603.672 381.93C603.672 380.68 604.043 379.573 604.785 378.609C605.527 377.633 606.562 376.878 607.891 376.344C609.232 375.797 610.768 375.523 612.5 375.523ZM612.5 379.156C611.706 379.156 611.003 379.267 610.391 379.488C609.792 379.697 609.329 380.009 609.004 380.426C608.678 380.829 608.516 381.331 608.516 381.93C608.516 382.477 608.678 382.958 609.004 383.375C609.329 383.779 609.792 384.085 610.391 384.293C611.003 384.488 611.706 384.586 612.5 384.586C613.294 384.586 613.991 384.488 614.59 384.293C615.202 384.085 615.677 383.779 616.016 383.375C616.354 382.958 616.523 382.477 616.523 381.93C616.523 381.331 616.354 380.829 616.016 380.426C615.677 380.009 615.202 379.697 614.59 379.488C613.991 379.267 613.294 379.156 612.5 379.156ZM614.98 372.555H610V366.832H614.98V372.555ZM652.715 367.555C655.449 367.555 657.78 367.789 659.707 368.258C661.634 368.714 663.099 369.397 664.102 370.309C665.117 371.207 665.625 372.301 665.625 373.59C665.625 374.892 665.117 376.005 664.102 376.93C663.099 377.841 661.634 378.531 659.707 379C657.78 379.469 655.449 379.703 652.715 379.703C649.98 379.703 647.643 379.469 645.703 379C643.776 378.531 642.298 377.841 641.27 376.93C640.254 376.005 639.746 374.892 639.746 373.59C639.746 372.301 640.254 371.207 641.27 370.309C642.298 369.397 643.776 368.714 645.703 368.258C647.643 367.789 649.98 367.555 652.715 367.555ZM652.715 371.188C650.983 371.188 649.544 371.279 648.398 371.461C647.253 371.63 646.393 371.897 645.82 372.262C645.26 372.626 644.98 373.069 644.98 373.59C644.98 374.176 645.254 374.651 645.801 375.016C646.361 375.367 647.201 375.628 648.32 375.797C649.44 375.966 650.905 376.051 652.715 376.051C654.551 376.051 656.029 375.966 657.148 375.797C658.268 375.628 659.102 375.367 659.648 375.016C660.208 374.651 660.488 374.176 660.488 373.59C660.488 373.069 660.202 372.633 659.629 372.281C659.069 371.917 658.216 371.643 657.07 371.461C655.924 371.279 654.473 371.188 652.715 371.188ZM668.945 385.348H636.523V381.402H668.945V385.348ZM664.98 396.461H645.176V399.664H640.273V392.984H660.059V391.031H640.254V387.379H664.98V396.461ZM665.918 402.34H640.273V398.609H665.918V402.34ZM708.535 388.492H703.555V367.008H708.535V388.492ZM713.34 379.957H707.129V375.816H713.34V379.957ZM708.535 402.203H685.293V390.055H708.535V402.203ZM690.234 398.199H703.613V393.961H690.234V398.199ZM701.426 374.215H680.312V370.27H701.426V374.215ZM690.898 375.27C692.604 375.27 694.115 375.543 695.43 376.09C696.758 376.624 697.793 377.372 698.535 378.336C699.277 379.299 699.648 380.413 699.648 381.676C699.648 382.939 699.277 384.059 698.535 385.035C697.793 385.999 696.758 386.754 695.43 387.301C694.115 387.835 692.604 388.102 690.898 388.102C689.167 388.102 687.63 387.835 686.289 387.301C684.961 386.754 683.926 385.999 683.184 385.035C682.441 384.059 682.07 382.939 682.07 381.676C682.07 380.413 682.441 379.299 683.184 378.336C683.926 377.372 684.961 376.624 686.289 376.09C687.63 375.543 689.167 375.27 690.898 375.27ZM690.898 379.02C690.091 379.02 689.388 379.124 688.789 379.332C688.19 379.527 687.728 379.827 687.402 380.23C687.077 380.621 686.914 381.103 686.914 381.676C686.914 382.262 687.077 382.763 687.402 383.18C687.728 383.583 688.19 383.889 688.789 384.098C689.388 384.306 690.091 384.417 690.898 384.43C691.706 384.417 692.409 384.306 693.008 384.098C693.607 383.889 694.076 383.583 694.414 383.18C694.753 382.763 694.922 382.262 694.922 381.676C694.922 381.103 694.746 380.621 694.395 380.23C694.056 379.827 693.587 379.527 692.988 379.332C692.389 379.124 691.693 379.02 690.898 379.02ZM693.379 372.398H688.398V366.832H693.379V372.398ZM723.652 371.129C723.652 374.397 723.503 377.372 723.203 380.055C722.904 382.737 722.357 385.335 721.562 387.848C720.781 390.361 719.668 392.743 718.223 394.996L714.355 392.945C715.749 390.862 716.803 388.74 717.52 386.578C718.249 384.417 718.743 382.164 719.004 379.82C719.277 377.477 719.414 374.723 719.414 371.559V371.129H723.652ZM722.07 375.133H715.527V371.129H722.07V375.133ZM731.602 371.129C731.602 374.736 731.484 377.939 731.25 380.738C731.016 383.525 730.501 386.292 729.707 389.039C728.913 391.786 727.741 394.358 726.191 396.754L722.402 394.684C723.861 392.444 724.948 390.126 725.664 387.73C726.38 385.335 726.849 382.919 727.07 380.484C727.292 378.036 727.402 375.061 727.402 371.559V371.129H731.602ZM730.195 375.133H724.688V371.129H730.195V375.133ZM746.016 402.594H741.23V367.008H746.016V402.594ZM735.078 384.371H729.883V380.387H735.078V384.371ZM738.984 401.031H734.316V367.848H738.984V401.031ZM784.844 374.059H762.07V370.113H784.844V374.059ZM791.172 398.238H758.75V394.195H791.172V398.238ZM775.293 396.266H770.352V381.969H775.293V396.266ZM788.008 373.98C788.008 376.897 787.923 379.573 787.754 382.008C787.598 384.443 787.22 387.275 786.621 390.504L781.562 389.977C782.188 386.982 782.585 384.273 782.754 381.852C782.923 379.43 783.008 376.799 783.008 373.961V373.492V370.113H788.008V373.492V373.98ZM812.461 387.027H795.117V369.879H812.461V387.027ZM800 383.102H807.539V373.863H800V383.102ZM823.047 392.379H818.066V367.086H823.047V392.379ZM824.023 401.812H799.238V397.809H824.023V401.812ZM804.277 399.625H799.238V390.016H804.277V399.625ZM845.02 376.422H827.812V372.457H845.02V376.422ZM836.484 378.023C837.995 378.023 839.342 378.382 840.527 379.098C841.712 379.814 842.637 380.81 843.301 382.086C843.965 383.362 844.297 384.82 844.297 386.461C844.297 388.102 843.965 389.566 843.301 390.855C842.637 392.132 841.712 393.134 840.527 393.863C839.342 394.592 837.995 394.957 836.484 394.957C834.987 394.957 833.646 394.592 832.461 393.863C831.276 393.134 830.345 392.125 829.668 390.836C829.004 389.547 828.672 388.089 828.672 386.461C828.672 384.846 829.004 383.395 829.668 382.105C830.345 380.816 831.276 379.814 832.461 379.098C833.646 378.382 834.987 378.023 836.484 378.023ZM836.484 382.164C835.82 382.151 835.221 382.32 834.688 382.672C834.167 383.01 833.763 383.505 833.477 384.156C833.203 384.807 833.066 385.576 833.066 386.461C833.066 387.333 833.21 388.095 833.496 388.746C833.783 389.384 834.186 389.872 834.707 390.211C835.228 390.549 835.82 390.719 836.484 390.719C837.161 390.719 837.754 390.549 838.262 390.211C838.783 389.872 839.193 389.384 839.492 388.746C839.792 388.095 839.941 387.333 839.941 386.461C839.941 385.576 839.792 384.807 839.492 384.156C839.193 383.505 838.783 383.01 838.262 382.672C837.754 382.32 837.161 382.151 836.484 382.164ZM858.613 402.594H853.867V367.008H858.613V402.594ZM855.449 385.484H849.473V381.52H855.449V385.484ZM850.996 401.07H846.328V367.75H850.996V401.07ZM838.926 374.957H834.023V368.023H838.926V374.957ZM878.34 374.312H886.504V369.859H891.504V386.227H873.457V369.859H878.34V374.312ZM886.504 382.301V378.082H878.34V382.301H886.504ZM885 392.848H880V385.113H885V392.848ZM899.941 402.594H894.961V367.008H899.941V402.594ZM904.766 385.406H898.418V381.246H904.766V385.406ZM872.793 391.871C877.285 391.845 881.068 391.78 884.141 391.676C887.227 391.559 890.202 391.305 893.066 390.914L893.379 394.547C891.1 394.938 888.724 395.23 886.25 395.426C883.789 395.621 881.471 395.751 879.297 395.816C877.135 395.868 874.688 395.901 871.953 395.914L871.289 391.871H872.793ZM918.477 395.113H913.535V385.133H918.477V395.113ZM931.562 395.113H926.543V385.133H931.562V395.113ZM938.789 398.434H906.289V394.352H938.789V398.434ZM922.48 368.766C925.046 368.766 927.337 369.163 929.355 369.957C931.387 370.751 932.975 371.871 934.121 373.316C935.28 374.762 935.859 376.422 935.859 378.297C935.859 380.185 935.286 381.852 934.141 383.297C932.995 384.729 931.406 385.842 929.375 386.637C927.357 387.418 925.059 387.815 922.48 387.828C919.915 387.815 917.617 387.418 915.586 386.637C913.568 385.842 911.986 384.729 910.84 383.297C909.694 381.852 909.121 380.185 909.121 378.297C909.121 376.422 909.694 374.762 910.84 373.316C911.986 371.871 913.574 370.751 915.605 369.957C917.637 369.163 919.928 368.766 922.48 368.766ZM922.48 372.711C920.788 372.698 919.31 372.913 918.047 373.355C916.784 373.798 915.801 374.443 915.098 375.289C914.395 376.122 914.043 377.125 914.043 378.297C914.043 379.456 914.395 380.465 915.098 381.324C915.801 382.171 916.784 382.828 918.047 383.297C919.323 383.753 920.801 383.98 922.48 383.98C924.147 383.98 925.618 383.753 926.895 383.297C928.171 382.828 929.16 382.171 929.863 381.324C930.579 380.465 930.938 379.456 930.938 378.297C930.938 377.125 930.586 376.122 929.883 375.289C929.18 374.456 928.19 373.818 926.914 373.375C925.651 372.919 924.173 372.698 922.48 372.711ZM948.398 390.543H943.418L942.891 370.719H948.945L948.398 390.543ZM945.918 399.352C945.332 399.352 944.785 399.202 944.277 398.902C943.77 398.59 943.366 398.186 943.066 397.691C942.78 397.184 942.637 396.637 942.637 396.051C942.637 395.478 942.78 394.944 943.066 394.449C943.366 393.941 943.77 393.544 944.277 393.258C944.785 392.971 945.332 392.828 945.918 392.828C946.491 392.828 947.025 392.971 947.52 393.258C948.027 393.544 948.431 393.941 948.73 394.449C949.043 394.944 949.199 395.478 949.199 396.051C949.199 396.637 949.043 397.184 948.73 397.691C948.431 398.186 948.027 398.59 947.52 398.902C947.025 399.202 946.491 399.352 945.918 399.352Z" fill="#0E0E0E"/>
</g>
<defs>
<linearGradient id="paint0_linear_1409_5571" x1="720" y1="0" x2="720" y2="862" gradientUnits="userSpaceOnUse">
<stop stop-color="white"/>
<stop offset="1" stop-color="#9CA6E1"/>
</linearGradient>
<clipPath id="clip0_1409_5571">
<rect width="1440" height="862" fill="white"/>
</clipPath>
</defs>
</svg>
