<svg width="100%" height="100%" viewBox="0 0 1440 647" fill="none" xmlns="http://www.w3.org/2000/svg">
<rect width="100%" height="100%" fill="url(#paint0_linear_1292_5253)"/>
<path d="M327.793 357H309.488V305.364H327.944C333.138 305.364 337.609 306.397 341.357 308.465C345.106 310.516 347.988 313.465 350.005 317.315C352.039 321.164 353.056 325.769 353.056 331.131C353.056 336.51 352.039 341.133 350.005 344.999C347.988 348.865 345.089 351.831 341.307 353.899C337.542 355.966 333.037 357 327.793 357ZM320.405 347.646H327.339C330.566 347.646 333.281 347.074 335.483 345.931C337.701 344.772 339.365 342.982 340.475 340.561C341.601 338.124 342.164 334.981 342.164 331.131C342.164 327.316 341.601 324.198 340.475 321.777C339.365 319.357 337.71 317.575 335.508 316.432C333.306 315.289 330.591 314.718 327.364 314.718H320.405V347.646ZM378.591 357.756C374.607 357.756 371.178 356.95 368.304 355.336C365.446 353.705 363.244 351.403 361.698 348.428C360.151 345.436 359.378 341.897 359.378 337.813C359.378 333.829 360.151 330.333 361.698 327.324C363.244 324.315 365.421 321.971 368.228 320.29C371.052 318.609 374.363 317.768 378.162 317.768C380.717 317.768 383.095 318.18 385.297 319.004C387.516 319.811 389.449 321.029 391.096 322.66C392.76 324.29 394.055 326.341 394.979 328.812C395.904 331.266 396.366 334.14 396.366 337.435V340.385H363.665V333.728H386.255C386.255 332.182 385.919 330.812 385.247 329.619C384.575 328.425 383.642 327.492 382.448 326.82C381.272 326.131 379.902 325.786 378.339 325.786C376.708 325.786 375.263 326.164 374.002 326.921C372.758 327.66 371.783 328.661 371.077 329.921C370.371 331.165 370.01 332.552 369.993 334.081V340.41C369.993 342.326 370.346 343.982 371.052 345.377C371.775 346.772 372.792 347.848 374.103 348.604C375.414 349.36 376.969 349.739 378.767 349.739C379.961 349.739 381.053 349.571 382.045 349.234C383.037 348.898 383.885 348.394 384.591 347.722C385.297 347.049 385.835 346.226 386.205 345.251L396.139 345.906C395.635 348.293 394.601 350.377 393.038 352.159C391.491 353.924 389.491 355.302 387.037 356.294C384.6 357.269 381.784 357.756 378.591 357.756ZM438.44 318.273L424.901 357H412.798L399.259 318.273H410.605L418.648 345.982H419.051L427.069 318.273H438.44ZM460.338 357.756C456.354 357.756 452.925 356.95 450.051 355.336C447.193 353.705 444.991 351.403 443.445 348.428C441.899 345.436 441.125 341.897 441.125 337.813C441.125 333.829 441.899 330.333 443.445 327.324C444.991 324.315 447.168 321.971 449.975 320.29C452.799 318.609 456.11 317.768 459.909 317.768C462.464 317.768 464.842 318.18 467.044 319.004C469.263 319.811 471.196 321.029 472.843 322.66C474.507 324.29 475.802 326.341 476.726 328.812C477.651 331.266 478.113 334.14 478.113 337.435V340.385H445.412V333.728H468.002C468.002 332.182 467.666 330.812 466.994 329.619C466.322 328.425 465.389 327.492 464.195 326.82C463.019 326.131 461.649 325.786 460.086 325.786C458.455 325.786 457.01 326.164 455.749 326.921C454.505 327.66 453.53 328.661 452.824 329.921C452.118 331.165 451.757 332.552 451.74 334.081V340.41C451.74 342.326 452.093 343.982 452.799 345.377C453.522 346.772 454.539 347.848 455.85 348.604C457.161 349.36 458.716 349.739 460.514 349.739C461.708 349.739 462.8 349.571 463.792 349.234C464.784 348.898 465.632 348.394 466.338 347.722C467.044 347.049 467.582 346.226 467.952 345.251L477.886 345.906C477.382 348.293 476.348 350.377 474.785 352.159C473.238 353.924 471.238 355.302 468.784 356.294C466.347 357.269 463.531 357.756 460.338 357.756ZM495.863 305.364V357H485.122V305.364H495.863ZM552.996 305.364H563.913V338.897C563.913 342.662 563.014 345.957 561.215 348.781C559.433 351.604 556.937 353.806 553.727 355.386C550.516 356.95 546.777 357.731 542.507 357.731C538.221 357.731 534.473 356.95 531.262 355.386C528.052 353.806 525.556 351.604 523.774 348.781C521.992 345.957 521.101 342.662 521.101 338.897V305.364H532.018V337.964C532.018 339.931 532.447 341.679 533.304 343.208C534.178 344.738 535.405 345.94 536.985 346.814C538.565 347.688 540.406 348.125 542.507 348.125C544.625 348.125 546.466 347.688 548.029 346.814C549.609 345.94 550.827 344.738 551.685 343.208C552.559 341.679 552.996 339.931 552.996 337.964V305.364ZM572.693 371.523V318.273H583.283V324.778H583.762C584.233 323.736 584.913 322.677 585.804 321.601C586.712 320.508 587.889 319.601 589.334 318.878C590.796 318.138 592.612 317.768 594.78 317.768C597.604 317.768 600.209 318.508 602.596 319.987C604.983 321.45 606.891 323.66 608.32 326.618C609.748 329.56 610.463 333.249 610.463 337.687C610.463 342.007 609.765 345.654 608.37 348.629C606.992 351.588 605.109 353.832 602.722 355.361C600.352 356.874 597.696 357.63 594.755 357.63C592.671 357.63 590.897 357.286 589.435 356.597C587.989 355.907 586.804 355.042 585.88 354C584.955 352.941 584.249 351.873 583.762 350.798H583.434V371.523H572.693ZM583.207 337.636C583.207 339.939 583.527 341.948 584.165 343.662C584.804 345.377 585.729 346.713 586.939 347.671C588.149 348.612 589.62 349.083 591.351 349.083C593.099 349.083 594.578 348.604 595.789 347.646C596.999 346.671 597.915 345.326 598.537 343.612C599.176 341.881 599.495 339.889 599.495 337.636C599.495 335.401 599.184 333.434 598.562 331.737C597.94 330.039 597.024 328.711 595.814 327.753C594.604 326.795 593.116 326.316 591.351 326.316C589.603 326.316 588.124 326.778 586.914 327.702C585.72 328.627 584.804 329.938 584.165 331.636C583.527 333.333 583.207 335.334 583.207 337.636ZM645.926 298.496C660.907 298.496 669.711 302.472 669.711 309.714C669.711 316.956 660.907 320.932 645.926 320.932C630.874 320.932 622.141 316.956 622.141 309.714C622.141 302.472 630.874 298.496 645.926 298.496ZM645.926 305.383C636.412 305.383 631.939 306.803 631.939 309.714C631.939 312.767 636.412 314.045 645.926 314.045C655.44 314.045 659.913 312.767 659.913 309.714C659.913 306.803 655.44 305.383 645.926 305.383ZM616.177 323.985H675.604V331.44H616.177V323.985ZM622.993 335.132H668.433V352.03H632.365V357.852H623.064V345.498H659.132V342.161H622.993V335.132ZM623.064 355.793H670.137V362.893H623.064V355.793ZM697.995 347.912H757.493V355.651H697.995V347.912ZM722.703 333.286H732.075V349.971H722.703V333.286ZM722.348 301.194H730.584V305.951C730.584 319.938 720.431 332.292 703.249 335.416L699.344 327.535C714.325 325.121 722.348 315.039 722.348 305.951V301.194ZM724.194 301.194H732.43V305.951C732.43 315.252 740.453 325.121 755.505 327.535L751.6 335.416C734.347 332.221 724.194 320.151 724.194 305.951V301.194ZM810.524 297.573H819.541V363.319H810.524V297.573ZM802.217 322.352H813.08V329.878H802.217V322.352ZM782.621 305.596H791.638C791.638 324.127 786.242 339.108 767.853 349.829L762.386 343.297C777.367 334.422 782.621 323.346 782.621 307.584V305.596ZM765.723 305.596H785.39V313.193H765.723V305.596ZM795.969 299.277H804.773V360.479H795.969V299.277ZM870.869 297.573H880.312V336.055H870.869V297.573ZM876.549 313.335H889.045V321.145H876.549V313.335ZM837.57 338.611H846.871V343.581H870.94V338.611H880.312V362.609H837.57V338.611ZM846.871 350.681V355.225H870.94V350.681H846.871ZM828.553 303.253H867.248V310.708H828.553V303.253ZM847.936 312.483C857.45 312.483 864.053 317.169 864.053 324.127C864.053 331.085 857.45 335.771 847.936 335.771C838.351 335.771 831.748 331.085 831.748 324.127C831.748 317.169 838.351 312.483 847.936 312.483ZM847.936 319.37C843.676 319.37 840.836 321.074 840.836 324.127C840.836 327.251 843.676 328.884 847.936 328.884C852.125 328.884 855.036 327.251 855.036 324.127C855.036 321.074 852.125 319.37 847.936 319.37ZM843.179 297.076H852.622V307.442H843.179V297.076ZM939.378 297.573H948.821V363.319H939.378V297.573ZM897.346 303.821H906.718V344.646H897.346V303.821ZM897.346 339.108H903.168C912.753 339.108 923.403 338.398 934.266 336.268L935.331 344.078C924.042 346.421 913.179 347.131 903.168 347.131H897.346V339.108ZM1001.21 297.502H1010.73V363.461H1001.21V297.502ZM1008.6 321.855H1020.24V329.594H1008.6V321.855ZM961.738 339.818H967.276C978.352 339.818 987.085 339.463 996.741 337.759L997.664 345.569C987.724 347.344 978.707 347.628 967.276 347.628H961.738V339.818ZM961.738 303.608H992.41V311.205H971.11V343.581H961.738V303.608ZM1038.09 361.97H1109.09V290.97H1038.09V361.97Z" fill="black"/>
<path d="M330.76 229.09H333.56V260.73H330.76V229.09ZM325.65 241.795H331.705V244.175H325.65V241.795ZM317.46 233.15H320.26C320.26 241.305 317.46 248.865 308.43 253.94L306.715 251.875C314.66 247.43 317.46 241.025 317.46 233.71V233.15ZM307.94 233.15H318.44V235.565H307.94V233.15ZM323.725 229.93H326.49V259.19H323.725V229.93ZM340.242 230.385H343.112V234.935H352.037V230.385H354.872V244.21H340.242V230.385ZM343.112 237.21V241.865H352.037V237.21H343.112ZM360.577 229.09H363.482V245.4H360.577V229.09ZM362.222 235.88H368.137V238.295H362.222V235.88ZM343.392 246.94H363.482V254.605H346.332V259.365H343.462V252.435H360.647V249.25H343.392V246.94ZM343.462 258.07H364.637V260.38H343.462V258.07ZM378.95 233.605H381.26V238.75C381.26 245.33 377.235 252.12 372.3 254.64L370.62 252.33C375.135 250.125 378.95 244.105 378.95 238.75V233.605ZM379.475 233.605H381.785V238.75C381.785 243.755 385.355 249.39 389.94 251.56L388.295 253.87C383.29 251.385 379.475 245.015 379.475 238.75V233.605ZM371.74 232.31H388.785V234.76H371.74V232.31ZM392.53 229.09H395.47V260.73H392.53V229.09ZM394.77 241.865H400.65V244.315H394.77V241.865ZM422.181 234.62H424.561V235.04C424.561 239.695 421.131 243.335 415.776 244.665L414.586 242.355C419.101 241.34 422.181 238.4 422.181 235.04V234.62ZM422.706 234.62H425.086V235.04C425.086 238.225 428.131 240.92 432.611 241.935L431.421 244.21C426.136 242.95 422.706 239.485 422.706 235.04V234.62ZM415.251 232.66H432.016V234.97H415.251V232.66ZM422.146 229.16H425.086V234.2H422.146V229.16ZM422.216 247.185H425.121V259.82H422.216V247.185ZM436.216 229.09H439.086V260.765H436.216V229.09ZM413.501 249.32L413.116 246.87C419.101 246.87 427.046 246.835 433.976 245.855L434.186 247.99C427.081 249.215 419.381 249.32 413.501 249.32ZM457.773 232.065H460.363V233.01C460.363 238.365 454.658 242.11 448.183 243.09L447.098 240.745C452.698 240.01 457.773 236.86 457.773 233.01V232.065ZM458.998 232.065H461.553V233.01C461.553 236.86 466.663 240.01 472.263 240.745L471.143 243.09C464.703 242.11 458.998 238.365 458.998 233.01V232.065ZM447.973 230.665H471.388V233.01H447.973V230.665ZM445.348 245.365H474.013V247.745H445.348V245.365ZM458.438 246.835H461.343V254.115H458.438V246.835ZM448.988 257.65H470.828V260.03H448.988V257.65ZM448.988 251.07H451.858V258.56H448.988V251.07ZM484.195 231.05H486.505V235.285C486.505 240.01 483.775 244.98 479.12 247.045L477.545 244.77C481.71 242.95 484.195 238.855 484.195 235.285V231.05ZM484.65 231.05H486.96V235.285C486.96 238.785 489.34 242.355 493.4 243.93L491.825 246.135C487.275 244.315 484.65 239.94 484.65 235.285V231.05ZM501.45 229.125H504.215V248.62H501.45V229.125ZM496.41 237.56H502.395V239.94H496.41V237.56ZM494.66 229.72H497.425V247.605H494.66V229.72ZM493.82 249.32C500.33 249.32 504.39 251.42 504.39 255.025C504.39 258.595 500.33 260.66 493.82 260.66C487.275 260.66 483.285 258.595 483.285 255.025C483.285 251.42 487.275 249.32 493.82 249.32ZM493.82 251.595C489.06 251.595 486.12 252.855 486.12 255.025C486.12 257.16 489.06 258.42 493.82 258.42C498.58 258.42 501.485 257.16 501.485 255.025C501.485 252.855 498.58 251.595 493.82 251.595ZM532.737 229.055H535.642V260.765H532.737V229.055ZM518.947 231.505C523.637 231.505 526.997 235.81 526.997 242.53C526.997 249.285 523.637 253.59 518.947 253.59C514.292 253.59 510.932 249.285 510.932 242.53C510.932 235.81 514.292 231.505 518.947 231.505ZM518.947 234.13C515.867 234.13 513.697 237.42 513.697 242.53C513.697 247.675 515.867 251.035 518.947 251.035C522.062 251.035 524.197 247.675 524.197 242.53C524.197 237.42 522.062 234.13 518.947 234.13ZM563.395 229.055H566.3V260.765H563.395V229.055ZM565.6 241.655H571.48V244.105H565.6V241.655ZM543.235 250.72H545.755C551.705 250.72 555.835 250.51 560.63 249.6L560.945 252.015C556.01 252.89 551.81 253.135 545.755 253.135H543.235V250.72ZM543.165 232.03H557.48V243.37H546.105V251.7H543.235V240.99H554.61V234.41H543.165V232.03ZM589.327 234.655H598.182V237.035H589.327V234.655ZM589.327 241.41H598.252V243.825H589.327V241.41ZM575.607 231.82H590.062V246.66H575.607V231.82ZM587.192 234.165H578.442V244.315H587.192V234.165ZM597.272 229.125H600.177V252.225H597.272V229.125ZM579.842 257.65H600.947V260.03H579.842V257.65ZM579.842 250.125H582.747V258.735H579.842V250.125ZM611.679 254.52L611.48 255.862C611.339 256.807 611.124 257.818 610.834 258.895C610.552 259.972 610.258 260.987 609.951 261.94C609.645 262.893 609.392 263.651 609.193 264.214H606.956C607.064 263.684 607.204 262.984 607.378 262.114C607.552 261.244 607.726 260.27 607.9 259.193C608.083 258.124 608.232 257.031 608.348 255.912L608.497 254.52H611.679ZM635.21 258H627.355V232.545H635.558C638.027 232.545 640.14 233.055 641.897 234.074C643.653 235.085 645 236.539 645.936 238.437C646.872 240.326 647.341 242.588 647.341 245.223C647.341 247.875 646.868 250.157 645.924 252.071C644.979 253.977 643.604 255.444 641.797 256.471C639.991 257.49 637.795 258 635.21 258ZM630.437 255.266H635.011C637.116 255.266 638.86 254.86 640.244 254.048C641.627 253.236 642.659 252.08 643.339 250.58C644.018 249.08 644.358 247.295 644.358 245.223C644.358 243.168 644.022 241.399 643.351 239.916C642.68 238.424 641.677 237.281 640.343 236.485C639.009 235.682 637.348 235.28 635.359 235.28H630.437V255.266ZM660.118 258.398C658.278 258.398 656.691 257.992 655.357 257.18C654.032 256.359 653.008 255.216 652.287 253.749C651.575 252.274 651.218 250.559 651.218 248.604C651.218 246.648 651.575 244.925 652.287 243.433C653.008 241.933 654.011 240.765 655.295 239.928C656.588 239.083 658.096 238.661 659.819 238.661C660.814 238.661 661.796 238.826 662.765 239.158C663.734 239.489 664.617 240.028 665.412 240.773C666.208 241.511 666.842 242.489 667.314 243.707C667.786 244.925 668.022 246.424 668.022 248.206V249.449H653.307V246.913H665.04C665.04 245.836 664.824 244.875 664.393 244.03C663.971 243.185 663.366 242.518 662.579 242.029C661.8 241.54 660.88 241.295 659.819 241.295C658.651 241.295 657.64 241.585 656.787 242.165C655.941 242.737 655.291 243.483 654.835 244.403C654.38 245.322 654.152 246.308 654.152 247.361V249.051C654.152 250.493 654.4 251.715 654.897 252.718C655.403 253.712 656.103 254.47 656.998 254.992C657.893 255.506 658.933 255.763 660.118 255.763C660.888 255.763 661.584 255.655 662.206 255.44C662.835 255.216 663.378 254.884 663.834 254.445C664.29 253.998 664.642 253.443 664.89 252.78L667.724 253.575C667.426 254.536 666.925 255.382 666.22 256.111C665.516 256.832 664.646 257.395 663.61 257.801C662.574 258.199 661.41 258.398 660.118 258.398ZM687.514 238.909L680.455 258H677.472L670.412 238.909H673.594L678.864 254.122H679.062L684.332 238.909H687.514ZM698.706 258.398C696.867 258.398 695.28 257.992 693.946 257.18C692.62 256.359 691.597 255.216 690.876 253.749C690.164 252.274 689.807 250.559 689.807 248.604C689.807 246.648 690.164 244.925 690.876 243.433C691.597 241.933 692.6 240.765 693.884 239.928C695.177 239.083 696.685 238.661 698.408 238.661C699.403 238.661 700.384 238.826 701.354 239.158C702.323 239.489 703.206 240.028 704.001 240.773C704.797 241.511 705.431 242.489 705.903 243.707C706.375 244.925 706.611 246.424 706.611 248.206V249.449H691.895V246.913H703.628C703.628 245.836 703.413 244.875 702.982 244.03C702.559 243.185 701.955 242.518 701.167 242.029C700.389 241.54 699.469 241.295 698.408 241.295C697.24 241.295 696.229 241.585 695.376 242.165C694.53 242.737 693.88 243.483 693.424 244.403C692.968 245.322 692.741 246.308 692.741 247.361V249.051C692.741 250.493 692.989 251.715 693.486 252.718C693.992 253.712 694.692 254.47 695.587 254.992C696.482 255.506 697.522 255.763 698.706 255.763C699.477 255.763 700.173 255.655 700.795 255.44C701.424 255.216 701.967 254.884 702.423 254.445C702.878 253.998 703.231 253.443 703.479 252.78L706.313 253.575C706.015 254.536 705.513 255.382 704.809 256.111C704.105 256.832 703.235 257.395 702.199 257.801C701.163 258.199 699.999 258.398 698.706 258.398ZM714.007 232.545V258H711.073V232.545H714.007ZM741.254 250.195V238.909H744.187V258H741.254V254.768H741.055C740.608 255.738 739.912 256.562 738.967 257.242C738.022 257.913 736.829 258.249 735.388 258.249C734.194 258.249 733.134 257.988 732.206 257.466C731.278 256.935 730.549 256.14 730.018 255.079C729.488 254.01 729.223 252.664 729.223 251.04V238.909H732.156V250.841C732.156 252.233 732.545 253.343 733.324 254.172C734.111 255 735.114 255.415 736.332 255.415C737.061 255.415 737.803 255.228 738.557 254.855C739.319 254.483 739.957 253.911 740.471 253.14C740.993 252.37 741.254 251.388 741.254 250.195ZM749.56 265.159V238.909H752.393V241.942H752.741C752.957 241.61 753.255 241.188 753.636 240.674C754.026 240.152 754.581 239.688 755.302 239.282C756.031 238.868 757.017 238.661 758.26 238.661C759.867 238.661 761.284 239.062 762.511 239.866C763.737 240.67 764.694 241.809 765.382 243.284C766.069 244.759 766.413 246.499 766.413 248.504C766.413 250.526 766.069 252.279 765.382 253.762C764.694 255.237 763.741 256.38 762.523 257.192C761.305 257.996 759.901 258.398 758.31 258.398C757.083 258.398 756.101 258.195 755.364 257.789C754.627 257.374 754.059 256.906 753.661 256.384C753.263 255.854 752.957 255.415 752.741 255.067H752.493V265.159H749.56ZM752.443 248.455C752.443 249.896 752.654 251.168 753.077 252.27C753.5 253.364 754.117 254.222 754.929 254.843C755.741 255.456 756.735 255.763 757.912 255.763C759.138 255.763 760.162 255.44 760.982 254.793C761.81 254.139 762.432 253.26 762.846 252.158C763.269 251.048 763.48 249.813 763.48 248.455C763.48 247.112 763.273 245.902 762.859 244.825C762.453 243.74 761.835 242.882 761.007 242.252C760.186 241.614 759.155 241.295 757.912 241.295C756.719 241.295 755.716 241.598 754.904 242.203C754.092 242.799 753.479 243.636 753.065 244.713C752.65 245.782 752.443 247.029 752.443 248.455ZM771.353 232.555H785.668V234.9H771.353V232.555ZM776.288 241.585H779.158V252.295H776.288V241.585ZM784.478 232.555H787.313V234.235C787.313 236.825 787.313 240.955 786.403 246.835L783.533 246.555C784.478 240.85 784.478 236.79 784.478 234.235V232.555ZM791.303 229.09H794.173V260.73H791.303V229.09ZM793.403 242.32H799.248V244.77H793.403V242.32ZM769.953 253.835L769.603 251.385C775.343 251.385 782.973 251.28 789.378 250.475L789.518 252.61C782.973 253.66 775.553 253.8 769.953 253.835ZM833.624 229.09H836.529V248.13H833.624V229.09ZM835.724 237.49H841.219V239.905H835.724V237.49ZM816.649 249.915H836.529V260.31H816.649V249.915ZM833.694 252.26H819.484V257.965H833.694V252.26ZM812.064 232.415H830.754V234.795H812.064V232.415ZM821.409 236.335C825.924 236.335 828.969 238.575 828.969 242.005C828.969 245.435 825.924 247.605 821.409 247.605C816.859 247.605 813.814 245.435 813.814 242.005C813.814 238.575 816.859 236.335 821.409 236.335ZM821.409 238.575C818.504 238.575 816.579 239.905 816.579 242.005C816.579 244.07 818.504 245.4 821.409 245.4C824.244 245.4 826.204 244.07 826.204 242.005C826.204 239.905 824.244 238.575 821.409 238.575ZM819.939 228.81H822.844V233.64H819.939V228.81ZM849.476 232.87H851.926C851.926 239.66 851.016 247.115 846.501 253.275L844.226 251.945C848.566 246.31 849.476 239.695 849.476 233.08V232.87ZM844.891 232.87H850.911V235.285H844.891V232.87ZM856.441 232.87H858.926C858.926 239.555 858.506 248.445 853.536 255.305L851.226 253.975C856.056 247.675 856.441 239.45 856.441 233.115V232.87ZM852.976 232.87H857.981V235.285H852.976V232.87ZM868.376 229.09H871.176V260.73H868.376V229.09ZM857.456 241.515H863.126V243.895H857.456V241.515ZM862.531 229.895H865.261V259.12H862.531V229.895ZM887.565 258V232.545H890.647V255.266H902.48V258H887.565ZM914.859 258.398C913.019 258.398 911.433 257.992 910.099 257.18C908.773 256.359 907.749 255.216 907.029 253.749C906.316 252.274 905.96 250.559 905.96 248.604C905.96 246.648 906.316 244.925 907.029 243.433C907.749 241.933 908.752 240.765 910.036 239.928C911.329 239.083 912.837 238.661 914.561 238.661C915.555 238.661 916.537 238.826 917.506 239.158C918.476 239.489 919.358 240.028 920.154 240.773C920.949 241.511 921.583 242.489 922.055 243.707C922.528 244.925 922.764 246.424 922.764 248.206V249.449H908.048V246.913H919.781C919.781 245.836 919.565 244.875 919.134 244.03C918.712 243.185 918.107 242.518 917.32 242.029C916.541 241.54 915.621 241.295 914.561 241.295C913.392 241.295 912.381 241.585 911.528 242.165C910.683 242.737 910.032 243.483 909.577 244.403C909.121 245.322 908.893 246.308 908.893 247.361V249.051C908.893 250.493 909.142 251.715 909.639 252.718C910.144 253.712 910.844 254.47 911.739 254.992C912.634 255.506 913.674 255.763 914.859 255.763C915.629 255.763 916.325 255.655 916.947 255.44C917.577 255.216 918.119 254.884 918.575 254.445C919.031 253.998 919.383 253.443 919.632 252.78L922.465 253.575C922.167 254.536 921.666 255.382 920.961 256.111C920.257 256.832 919.387 257.395 918.351 257.801C917.316 258.199 916.151 258.398 914.859 258.398ZM942.255 238.909L935.196 258H932.213L925.153 238.909H928.335L933.605 254.122H933.804L939.074 238.909H942.255ZM953.448 258.398C951.608 258.398 950.021 257.992 948.687 257.18C947.362 256.359 946.338 255.216 945.617 253.749C944.905 252.274 944.549 250.559 944.549 248.604C944.549 246.648 944.905 244.925 945.617 243.433C946.338 241.933 947.341 240.765 948.625 239.928C949.918 239.083 951.426 238.661 953.149 238.661C954.144 238.661 955.126 238.826 956.095 239.158C957.065 239.489 957.947 240.028 958.742 240.773C959.538 241.511 960.172 242.489 960.644 243.707C961.116 244.925 961.353 246.424 961.353 248.206V249.449H946.637V246.913H958.37C958.37 245.836 958.154 244.875 957.723 244.03C957.301 243.185 956.696 242.518 955.909 242.029C955.13 241.54 954.21 241.295 953.149 241.295C951.981 241.295 950.97 241.585 950.117 242.165C949.272 242.737 948.621 243.483 948.165 244.403C947.71 245.322 947.482 246.308 947.482 247.361V249.051C947.482 250.493 947.73 251.715 948.228 252.718C948.733 253.712 949.433 254.47 950.328 254.992C951.223 255.506 952.263 255.763 953.448 255.763C954.218 255.763 954.914 255.655 955.536 255.44C956.166 255.216 956.708 254.884 957.164 254.445C957.62 253.998 957.972 253.443 958.22 252.78L961.054 253.575C960.756 254.536 960.255 255.382 959.55 256.111C958.846 256.832 957.976 257.395 956.94 257.801C955.905 258.199 954.74 258.398 953.448 258.398ZM968.748 232.545V258H965.815V232.545H968.748ZM995.995 250.195V238.909H998.928V258H995.995V254.768H995.796C995.349 255.738 994.653 256.562 993.708 257.242C992.764 257.913 991.57 258.249 990.129 258.249C988.936 258.249 987.875 257.988 986.947 257.466C986.019 256.935 985.29 256.14 984.759 255.079C984.229 254.01 983.964 252.664 983.964 251.04V238.909H986.897V250.841C986.897 252.233 987.287 253.343 988.066 254.172C988.853 255 989.855 255.415 991.073 255.415C991.802 255.415 992.544 255.228 993.298 254.855C994.06 254.483 994.698 253.911 995.212 253.14C995.734 252.37 995.995 251.388 995.995 250.195ZM1004.3 265.159V238.909H1007.13V241.942H1007.48C1007.7 241.61 1008 241.188 1008.38 240.674C1008.77 240.152 1009.32 239.688 1010.04 239.282C1010.77 238.868 1011.76 238.661 1013 238.661C1014.61 238.661 1016.03 239.062 1017.25 239.866C1018.48 240.67 1019.44 241.809 1020.12 243.284C1020.81 244.759 1021.15 246.499 1021.15 248.504C1021.15 250.526 1020.81 252.279 1020.12 253.762C1019.44 255.237 1018.48 256.38 1017.26 257.192C1016.05 257.996 1014.64 258.398 1013.05 258.398C1011.82 258.398 1010.84 258.195 1010.11 257.789C1009.37 257.374 1008.8 256.906 1008.4 256.384C1008 255.854 1007.7 255.415 1007.48 255.067H1007.23V265.159H1004.3ZM1007.18 248.455C1007.18 249.896 1007.4 251.168 1007.82 252.27C1008.24 253.364 1008.86 254.222 1009.67 254.843C1010.48 255.456 1011.48 255.763 1012.65 255.763C1013.88 255.763 1014.9 255.44 1015.72 254.793C1016.55 254.139 1017.17 253.26 1017.59 252.158C1018.01 251.048 1018.22 249.813 1018.22 248.455C1018.22 247.112 1018.01 245.902 1017.6 244.825C1017.19 243.74 1016.58 242.882 1015.75 242.252C1014.93 241.614 1013.9 241.295 1012.65 241.295C1011.46 241.295 1010.46 241.598 1009.65 242.203C1008.83 242.799 1008.22 243.636 1007.81 244.713C1007.39 245.782 1007.18 247.029 1007.18 248.455ZM1029.51 232.545L1029.26 250.841H1026.37L1026.13 232.545H1029.51ZM1027.82 258.199C1027.2 258.199 1026.68 257.979 1026.24 257.54C1025.8 257.101 1025.58 256.575 1025.58 255.962C1025.58 255.348 1025.8 254.822 1026.24 254.383C1026.68 253.944 1027.2 253.724 1027.82 253.724C1028.43 253.724 1028.96 253.944 1029.39 254.383C1029.83 254.822 1030.05 255.348 1030.05 255.962C1030.05 256.368 1029.95 256.741 1029.74 257.08C1029.54 257.42 1029.27 257.693 1028.94 257.901C1028.6 258.099 1028.23 258.199 1027.82 258.199Z" fill="#868686"/>
<defs>
<linearGradient id="paint0_linear_1292_5253" x1="720" y1="0" x2="720" y2="647" gradientUnits="userSpaceOnUse">
<stop stop-color="white"/>
<stop offset="1" stop-color="#C4C9ED"/>
</linearGradient>
</defs>
</svg>
