<svg width="15" height="19" viewBox="0 0 15 19" fill="none" xmlns="http://www.w3.org/2000/svg">
<path d="M11.5647 2.62343H14.1608C14.6329 2.62343 15 2.99442 15 3.47141V4.08089C15 4.47838 14.7115 4.84937 14.3444 4.92887V17.516C14.3444 18.3375 13.6626 19 12.8234 19H2.17657C1.33741 19 0.681818 18.3375 0.681818 17.516V4.92887C0.314685 4.84937 0 4.47838 0 4.08089V3.47141C0 2.99442 0.393357 2.62343 0.865385 2.62343H3.43531V1.51046C3.43531 0.688982 4.09091 0 4.93007 0H10.0699C10.9091 0 11.5647 0.688982 11.5647 1.51046V2.62343ZM10.0699 1.32497H4.93007C4.79895 1.32497 4.72028 1.40446 4.72028 1.51046V2.62343H10.2797V1.51046C10.2797 1.40446 10.201 1.32497 10.0699 1.32497ZM2.59615 17.304H12.4301C12.535 17.304 12.6136 17.1715 12.6136 17.0656V4.95537H2.38636V17.0656C2.38636 17.1715 2.46503 17.304 2.59615 17.304ZM4.61539 16.3236H4.45804C3.98601 16.3236 3.59266 15.9261 3.59266 15.4491V6.78382C3.59266 6.33333 3.98601 5.96234 4.45804 5.96234H4.61539C5.06119 5.96234 5.45455 6.33333 5.45455 6.78382V15.4491C5.45455 15.9261 5.06119 16.3236 4.61539 16.3236ZM7.57867 16.3236H7.44755C6.97552 16.3236 6.58217 15.9261 6.58217 15.4491V6.78382C6.58217 6.33333 6.97552 5.96234 7.44755 5.96234H7.57867C8.0507 5.96234 8.44406 6.33333 8.44406 6.78382V15.4491C8.44406 15.9261 8.0507 16.3236 7.57867 16.3236ZM10.542 16.3236H10.4108C9.93881 16.3236 9.57168 15.9261 9.57168 15.4491V6.78382C9.57168 6.33333 9.93881 5.96234 10.4108 5.96234H10.542C11.014 5.96234 11.4073 6.33333 11.4073 6.78382V15.4491C11.4073 15.9261 11.014 16.3236 10.542 16.3236Z" fill="#A7A7A7"/>
</svg>
