<svg width="280" height="280" viewBox="0 0 280 280" fill="none" xmlns="http://www.w3.org/2000/svg">
<path d="M269.85 140C269.85 211.714 211.714 269.85 140 269.85C68.2868 269.85 10.1504 211.714 10.1504 140C10.1504 112.492 18.7044 86.9796 33.2994 65.981C33.5836 65.5722 33.8692 65.1662 34.159 64.7616C42.1488 53.5392 51.8816 43.6412 62.9598 35.4652C64.0196 34.6826 65.0906 33.9168 66.1756 33.1664C87.1364 18.6526 112.576 10.1504 140 10.1504C151.731 10.1504 163.099 11.7058 173.908 14.6234C182.461 16.9292 190.664 20.089 198.42 24.0034C206.794 28.2286 214.648 33.3344 221.86 39.199C229.105 45.0902 235.703 51.7472 241.53 59.0454C259.255 81.2438 269.85 109.385 269.85 140Z" fill="url(#paint0_linear_1766_6315)"/>
<path d="M268.809 156.512C254.499 150.26 235.868 147.266 224.231 151.627C213.313 155.719 215.069 163.84 203.862 167.196C185.781 172.609 173.256 153.851 146.351 154.741C122.412 155.533 114.113 170.986 96.0282 167.196C84.7491 164.832 82.6134 157.698 74.5844 152.665C61.1304 144.233 35.305 144.321 10.4746 149.145C12.7357 181.638 26.9481 210.835 48.7495 232.373C73.2724 236.909 99.9538 239.331 125.982 238.366C171.72 236.669 217.981 224.419 249.49 209.833C259.574 194.056 266.342 175.955 268.809 156.512Z" fill="url(#paint1_linear_1766_6315)"/>
<path d="M230.423 248.753C230.423 249.595 189.939 250.278 140 250.278C90.0602 250.278 49.5762 249.595 49.5762 248.753C49.5762 247.911 90.0602 247.229 140 247.229C189.939 247.229 230.423 247.911 230.423 248.753Z" fill="#D0DFF3"/>
<path d="M116.476 63.4892C114.552 61.565 111.894 60.3749 108.958 60.3749H98.3855C96.8107 53.1287 90.3616 47.7012 82.6436 47.7012C74.9257 47.7012 68.4764 53.1287 66.9016 60.3749H64.0627C61.1265 60.3749 58.4683 61.565 56.5441 63.4892C54.6198 65.4134 53.4297 68.0716 53.4297 71.0078C53.4297 74.2556 54.8859 77.1634 57.1809 79.1138C59.0356 80.6899 61.4381 81.6408 64.0627 81.6408H108.958C111.894 81.6408 114.552 80.4507 116.476 78.5265C118.4 76.6023 119.591 73.9441 119.591 71.0079C119.591 68.0717 118.4 65.4134 116.476 63.4892Z" fill="#D8E2F4"/>
<path d="M241.529 59.0459C240.622 59.2643 239.674 59.3791 238.699 59.3791H187.655C184.318 59.3791 181.295 58.0267 179.107 55.8385C176.92 53.6503 175.566 50.6291 175.566 47.2901C175.566 44.9101 176.255 42.6897 177.442 40.8193C179.587 37.4425 183.36 35.2011 187.655 35.2011H190.884C191.889 30.5741 194.643 26.5981 198.419 24.0039C206.793 28.2291 214.647 33.3349 221.859 39.1995C229.104 45.0907 235.702 51.7477 241.529 59.0459Z" fill="white"/>
<path d="M137.657 172.492H132.439V248.768H137.657V172.492Z" fill="#E0E9F3"/>
<path d="M208.301 172.492H203.084V248.768H208.301V172.492Z" fill="#E0E9F3"/>
<path d="M212.025 165.275H128.715V181.996H212.025V165.275Z" fill="url(#paint2_linear_1766_6315)"/>
<path d="M137.444 165.275L130.541 181.996H128.715V175.818L133.066 165.275H137.444Z" fill="#14336A"/>
<path d="M146.548 165.275L139.645 181.996H135.268L142.17 165.275H146.548Z" fill="#14336A"/>
<path d="M155.652 165.275L148.749 181.996H144.371L151.274 165.275H155.652Z" fill="#14336A"/>
<path d="M164.755 165.275L157.852 181.996H153.475L160.377 165.275H164.755Z" fill="#14336A"/>
<path d="M173.861 165.275L166.958 181.996H162.58L169.483 165.275H173.861Z" fill="#14336A"/>
<path d="M182.964 165.275L176.061 181.996H171.684L178.586 165.275H182.964Z" fill="#14336A"/>
<path d="M192.068 165.275L185.165 181.996H180.787L187.69 165.275H192.068Z" fill="#14336A"/>
<path d="M201.171 165.275L194.268 181.996H189.891L196.793 165.275H201.171Z" fill="#14336A"/>
<path d="M210.276 165.275L203.374 181.996H198.998L205.901 165.275H210.276Z" fill="#14336A"/>
<path d="M212.026 172.492V181.996H208.102L212.026 172.492Z" fill="#14336A"/>
<path d="M212.025 188.742H128.715V197.103H212.025V188.742Z" fill="url(#paint3_linear_1766_6315)"/>
<path d="M133.993 188.742L130.541 197.104H128.715V190.924L129.615 188.742H133.993Z" fill="#14336A"/>
<path d="M143.097 188.742L139.645 197.104H135.268L138.719 188.742H143.097Z" fill="#14336A"/>
<path d="M152.2 188.742L148.749 197.104H144.371L147.823 188.742H152.2Z" fill="#14336A"/>
<path d="M161.304 188.742L157.852 197.104H153.475L156.926 188.742H161.304Z" fill="#14336A"/>
<path d="M170.409 188.742L166.958 197.104H162.58L166.032 188.742H170.409Z" fill="#14336A"/>
<path d="M179.513 188.742L176.061 197.104H171.684L175.135 188.742H179.513Z" fill="#14336A"/>
<path d="M188.616 188.742L185.165 197.104H180.787L184.238 188.742H188.616Z" fill="#14336A"/>
<path d="M197.72 188.742L194.268 197.104H189.891L193.342 188.742H197.72Z" fill="#14336A"/>
<path d="M206.825 188.742L203.374 197.104H198.998L202.449 188.742H206.825Z" fill="#14336A"/>
<path d="M212.026 188.742V197.104H208.102L211.553 188.742H212.026Z" fill="#14336A"/>
<path d="M73.1385 240.838L72.3008 245.103H86.6179L87.5318 240.838H73.1385Z" fill="#FFAA9D"/>
<path d="M72.301 245.102L71.6222 248.428C71.5795 248.637 71.7393 248.833 71.9529 248.833H88.0024C88.1974 248.833 88.3252 248.629 88.2403 248.454L86.6181 245.102H72.301Z" fill="#0B2252"/>
<path d="M94.8845 240.838L94.0469 245.103H108.364L109.278 240.838H94.8845Z" fill="#FFAA9D"/>
<path d="M94.0472 245.102L93.3683 248.428C93.3256 248.637 93.4855 248.833 93.6991 248.833H109.749C109.943 248.833 110.071 248.629 109.986 248.454L108.364 245.102H94.0472Z" fill="#0B2252"/>
<path d="M71.7344 174.223C71.7344 174.223 75.97 205.255 74.6356 219.193C73.3011 233.13 71.8183 242.472 71.8183 242.472H88.1286C88.1286 242.472 92.4286 224.975 92.7251 214.596C92.7251 214.596 95.3941 228.237 93.7631 242.472H109.629C109.629 242.472 113.993 192.737 104.8 173.906L71.7344 174.223Z" fill="url(#paint4_linear_1766_6315)"/>
<path d="M92.5604 126.193C92.5604 126.193 77.1864 128.637 71.4979 141.944C65.8096 155.25 68.2266 159.89 70.3183 162.004C72.4099 164.118 76.6338 166.085 76.6338 166.085L92.5604 126.193Z" fill="url(#paint5_linear_1766_6315)"/>
<path d="M107.95 180.189C106.291 182.406 71.1234 180.995 70.3144 175.332C69.5054 169.669 76.453 134.129 83.8353 129.15C90.7405 124.492 95.5529 125.39 100.004 126.45C104.455 127.51 109.383 136.295 107.562 143.902C105.74 151.509 104.076 152.039 104.284 159.644C104.535 168.883 109.657 177.91 107.95 180.189Z" fill="url(#paint6_linear_1766_6315)"/>
<path d="M106.148 116.56L106.857 121.64L106.094 121.711C106.094 121.711 106.009 125.999 102.952 125.704C102.074 125.619 100.893 125.032 100.597 125.215C100.245 125.433 100.228 126.606 100.185 126.949C100.019 128.265 95.3964 127.531 95.9573 126.135C96.4898 124.809 97.3033 122.987 97.0279 122.543C96.0677 120.997 95.3462 116.949 99.2784 115.077C102.411 113.586 105.895 114.822 106.148 116.56Z" fill="#FFAA9D"/>
<path d="M95.9573 126.134C96.4898 124.808 97.3033 122.987 97.0279 122.543C97.0279 122.543 99.0801 124.978 100.719 125.181C100.723 125.182 100.725 125.183 100.728 125.184C100.676 125.187 100.629 125.194 100.597 125.214C100.245 125.432 100.228 126.606 100.185 126.949C100.019 128.264 95.3964 127.531 95.9573 126.134Z" fill="#FF9F91"/>
<path d="M99.575 119.912C97.6176 119.823 99.3393 123.946 97.2096 124.066C95.0798 124.186 93.0335 119.752 94.141 115.999C95.2484 112.246 98.2212 112.078 101.091 112.214C103.961 112.35 107.563 113.192 107.825 115.317C108.456 120.431 101.872 116.894 101.664 118.481C101.502 119.708 101.454 123.206 102.697 123.132C103.939 123.058 105.068 121.885 106.074 122.025C106.654 122.105 109.03 128.619 105.026 129.345C101.065 130.062 99.6174 126.667 100.101 123.687C100.56 120.852 100.53 119.955 99.575 119.912Z" fill="#14336A"/>
<path d="M102.426 184.588C102.426 184.588 109.397 186.131 112.062 186.017C114.728 185.903 115.898 185.811 115.846 185.188C115.794 184.564 110.538 182.612 110.448 181.994C110.357 181.376 111.328 180.997 111.226 180.302C111.124 179.607 106.372 179.75 105.989 179.017C105.606 178.285 102.19 183.518 102.426 184.588Z" fill="#FFAA9D"/>
<path d="M107.571 178.119L103.114 185.335C103.114 185.335 84.8672 182.151 79.3404 166.02C73.8137 149.89 78.0672 133.207 88.368 130.346C96.5092 128.084 94.7944 143.97 93.906 149.799C93.0176 155.628 92.1251 166.531 107.571 178.119Z" fill="url(#paint7_linear_1766_6315)"/>
<defs>
<linearGradient id="paint0_linear_1766_6315" x1="140" y1="244.051" x2="140" y2="-15.6492" gradientUnits="userSpaceOnUse">
<stop stop-color="#FEFEFD"/>
<stop offset="1" stop-color="#EBF3FF"/>
</linearGradient>
<linearGradient id="paint1_linear_1766_6315" x1="139.642" y1="233.991" x2="139.642" y2="159.736" gradientUnits="userSpaceOnUse">
<stop stop-color="#FEFEFD"/>
<stop offset="0.84" stop-color="#EBF3FF"/>
</linearGradient>
<linearGradient id="paint2_linear_1766_6315" x1="170.37" y1="180.335" x2="170.37" y2="163.614" gradientUnits="userSpaceOnUse">
<stop stop-color="#F2C43C"/>
<stop offset="0.763" stop-color="#FFAC00"/>
</linearGradient>
<linearGradient id="paint3_linear_1766_6315" x1="170.37" y1="196.273" x2="170.37" y2="187.912" gradientUnits="userSpaceOnUse">
<stop stop-color="#F2C43C"/>
<stop offset="0.763" stop-color="#FFAC00"/>
</linearGradient>
<linearGradient id="paint4_linear_1766_6315" x1="91.4683" y1="243.756" x2="90.797" y2="198.314" gradientUnits="userSpaceOnUse">
<stop stop-color="#14336D"/>
<stop offset="0.966" stop-color="#0E2253"/>
</linearGradient>
<linearGradient id="paint5_linear_1766_6315" x1="80.472" y1="142.429" x2="85.5311" y2="160.879" gradientUnits="userSpaceOnUse">
<stop stop-color="#3162DF"/>
<stop offset="0.965" stop-color="#173DB8"/>
</linearGradient>
<linearGradient id="paint6_linear_1766_6315" x1="79.7445" y1="145.798" x2="114.593" y2="177.328" gradientUnits="userSpaceOnUse">
<stop stop-color="#3162DF"/>
<stop offset="0.965" stop-color="#173DB8"/>
</linearGradient>
<linearGradient id="paint7_linear_1766_6315" x1="97.9692" y1="151.832" x2="77.0907" y2="183.005" gradientUnits="userSpaceOnUse">
<stop stop-color="#3162DF"/>
<stop offset="0.965" stop-color="#173DB8"/>
</linearGradient>
</defs>
</svg>
