<svg width="280" height="280" viewBox="0 0 280 280" fill="none" xmlns="http://www.w3.org/2000/svg">
<path fill-rule="evenodd" clip-rule="evenodd" d="M137.999 38.0371C165.383 38.0371 162.261 86.4071 182.029 101.149C208.195 120.665 253.219 111.005 253.219 144.493C253.219 203.279 194.825 224.587 131.195 224.587C67.5646 224.587 13.2726 191.981 32.2146 133.349C51.1566 74.7031 74.3686 38.0371 137.999 38.0371Z" fill="#E9EEF7"/>
<path fill-rule="evenodd" clip-rule="evenodd" d="M140.797 241.962C186.339 241.962 223.481 240.338 223.481 238.35C223.481 236.362 186.339 234.752 140.797 234.752C95.2553 234.752 58.1133 236.376 58.1133 238.35C58.1133 240.338 95.2553 241.962 140.797 241.962Z" fill="#D1DEED"/>
<path fill-rule="evenodd" clip-rule="evenodd" d="M125.832 238.812C119.35 220.85 111.734 216.538 102.984 225.876C110.908 213.822 118.986 216.3 127.246 233.296C126.196 226.94 125.216 223.79 124.32 223.846C123.956 224.168 123.732 224.56 123.648 225.008C123.536 224.28 123.816 223.468 124.502 222.558C125.944 221.55 127.232 224.224 128.352 230.552C128.814 217.014 129.416 209.944 130.172 209.314C130.074 220.416 130.256 227.234 130.704 229.768C131.488 221.48 132.286 217.056 133.098 216.482C134.414 215.642 135.184 215.936 135.422 217.35C133.798 215.488 132.706 219.646 132.118 229.824C134.456 219.31 141.232 217.476 152.432 224.322C142.534 220.29 136.36 222.166 133.924 229.95C139.314 225.288 141.274 223.65 139.79 225.05C138.488 227.388 137.172 229.18 135.842 230.44C141.428 226.478 144.662 226.604 145.53 230.804C141.134 227.794 137.046 230.454 133.28 238.812H125.832Z" fill="#619FDF"/>
<path fill-rule="evenodd" clip-rule="evenodd" d="M135.212 140.463H138.04C138.712 140.463 139.258 141.009 139.258 141.681V237.581C139.258 238.253 138.712 238.799 138.04 238.799H135.212C134.54 238.799 133.994 238.253 133.994 237.581V141.681C133.994 141.023 134.54 140.463 135.212 140.463Z" fill="#EF662B"/>
<path fill-rule="evenodd" clip-rule="evenodd" d="M134.386 140.463H135.226C134.554 140.463 134.008 141.009 134.008 141.681V237.581C134.008 238.253 134.554 238.799 135.226 238.799H134.386C133.714 238.799 133.168 238.253 133.168 237.581V141.681C133.154 141.023 133.714 140.463 134.386 140.463Z" fill="#EA724D"/>
<path fill-rule="evenodd" clip-rule="evenodd" d="M143.933 151.117C144.087 155.737 144.171 158.061 144.171 158.061C144.171 158.061 131.487 158.859 106.119 160.455C106.119 160.455 101.807 158.145 93.1973 153.511C93.1973 153.511 97.3413 151.439 105.643 147.295C105.643 147.295 118.397 148.569 143.933 151.117ZM147.979 181.903C148.119 186.061 148.189 188.147 148.189 188.147C148.189 188.147 136.779 188.861 113.959 190.303C113.959 190.303 110.081 188.217 102.325 184.059C102.325 184.059 106.063 182.197 113.525 178.459C113.525 178.459 125.019 179.607 147.979 181.903Z" fill="#F47A44"/>
<path fill-rule="evenodd" clip-rule="evenodd" d="M131.377 171.261C131.223 166.767 131.139 164.527 131.139 164.527C131.139 164.527 143.459 163.757 168.085 162.203C168.085 162.203 172.271 164.443 180.629 168.937C180.629 168.937 176.597 170.953 168.547 174.985C168.561 174.971 156.171 173.739 131.377 171.261ZM124.811 206.933C123.355 203.377 122.641 201.585 122.641 201.585C122.641 201.585 132.483 199.905 152.181 196.559C152.181 196.559 156.269 197.987 164.431 200.843C164.431 200.843 161.729 202.789 156.325 206.695C156.311 206.695 145.811 206.779 124.811 206.933Z" fill="#FB9674"/>
<path fill-rule="evenodd" clip-rule="evenodd" d="M145.348 238.812C151.83 220.85 159.446 216.538 168.196 225.876C160.272 213.822 152.194 216.3 143.934 233.296C144.984 226.94 145.964 223.79 146.86 223.846C147.224 224.168 147.448 224.56 147.532 225.008C147.644 224.28 147.364 223.468 146.678 222.558C145.236 221.55 143.948 224.224 142.828 230.552C142.366 217.014 141.764 209.944 141.008 209.314C141.106 220.416 140.924 227.234 140.476 229.768C139.692 221.48 138.894 217.056 138.082 216.482C136.766 215.642 135.996 215.936 135.758 217.35C137.382 215.488 138.474 219.646 139.062 229.824C136.724 219.31 129.948 217.476 118.748 224.322C128.646 220.29 134.82 222.166 137.256 229.95C131.866 225.288 129.906 223.65 131.39 225.05C132.692 227.388 134.008 229.18 135.338 230.44C129.752 226.478 126.518 226.604 125.65 230.804C130.06 227.794 134.134 230.454 137.9 238.812H145.348Z" fill="#71AEEC"/>
<path fill-rule="evenodd" clip-rule="evenodd" d="M171.723 77.5032C170.295 77.2512 169.973 77.1112 169.917 76.9012C169.861 76.6912 170.589 75.9352 171.247 75.9912C171.891 76.0752 172.213 77.1112 171.723 77.5032Z" fill="#FFB17D"/>
<path fill-rule="evenodd" clip-rule="evenodd" d="M200.27 69.7751C199.85 67.4791 198.73 65.5611 197.33 64.4551L190.736 66.6531L179.62 70.3491L170.03 73.5411L164.444 75.4031L157.92 77.1531L157.976 77.5591L158.06 78.0631L164.836 77.2651L170.66 77.0131L180.754 76.5791L192.472 76.0751L199.416 75.7811C200.326 74.2691 200.69 72.0851 200.27 69.7751Z" fill="#98C4F1"/>
<path fill-rule="evenodd" clip-rule="evenodd" d="M198.561 65.8416C198.589 65.8276 198.631 65.8556 198.645 65.8836C198.659 65.9116 198.631 65.9536 198.603 65.9676L176.539 72.0576C176.511 72.0716 176.469 72.0436 176.455 72.0156C176.441 71.9876 176.469 71.9456 176.497 71.9316L198.561 65.8416ZM199.121 66.6116C199.149 66.5976 199.191 66.6256 199.205 66.6536C199.219 66.6816 199.191 66.7236 199.163 66.7376L177.043 72.8276C177.015 72.8416 176.973 72.8136 176.959 72.7856C176.945 72.7576 176.973 72.7156 177.001 72.7016L199.121 66.6116ZM200.115 73.6536C200.157 73.6536 200.185 73.6816 200.185 73.7096C200.185 73.7516 200.157 73.7796 200.129 73.7796L177.323 75.9496C177.281 75.9496 177.253 75.9216 177.253 75.8936C177.253 75.8516 177.281 75.8236 177.309 75.8236L200.115 73.6536ZM176.511 74.7316C176.553 74.7316 176.581 74.7456 176.581 74.7876C176.581 74.8296 176.567 74.8576 176.525 74.8576L164.765 76.9016C164.723 76.9016 164.695 76.8876 164.695 76.8456C164.695 76.8036 164.709 76.7756 164.751 76.7756L176.511 74.7316Z" fill="#DFE6F4"/>
<path fill-rule="evenodd" clip-rule="evenodd" d="M199.164 63.8535C199.08 63.7975 198.982 63.7275 198.898 63.6855L197.078 64.2875C197.162 64.3435 197.246 64.4135 197.33 64.4695C198.73 65.5755 199.85 67.4935 200.27 69.7895C200.69 72.0855 200.326 74.2835 199.416 75.8095C199.36 75.8935 199.304 75.9775 199.248 76.0615L201.166 75.9776C201.236 75.8936 201.292 75.8095 201.362 75.7115C202.426 74.1715 202.874 71.8475 202.412 69.3835C201.95 66.9195 200.704 64.9035 199.164 63.8535ZM189.826 67.0455C189.756 67.0035 189.686 66.9615 189.616 66.9195L188.23 67.3815C188.286 67.4235 188.356 67.4655 188.412 67.5215C189.476 68.3615 190.33 69.8176 190.652 71.5676C190.974 73.3176 190.694 74.9835 190.008 76.1315C189.966 76.2015 189.924 76.2576 189.882 76.3276L191.338 76.2715C191.394 76.2015 191.436 76.1456 191.478 76.0756C192.276 74.9136 192.626 73.1355 192.276 71.2735C191.94 69.3835 191.002 67.8435 189.826 67.0455ZM183.554 68.9355C183.498 68.8935 183.442 68.8655 183.386 68.8235L182.224 69.2155C182.28 69.2575 182.322 69.2856 182.378 69.3275C183.274 70.0276 183.988 71.2596 184.254 72.7156C184.52 74.1856 184.296 75.5855 183.708 76.5515C183.68 76.6075 183.638 76.6635 183.61 76.7195L184.828 76.6635C184.87 76.6075 184.912 76.5516 184.954 76.4956C185.626 75.5156 185.92 74.0315 185.626 72.4495C185.332 70.9095 184.534 69.6215 183.554 68.9355ZM176.05 71.5676C176.008 71.5396 175.966 71.5116 175.938 71.4976L175.14 71.7635C175.182 71.7915 175.21 71.8196 175.252 71.8476C175.854 72.3236 176.344 73.1636 176.54 74.1576C176.722 75.1656 176.568 76.1176 176.162 76.7756C176.134 76.8176 176.12 76.8456 176.092 76.8876L176.932 76.8456C176.96 76.8036 176.988 76.7755 177.016 76.7335C177.478 76.0615 177.674 75.0536 177.478 73.9756C177.268 72.9116 176.722 72.0296 176.05 71.5676ZM167.846 74.2276C167.818 74.2136 167.804 74.1996 167.776 74.1856L167.328 74.3395C167.342 74.3535 167.37 74.3675 167.384 74.3815C167.734 74.6475 168 75.1236 168.112 75.6976C168.21 76.2716 168.126 76.8035 167.902 77.1815C167.888 77.2095 167.874 77.2235 167.86 77.2515L168.336 77.2376C168.35 77.2236 168.364 77.1956 168.378 77.1676C168.644 76.7896 168.756 76.2155 168.644 75.5995C168.532 74.9975 168.224 74.4936 167.846 74.2276ZM162.344 75.9776L157.92 77.1676L157.976 77.5735L158.06 78.0776L162.582 77.5456L164.668 77.2935C164.78 77.0275 164.808 76.7055 164.752 76.3695C164.682 75.9915 164.5 75.6836 164.262 75.4456L162.344 75.9776Z" fill="#619FDF"/>
<path opacity="0.6" fill-rule="evenodd" clip-rule="evenodd" d="M171.247 74.9273C169.889 73.9893 172.087 73.3313 173.263 73.1213C176.623 72.5193 172.409 75.7253 171.247 74.9273ZM199.625 72.0573C199.751 70.7553 199.751 66.5973 197.791 70.3633C197.399 71.1193 195.593 72.1833 195.005 72.5753C192.443 74.2833 199.415 74.1153 199.625 72.0573ZM190.301 73.5273C190.469 72.2953 189.559 71.4973 189.139 71.9453C188.831 72.2813 188.579 72.8973 188.299 73.2193C188.019 73.5413 186.675 74.5633 186.479 74.7733C185.359 76.1033 190.147 74.6753 190.301 73.5273ZM183.595 75.2913C183.987 74.1153 183.245 73.1633 182.741 73.5273C182.377 73.7933 182.013 74.3673 181.691 74.6193C181.355 74.8853 179.843 75.6413 179.619 75.8233C178.275 76.9013 183.231 76.3833 183.595 75.2913Z" fill="white"/>
<path fill-rule="evenodd" clip-rule="evenodd" d="M155.008 84.2384C154.588 84.0284 152.292 84.0004 149.996 84.4064C150.248 84.0424 150.458 83.5664 150.612 82.9784C154.714 82.4884 154.35 81.4524 154.21 80.9904C153.454 78.7784 152.992 77.3784 153.594 76.7344C153.888 76.8884 154.532 77.2384 154.756 78.2044C155.022 78.0504 155.358 77.8544 155.4 77.5604C155.526 76.6924 155.54 74.8584 156.548 74.7324C156.73 75.5444 156.87 76.3984 157.01 77.3084C157.57 77.7844 157.57 79.6324 157.164 81.7884C157.458 82.9924 156.744 83.6784 155.008 83.8604V84.2384Z" fill="#FFB17D"/>
<path fill-rule="evenodd" clip-rule="evenodd" d="M154.209 80.9908C154.349 81.4528 154.713 82.4748 150.611 82.9788C148.791 82.6428 147.209 81.1028 146.971 80.4028C144.703 76.3428 146.971 74.4948 148.203 73.8088C148.595 69.6788 154.699 73.0668 157.611 70.9668C158.871 72.5628 157.485 74.6768 156.561 74.7468C155.553 74.8728 155.525 76.6928 155.413 77.5748C155.357 77.8688 155.021 78.0648 154.769 78.2188C154.545 77.2528 153.915 76.8888 153.607 76.7488C152.991 77.3648 153.453 78.7648 154.209 80.9908Z" fill="#284190"/>
<path fill-rule="evenodd" clip-rule="evenodd" d="M149.997 84.4065C149.759 84.6165 149.535 84.8685 149.311 85.1625L149.451 85.1205C151.355 84.9245 153.441 84.8825 155.681 84.9665C155.471 84.6585 155.233 84.4065 155.009 84.2245C154.589 84.0285 152.293 84.0005 149.997 84.4065Z" fill="#4F8DCB"/>
<path fill-rule="evenodd" clip-rule="evenodd" d="M142.171 111.133C142.619 111.735 143.193 112.043 144.061 112.939L144.047 113.037L144.187 113.079C144.383 113.289 144.593 113.513 144.817 113.779C144.341 114.143 143.753 113.863 143.053 112.953C142.983 113.947 143.221 114.689 143.767 115.193C144.033 115.515 144.243 115.753 144.411 115.935C143.865 116.803 142.801 116.425 141.191 114.801C140.883 114.171 140.939 113.569 140.757 112.995C140.687 112.715 140.603 112.421 140.477 112.099C141.163 111.889 141.737 111.581 142.171 111.133Z" fill="#FFB17D"/>
<path fill-rule="evenodd" clip-rule="evenodd" d="M144.592 113.162C143.612 118.706 142.982 127.456 142.786 135.912C141.876 139.902 141.736 146.328 142.24 159.362C143.78 159.712 145.11 159.824 146.258 159.656C148.624 147.574 149.562 141.26 149.226 136.542C149.94 133.182 150.962 126.994 152.166 122.192C153.104 127.064 153.762 133.28 154.28 136.682C153.664 141.372 154.252 147.728 155.918 159.936C157.052 160.16 158.382 160.132 159.936 159.866C161.182 146.874 161.406 140.462 160.734 136.416C161.028 127.89 160.902 119.028 160.216 113.442C153.804 114.198 148.582 114.1 144.592 113.162Z" fill="#4567C5"/>
<path fill-rule="evenodd" clip-rule="evenodd" d="M156.534 162.302C156.142 162.596 156.016 163.982 156.296 165.046C157.542 165.648 158.774 165.536 159.992 164.99C160.608 164.766 161.35 164.388 161.35 163.954C161.35 163.128 161.322 163.1 159.656 162.176C159.67 162.344 159.698 162.498 159.726 162.638C159.642 162.834 159.488 162.974 159.208 162.778C158.9 162.568 159.026 161.91 158.144 161.868C157.416 161.84 157.388 162.54 157.024 162.764C156.618 163.016 156.548 162.61 156.534 162.302ZM145.558 161.98C145.936 162.288 145.978 163.674 145.642 164.724C144.368 165.256 143.136 165.074 141.96 164.458C141.778 164.36 141.05 164.108 140.994 163.898C140.812 163.184 141.008 162.246 142.464 161.658C142.436 161.826 142.408 161.98 142.366 162.12C142.436 162.316 142.576 162.47 142.87 162.288C143.192 162.092 143.094 161.434 143.99 161.434C144.718 161.448 144.704 162.148 145.054 162.386C145.432 162.694 145.53 162.288 145.558 161.98Z" fill="#284190"/>
<path fill-rule="evenodd" clip-rule="evenodd" d="M156.576 160.035C156.674 161.071 156.688 161.953 156.604 162.695C156.674 162.835 156.786 162.905 157.024 162.751C157.388 162.527 157.416 161.827 158.144 161.855C159.026 161.897 158.9 162.555 159.208 162.765C159.488 162.961 159.642 162.807 159.726 162.625C159.614 161.981 159.558 161.085 159.558 159.937C158.438 160.105 157.458 160.133 156.576 160.035ZM145.642 159.727C145.474 160.749 145.418 161.631 145.46 162.373C145.39 162.513 145.264 162.569 145.04 162.415C144.69 162.177 144.704 161.477 143.976 161.463C143.094 161.449 143.178 162.121 142.856 162.317C142.562 162.485 142.422 162.345 142.352 162.149C142.506 161.519 142.618 160.623 142.674 159.475C143.78 159.685 144.76 159.769 145.642 159.727Z" fill="#FFB17D"/>
<path fill-rule="evenodd" clip-rule="evenodd" d="M161.743 91.4618C159.839 96.9918 158.537 101.262 157.865 104.286C155.583 105.77 153.987 106.876 153.063 107.576C156.269 105.882 158.257 104.832 158.985 104.426C159.671 106.288 160.203 109.284 160.581 113.414C160.665 111.832 160.399 108.822 159.783 104.412C160.259 100.254 160.917 95.9278 161.743 91.4618ZM169.541 85.0078C170.143 85.3438 170.619 85.7078 170.955 86.1138C170.213 85.8058 169.401 85.5958 168.491 85.4698C168.869 85.3018 169.205 85.1478 169.541 85.0078ZM143.641 94.5698C143.655 95.0178 143.739 95.7458 143.907 96.7258C144.215 99.3438 144.845 103.026 145.125 108.682C144.775 110.026 144.201 111.776 144.047 113.036C144.131 113.064 144.215 113.078 144.313 113.106C144.537 112.196 144.985 110.922 145.699 109.298C145.965 109.494 146.707 109.788 147.953 110.194C147.421 109.69 146.889 109.2 146.343 108.738C145.545 103.208 144.649 98.4898 143.641 94.5698Z" fill="#4A75CA"/>
<path fill-rule="evenodd" clip-rule="evenodd" d="M173.67 80.4863C173.656 79.3243 175.42 74.9423 175.42 74.9423C175.42 74.9423 174.846 72.0583 174.314 71.9883C173.782 71.9183 173.516 71.7923 172.984 71.9463C172.452 72.1003 171.122 72.1283 171.122 72.1283C169.666 72.5343 171.948 75.5022 170.87 77.0142C170.618 77.3642 171.57 77.2103 171.528 77.4763C171.5 77.6443 171.388 78.3723 171.234 79.4503L173.67 80.4863Z" fill="#FFB17D"/>
<path fill-rule="evenodd" clip-rule="evenodd" d="M143.234 87.7372C144.396 86.7152 147.56 85.6512 149.45 85.1332C151.41 84.9372 153.552 84.8812 155.862 84.9932C159.782 85.0632 161.994 85.1192 166.502 85.3712C169.064 81.7732 168.658 83.1732 170.968 77.6152C171.416 77.9512 172.802 77.9512 174.524 77.8252C172.186 83.6912 172.536 89.1512 170.786 90.0892C167.426 90.9012 164.192 91.2932 161.742 91.4612C160.916 95.9412 160.258 100.253 159.782 104.411C160.398 108.821 160.664 111.831 160.58 113.413C153.692 114.225 148.176 114.099 144.046 113.021C144.2 111.761 144.774 110.011 145.124 108.667C144.83 103.011 144.214 99.3292 143.906 96.7112C142.562 99.2592 141.302 101.163 140.14 102.423C140.952 104.719 141.708 107.533 142.394 110.865C141.89 111.495 141.19 111.901 140.28 112.097C139.244 110.165 136.99 105.769 136.472 102.521C136.108 99.9452 141.596 89.7252 143.234 87.7372Z" fill="#619FDF"/>
<path fill-rule="evenodd" clip-rule="evenodd" d="M71.3865 129.668C71.1345 127.876 69.9585 126.252 68.3485 125.426C66.7385 124.6 64.7365 124.614 63.1405 125.454C62.1465 122.85 59.3885 121.016 56.6025 121.1C53.8165 121.198 51.1845 123.2 50.3585 125.874C48.5945 125.776 46.9425 127.428 47.0545 129.192C45.7105 128.59 44.1005 130.158 44.4225 131.586C44.7445 133.014 46.4525 133.84 47.8805 133.49C51.4505 136.122 56.4765 136.626 60.4945 134.75C63.6865 136.864 68.5865 135.632 70.4065 132.272C70.1685 132.72 73.9765 133.434 74.7185 131.81C75.5585 129.962 72.7865 128.856 71.3865 129.668Z" fill="white"/>
<path fill-rule="evenodd" clip-rule="evenodd" d="M44.4225 131.572C44.7445 133 46.4525 133.826 47.8805 133.476C51.4505 136.108 56.4765 136.612 60.4945 134.736C63.6865 136.85 68.5865 135.618 70.4065 132.258C70.1685 132.706 73.9765 133.42 74.7185 131.796C75.5585 129.962 72.7865 128.842 71.3865 129.668C71.1345 127.876 69.9585 126.252 68.3485 125.426C67.9005 125.188 67.4105 125.034 66.9205 124.936C67.4525 125.608 67.9005 126.35 68.0825 127.19C68.3345 128.338 67.9705 129.696 66.9625 130.298C66.2625 130.718 65.3945 130.704 64.5685 130.676C63.6025 130.634 62.4545 130.438 62.0765 129.542C61.9505 129.248 61.9365 128.912 61.8805 128.59C61.5865 126.966 59.9765 125.692 58.3245 125.762C59.1785 125.86 59.7245 126.854 59.5565 127.694C59.3885 128.534 58.6465 129.178 57.8485 129.458C57.0365 129.752 56.1545 129.738 55.3005 129.696C53.8725 129.612 52.2765 129.36 51.3805 128.24C50.6805 128.996 49.4345 129.15 48.5665 128.604C48.1465 128.338 47.8385 127.918 47.6705 127.442C47.6565 127.4 47.6425 127.344 47.6425 127.288C47.2365 127.848 47.0125 128.52 47.0545 129.206C45.7105 128.576 44.1005 130.144 44.4225 131.572Z" fill="#EFF2F9"/>
<path fill-rule="evenodd" clip-rule="evenodd" d="M70.4072 132.259C70.1692 132.707 73.9772 133.421 74.7192 131.797C75.5592 129.963 72.7872 128.843 71.3872 129.669C72.0452 129.585 72.7592 129.571 73.4032 129.697C73.7672 129.767 74.1592 129.893 74.3132 130.229C74.3692 130.369 74.3832 130.523 74.3692 130.663C74.3412 131.167 74.1032 131.657 73.6832 131.937C73.3192 132.175 72.8572 132.217 72.4092 132.231C71.8212 132.245 70.9952 132.273 70.4072 132.259Z" fill="#E4EDF2"/>
<path fill-rule="evenodd" clip-rule="evenodd" d="M70.4065 132.259C68.5865 135.633 63.6865 136.851 60.4945 134.737C56.4765 136.613 51.4505 136.109 47.8805 133.477C46.4525 133.827 44.7305 133.001 44.4225 131.573C44.1005 130.145 45.7105 128.577 47.0545 129.179C46.0885 129.263 45.4445 130.425 45.7385 131.349C46.0185 132.273 47.2505 132.763 48.0905 132.287C47.8805 131.769 47.7825 131.195 47.7965 130.635C48.1745 131.447 49.1965 131.713 50.0925 131.727C50.9605 131.755 51.8285 131.643 52.6685 131.433C52.4585 132.483 51.5065 133.351 50.4285 133.435C51.9825 134.303 53.8305 134.499 55.6085 134.471C56.8125 134.457 58.0585 134.359 59.0945 133.757C60.1305 133.155 60.9145 131.951 60.6625 130.775C61.5445 131.559 61.7825 132.959 61.2365 133.995C62.6785 134.765 64.4005 134.891 65.9965 134.513C67.5645 134.149 69.1605 133.309 70.4065 132.259Z" fill="#E4EDF2"/>
<path fill-rule="evenodd" clip-rule="evenodd" d="M203.588 152.501C205.128 149.225 209.79 147.923 212.8 149.925C214.536 147.643 217.602 146.453 220.416 146.943C223.244 147.433 225.708 149.603 226.576 152.333C228.102 152.081 229.838 152.823 230.398 154.265C230.958 155.707 229.88 157.625 228.326 157.611C227.822 157.611 227.304 157.415 226.814 157.541C226.422 157.639 226.114 157.947 225.806 158.199C221.928 161.517 215.32 160.859 212.17 156.855C209.944 158.801 206.248 158.745 204.078 156.743C204.372 157.009 201.04 157.709 200.662 157.653C199.444 157.457 197.918 156.729 197.708 155.371C197.302 152.543 201.614 151.143 203.588 152.501Z" fill="white"/>
<path fill-rule="evenodd" clip-rule="evenodd" d="M197.723 155.385C197.933 156.743 199.459 157.471 200.677 157.667C201.055 157.723 204.387 157.037 204.093 156.757C206.263 158.759 209.959 158.801 212.185 156.869C215.335 160.887 221.943 161.531 225.821 158.213C226.129 157.947 226.437 157.653 226.829 157.555C227.319 157.429 227.837 157.611 228.341 157.625C229.881 157.639 230.973 155.721 230.413 154.279C229.853 152.837 228.117 152.095 226.591 152.347C226.325 151.493 225.891 150.695 225.345 149.981C225.485 151.591 224.981 153.271 223.903 154.489C223.329 155.133 222.615 155.665 221.803 155.959C220.627 156.379 219.339 156.309 218.107 156.169C217.281 156.071 216.441 155.931 215.699 155.539C214.957 155.147 214.327 154.461 214.215 153.635C214.103 152.935 214.369 152.221 214.705 151.605C215.223 150.653 215.937 149.799 216.791 149.127C214.509 149.505 212.507 151.185 211.709 153.355C211.597 153.663 211.499 153.985 211.261 154.209C211.065 154.391 210.799 154.475 210.547 154.559C209.273 154.923 207.943 155.077 206.627 155.021C205.521 154.979 204.275 154.699 203.687 153.761C203.295 154.335 202.721 154.825 202.035 154.937C201.349 155.049 200.565 154.643 200.425 153.957C200.313 153.425 200.607 152.865 201.027 152.515C201.181 152.389 201.727 152.193 202.035 151.997C199.963 151.815 197.387 153.159 197.723 155.385Z" fill="#EFF2F9"/>
<path fill-rule="evenodd" clip-rule="evenodd" d="M212.185 156.869C215.335 160.887 221.943 161.531 225.821 158.213C226.129 157.947 226.437 157.653 226.829 157.555C227.319 157.429 227.837 157.611 228.341 157.625C229.881 157.639 230.973 155.721 230.413 154.279C230.175 155.273 229.279 156.141 228.327 156.533C227.389 156.939 226.255 156.869 225.373 156.351C225.065 157.387 224.169 158.185 223.161 158.605C222.153 159.025 221.047 159.123 219.969 159.137C219.213 159.151 218.457 159.123 217.715 158.955C216.455 158.675 215.307 158.017 214.215 157.317C213.319 156.757 212.367 156.057 212.171 155.021C212.143 155.581 212.213 156.323 212.185 156.869ZM212.185 156.869C209.959 158.815 206.263 158.759 204.093 156.757C204.387 157.023 201.055 157.723 200.677 157.667C199.459 157.471 197.933 156.743 197.723 155.385C197.387 153.159 199.963 151.815 202.049 151.997C201.027 152.249 199.963 152.641 199.431 153.551C198.885 154.461 198.997 155.805 199.865 156.407C200.439 156.799 201.195 156.813 201.881 156.715C202.707 156.589 203.589 156.253 203.981 155.511C204.975 156.575 206.417 157.121 207.859 157.275C209.301 157.415 210.771 157.149 212.185 156.869Z" fill="#E4EDF2"/>
<path fill-rule="evenodd" clip-rule="evenodd" d="M203.532 95.522C204.12 95.27 204.848 95.354 205.366 95.746C205.268 94.43 206.108 93.086 207.34 92.596C208.572 92.106 210.098 92.512 210.924 93.548C211.526 91.518 213.486 89.908 215.6 89.922C217.714 89.936 219.73 91.714 219.814 93.828C220.388 93.072 221.48 92.974 222.432 93.016C223.384 93.044 224.392 93.17 225.106 93.786C226.128 94.654 226.226 96.18 226.17 97.524C227.332 96.978 228.844 97.02 229.81 97.874C230.776 98.728 230.888 100.464 229.88 101.262C229.026 101.934 227.808 101.766 226.758 101.5C225.876 102.984 224.42 104.16 222.74 104.566C221.06 104.972 219.156 104.524 217.938 103.306C217.014 104.608 215.348 105.336 213.752 105.14C212.17 104.93 210.742 103.796 210.182 102.298C209.174 102.998 207.746 103.026 206.696 102.382C205.646 101.738 205.044 100.436 205.226 99.218C204.54 99.708 203.504 99.652 202.86 99.092C201.726 98.14 202.216 96.096 203.532 95.522Z" fill="white"/>
<path fill-rule="evenodd" clip-rule="evenodd" d="M207.325 92.6092C206.093 93.0992 205.253 94.4292 205.351 95.7592C204.833 95.3672 204.119 95.2692 203.517 95.5352C202.201 96.0952 201.711 98.1532 202.831 99.1332C203.475 99.6932 204.497 99.7492 205.197 99.2592C205.029 100.477 205.631 101.765 206.667 102.423C207.717 103.067 209.145 103.039 210.153 102.339C210.713 103.837 212.141 104.971 213.723 105.181C215.305 105.391 216.985 104.649 217.909 103.347C219.141 104.565 221.031 104.999 222.711 104.607C224.391 104.201 225.847 103.025 226.729 101.541C227.779 101.793 228.997 101.975 229.851 101.303C230.859 100.505 230.747 98.7692 229.781 97.9152C228.815 97.0612 227.317 97.0192 226.141 97.5652C226.183 96.4732 226.127 95.2692 225.553 94.3872C225.609 95.6052 225.371 96.8372 224.881 97.9432C224.657 98.4472 224.363 98.9512 223.901 99.2452C223.509 99.4972 223.033 99.5952 222.571 99.6652C221.661 99.7912 220.751 99.8472 219.841 99.8192C219.323 99.8052 218.707 99.7212 218.441 99.2592C219.421 97.8592 219.561 95.9132 218.777 94.3872C218.119 96.0952 216.579 97.5372 214.759 97.7192C212.939 97.9012 210.993 96.5852 210.783 94.7652C210.517 95.8012 210.741 96.9492 211.385 97.8032C210.489 98.0272 209.509 97.9572 208.655 97.6212C207.857 97.2992 207.101 96.6972 206.863 95.8712C206.611 95.0172 206.961 94.0652 207.563 93.4072C207.969 92.9732 208.431 92.7212 208.935 92.4692C208.417 92.3572 207.843 92.4132 207.325 92.6092Z" fill="#EFF2F9"/>
<path fill-rule="evenodd" clip-rule="evenodd" d="M229.796 97.8882C230.762 98.7422 230.874 100.478 229.866 101.276C229.012 101.948 227.794 101.78 226.744 101.514C225.862 102.998 224.406 104.174 222.726 104.58C221.046 104.986 219.142 104.538 217.924 103.32C217 104.622 215.334 105.35 213.738 105.154C212.156 104.944 210.728 103.81 210.168 102.312C209.16 103.012 207.732 103.04 206.682 102.396C205.632 101.752 205.03 100.45 205.212 99.2322C204.526 99.7222 203.49 99.6662 202.846 99.1062C203.728 99.1342 204.722 98.8262 205.506 98.4202C205.436 97.9442 205.562 97.4542 205.828 97.0762C205.688 98.3782 206.094 99.7642 207.004 100.702C207.928 101.64 209.37 102.06 210.616 101.64C210.504 101.038 210.49 100.422 210.602 99.8202C211.134 101.682 212.674 103.264 214.578 103.67C216.468 104.076 218.624 103.166 219.506 101.458C219.52 102.13 219.338 102.802 218.988 103.376C219.996 103.88 221.214 103.88 222.264 103.488C223.314 103.096 224.21 102.354 224.896 101.458C225.512 100.674 225.988 99.7222 225.96 98.7282C226.478 99.1482 226.8 99.7782 226.842 100.436C226.856 100.576 226.842 100.73 226.94 100.842C226.996 100.912 227.08 100.94 227.15 100.968C227.92 101.248 228.83 100.856 229.306 100.184C229.796 99.5122 229.908 98.7002 229.796 97.8882Z" fill="#E4EDF2"/>
<path fill-rule="evenodd" clip-rule="evenodd" d="M49.6723 68.2785C51.9403 67.6485 54.4603 68.1945 56.2383 70.2385C58.3243 69.2025 60.9003 69.2305 62.9583 70.2945C65.0303 71.3585 66.5423 73.4445 66.9063 75.7405C68.1243 75.5725 69.3703 75.4185 70.5603 75.7265C71.7503 76.0345 72.8563 76.9585 73.0243 78.1625C74.4943 78.2185 76.0483 79.6465 75.5023 81.0045C75.1943 81.7745 74.3403 82.2085 73.5143 82.3205C72.6883 82.4325 71.8483 82.3065 71.0083 82.3485C69.2163 82.4185 67.5363 83.1885 65.8283 83.7345C64.4143 84.1825 62.8603 84.3925 61.3763 84.1265C60.2423 83.9165 59.1083 83.3285 58.5203 82.3205C56.9103 83.6925 54.6843 84.0705 52.5703 84.1685C51.0023 84.2385 49.3783 84.1825 47.9083 83.6085C46.4383 83.0345 45.1363 81.8725 44.7303 80.3465C42.6443 81.0745 40.2363 80.7105 38.5983 79.2125C37.3803 78.1065 37.4223 76.0485 38.5563 74.8725C39.4523 73.9485 40.8803 73.8785 42.1683 73.9065C43.0643 73.9205 44.0163 73.9905 44.7443 74.4945C44.5483 73.1645 45.0803 71.8065 45.9203 70.7565C46.9143 69.5385 48.2443 68.6705 49.6723 68.2785Z" fill="white"/>
<path fill-rule="evenodd" clip-rule="evenodd" d="M49.6721 68.2793C48.2441 68.6713 46.9141 69.5393 45.9061 70.7993C45.0661 71.8493 44.5341 73.2073 44.7301 74.5373C44.8841 75.5593 45.2481 76.4413 46.0321 77.0993C46.8161 77.7573 47.7961 78.1493 48.7761 78.4713C47.3621 75.1673 47.6141 71.2053 49.6721 68.2793Z" fill="#EFF2F9"/>
<path fill-rule="evenodd" clip-rule="evenodd" d="M38.5983 79.2412C40.2363 80.7392 42.6583 81.1032 44.7303 80.3752C45.1363 81.9012 46.4523 83.0632 47.9083 83.6372C49.3783 84.2112 50.9883 84.2672 52.5703 84.1972C54.6843 84.0992 56.9103 83.7212 58.5203 82.3492C59.1083 83.3432 60.2283 83.9452 61.3763 84.1552C62.8463 84.4212 64.4143 84.2112 65.8283 83.7632C67.5363 83.2172 69.2163 82.4472 71.0083 82.3772C71.8483 82.3492 72.6883 82.4752 73.5143 82.3492C74.3403 82.2372 75.1943 81.8032 75.5023 81.0332C76.0483 79.6612 74.5083 78.2332 73.0243 78.1912C73.0103 78.0512 72.9683 77.9112 72.9263 77.7852C72.3523 77.7292 71.7503 77.7432 71.1763 77.8272C68.2083 78.2472 65.5623 80.0672 62.5943 80.4312C61.7963 80.5292 60.9563 80.5152 60.2003 80.2492C59.5283 80.0112 58.9403 79.6052 58.4223 79.1152C57.4423 78.2052 56.6723 77.0572 56.2243 75.7832C56.6863 77.5892 55.2583 79.4512 53.5083 80.0812C51.7583 80.6972 49.8123 80.3612 48.0343 79.8432C46.9143 79.5212 45.6683 78.9752 45.3323 77.8552C44.0163 78.9472 41.9023 79.1012 40.6283 77.9532C39.1863 76.6512 39.9143 75.3772 40.4603 74.0332C39.7323 74.1452 39.0603 74.3972 38.5563 74.9152C37.4223 76.0772 37.3803 78.1352 38.5983 79.2412Z" fill="#EFF2F9"/>
<path fill-rule="evenodd" clip-rule="evenodd" d="M58.5353 82.3346C56.9253 83.7066 54.6993 84.0846 52.5853 84.1826C51.0173 84.2526 49.3933 84.1966 47.9233 83.6226C46.4533 83.0486 45.1513 81.8866 44.7453 80.3606C42.6593 81.0886 40.2513 80.7246 38.6133 79.2266C40.7553 80.0666 43.0933 80.2626 45.3193 79.6886C46.1733 81.3686 47.9933 82.4326 49.8693 82.6566C51.7453 82.8806 53.6493 82.3486 55.3013 81.4526C55.2733 82.2506 54.7973 83.0066 54.0833 83.3706C55.6513 83.4126 57.1493 83.0906 58.5353 82.3346Z" fill="#E4EDF2"/>
<path fill-rule="evenodd" clip-rule="evenodd" d="M75.5015 81.0181C75.1935 81.7881 74.3395 82.2221 73.5135 82.3341C72.6875 82.4461 71.8475 82.3201 71.0075 82.3621C69.2155 82.4321 67.5355 83.2021 65.8275 83.7481C64.4135 84.1961 62.8595 84.4061 61.3755 84.1401C60.2415 83.9301 59.1075 83.3421 58.5195 82.3341C60.3115 83.0201 62.4815 82.9921 64.3295 82.4461C65.3795 82.1381 66.3595 81.6341 67.3815 81.2561C69.9155 80.3321 72.9255 80.2481 75.5015 81.0181Z" fill="#E4EDF2"/>
<path fill-rule="evenodd" clip-rule="evenodd" d="M115.765 102.312C113.721 102.564 111.901 104.132 111.355 106.134C109.563 105.084 107.099 105.35 105.587 106.778C104.593 107.716 104.075 109.396 104.971 110.418C103.795 111.286 103.571 113.19 104.523 114.296C105.475 115.402 107.393 115.486 108.429 114.45C109.381 116.102 111.187 117.222 113.077 117.348C114.169 117.432 115.457 117.152 116.437 116.676C116.731 116.536 118.523 115.178 118.075 114.716C119.027 115.696 120.259 116.466 121.603 116.662C122.961 116.858 124.445 116.396 125.285 115.304C126.125 114.212 126.125 112.504 125.131 111.552C126.167 111.118 126.881 110.012 126.853 108.892C126.839 107.8 125.985 106.526 124.963 106.078C124.487 105.868 121.687 105.994 121.799 106.918C121.645 105.63 120.987 104.496 120.049 103.656C118.915 102.676 117.361 102.116 115.765 102.312Z" fill="white"/>
<path fill-rule="evenodd" clip-rule="evenodd" d="M121.814 106.946C121.66 105.658 121.002 104.524 120.064 103.684C118.93 102.676 117.362 102.116 115.766 102.312C116.858 102.732 117.726 103.586 118.51 104.454C119.322 105.364 120.078 106.358 120.568 107.478C121.058 108.598 121.268 109.872 120.96 111.062C121.534 109.858 121.968 108.262 121.814 106.946Z" fill="#EFF2F9"/>
<path fill-rule="evenodd" clip-rule="evenodd" d="M104.971 110.419C103.795 111.287 103.571 113.191 104.523 114.297C105.475 115.403 107.393 115.487 108.429 114.451C109.381 116.103 111.187 117.223 113.077 117.349C114.169 117.433 115.457 117.153 116.437 116.677C116.731 116.537 118.523 115.179 118.075 114.717C119.027 115.697 120.259 116.467 121.603 116.663C122.961 116.859 124.445 116.397 125.285 115.305C126.125 114.213 126.125 112.505 125.131 111.553C126.167 111.119 126.881 110.013 126.853 108.893C126.839 107.801 125.985 106.527 124.963 106.079C124.935 106.065 124.893 106.051 124.851 106.051C125.229 106.569 125.383 107.241 125.201 107.857C124.935 108.725 123.829 109.285 123.031 108.851C123.773 110.895 122.443 113.429 120.329 113.961C120.833 112.547 120.427 110.867 119.349 109.831C118.873 111.735 117.193 113.275 115.261 113.583C113.329 113.891 111.243 112.939 110.207 111.287C109.073 111.511 107.743 111.693 106.875 110.923C106.119 110.251 106.021 109.075 106.287 108.095C106.595 106.975 107.267 106.191 108.121 105.561C107.169 105.715 106.273 106.121 105.573 106.779C104.593 107.703 104.075 109.397 104.971 110.419Z" fill="#EFF2F9"/>
<path fill-rule="evenodd" clip-rule="evenodd" d="M121.617 116.676C122.975 116.872 124.459 116.41 125.299 115.318C126.139 114.226 126.139 112.518 125.145 111.566C126.181 111.132 126.895 110.026 126.867 108.906C126.699 110.138 125.565 110.992 124.319 111.006C124.865 112.056 124.907 113.344 124.445 114.422C123.969 115.514 122.751 116.354 121.617 116.676ZM118.075 114.73C118.523 115.192 116.731 116.55 116.437 116.69C115.457 117.166 114.169 117.432 113.077 117.362C111.173 117.222 109.381 116.102 108.429 114.464C107.393 115.5 105.475 115.416 104.523 114.31C103.571 113.204 103.795 111.286 104.971 110.432C104.691 110.992 104.649 111.678 104.677 112.308C104.705 112.938 104.971 113.582 105.461 113.974C105.993 114.408 106.735 114.506 107.393 114.338C108.051 114.17 108.625 113.736 109.073 113.218C109.325 114.436 110.263 115.444 111.369 116.004C112.489 116.55 113.777 116.69 115.009 116.606C115.611 116.564 116.227 116.466 116.787 116.2C117.347 115.934 117.851 115.29 118.075 114.73Z" fill="#E4EDF2"/>
<path fill-rule="evenodd" clip-rule="evenodd" d="M100.352 74.7888C95.4243 72.0728 94.9903 64.2328 100.17 61.6008C100.8 61.2788 101.752 60.7748 102.466 60.6768C102.83 60.6208 105.182 60.9288 105.154 61.4608C105.238 59.6688 106.568 58.1288 108.122 57.2188C112.014 54.9228 117.586 56.1268 120.176 59.8228C122.78 63.5188 122.024 69.1608 118.552 72.0448C119.938 71.4288 121.702 71.8348 122.668 72.9968C123.634 74.1588 123.718 75.9788 122.864 77.2248C124.684 76.1748 127.302 76.8188 128.422 78.5968C131.194 77.9948 134.134 78.2468 136.766 79.2968C137.354 79.5348 137.956 79.8148 138.334 80.3328C138.712 80.8368 138.796 81.6208 138.376 82.0828C138.096 82.3768 137.69 82.4888 137.284 82.5728C135.758 82.8808 134.204 82.8808 132.65 82.8948C125.412 82.9228 118.16 82.9648 110.922 82.9928C110.194 82.9928 109.438 82.9928 108.766 82.6988C108.108 82.4048 107.548 81.7188 107.646 80.9908C106.582 81.8308 105.336 82.4748 103.992 82.6288C102.648 82.7688 101.206 82.3628 100.296 81.3688C96.0683 82.5168 91.6163 82.7828 87.2903 82.1388C86.5763 82.0408 85.8483 81.9008 85.2463 81.4948C84.6443 81.1028 84.1963 80.3748 84.3363 79.6748C84.4763 78.9608 85.1483 78.4568 85.8483 78.3028C86.5483 78.1488 87.2903 78.2748 87.9903 78.4288C87.7103 77.0568 88.5503 75.6288 89.7263 74.8588C90.9023 74.0888 92.3583 73.8648 93.7583 73.8228C95.9983 73.7388 98.2383 74.0748 100.352 74.7888Z" fill="white"/>
<path fill-rule="evenodd" clip-rule="evenodd" d="M85.862 78.3037C85.162 78.4577 84.476 78.9617 84.35 79.6757C84.21 80.3897 84.658 81.1037 85.26 81.4957C85.862 81.8877 86.59 82.0277 87.304 82.1397C91.63 82.7697 96.096 82.5177 100.31 81.3697C101.22 82.3637 102.662 82.7697 104.006 82.6297C105.35 82.4897 106.596 81.8317 107.66 80.9917C107.562 81.7197 108.108 82.4057 108.78 82.6997C109.452 82.9937 110.194 83.0077 110.936 82.9937C118.174 82.9657 125.426 82.9237 132.664 82.8957C134.218 82.8817 135.772 82.8817 137.298 82.5737C137.69 82.4897 138.11 82.3777 138.39 82.0837C138.824 81.6217 138.726 80.8377 138.348 80.3337C138.208 80.1517 138.04 79.9837 137.844 79.8577C135.646 80.5017 133.21 80.2637 130.914 79.8577C130.13 79.7177 129.29 79.5357 128.758 78.9477C128.66 78.8497 128.59 78.7237 128.534 78.5977C128.506 78.6117 128.464 78.6117 128.436 78.6117C127.316 76.8197 124.698 76.1757 122.878 77.2397C123.732 75.9937 123.648 74.1737 122.682 73.0117C121.716 71.8497 119.938 71.4437 118.566 72.0597C121.156 69.9037 122.234 66.2077 121.534 62.9317C121.198 65.1857 120.414 67.3837 119.014 69.1617C117.362 71.2757 114.772 72.7317 112.098 72.6617C111.734 69.9037 109.956 67.3697 107.478 66.1097C108.822 67.1317 108.85 69.3717 107.702 70.6037C106.554 71.8357 104.552 72.0597 103.026 71.3177C101.5 70.5757 100.478 69.0357 100.072 67.3977C99.484 64.9617 100.31 62.9037 101.584 60.9297C101.08 61.1257 100.576 61.3917 100.17 61.6017C94.99 64.2337 95.424 72.0737 100.352 74.7897C99.82 74.6077 99.288 74.4537 98.742 74.3277C96.964 74.8037 94.976 75.0977 93.212 75.5737C91.35 76.0777 89.474 77.2257 88.914 79.0737C88.634 78.8357 88.326 78.6117 88.004 78.4157C87.304 78.2757 86.576 78.1497 85.862 78.3037Z" fill="#EFF2F9"/>
<path fill-rule="evenodd" clip-rule="evenodd" d="M100.352 74.7897C95.4238 72.0737 94.9898 64.2337 100.17 61.6017C100.562 61.4057 101.08 61.1397 101.584 60.9297C98.9938 62.1897 97.6498 65.1857 97.5938 68.0697C97.5658 69.5677 97.8318 71.1497 98.7978 72.2837C99.6798 73.3057 101.038 73.8097 102.382 73.8937C103.726 73.9777 105.056 73.6697 106.358 73.2777C104.846 74.7197 102.186 75.7977 100.352 74.7897ZM122.878 77.2397C123.732 75.9937 123.648 74.1737 122.682 73.0117C121.716 71.8497 119.938 71.4437 118.566 72.0597C119.588 71.8777 120.554 72.8297 120.764 73.8517C120.974 74.8737 120.54 75.9237 119.938 76.7637C119.686 77.1137 119.392 77.4357 119.014 77.6597C118.44 77.9817 117.754 77.9957 117.096 77.9677C115.598 77.8977 113.904 77.4777 113.218 76.1477C113.092 77.1697 113.792 78.1637 114.702 78.6677C115.612 79.1717 116.676 79.2697 117.712 79.2837C118.692 79.2977 119.686 79.2557 120.624 78.9757C121.534 78.6817 122.318 78.0517 122.878 77.2397ZM138.348 80.3337C138.726 80.8377 138.81 81.6217 138.39 82.0837C138.11 82.3777 137.704 82.4897 137.298 82.5737C135.772 82.8817 134.218 82.8817 132.664 82.8957C125.426 82.9237 118.174 82.9657 110.936 82.9937C110.208 82.9937 109.452 82.9937 108.78 82.6997C108.122 82.4057 107.562 81.7197 107.66 80.9917C108.808 81.8037 110.18 81.9577 111.58 82.0137C113.274 82.0697 114.996 82.0697 116.648 81.6777C118.3 81.2857 119.896 80.4597 120.946 79.1157C121.072 80.2217 120.526 81.3837 119.588 81.9857C124.488 81.3837 129.458 81.9437 134.4 81.8597C135.842 81.8317 137.816 81.6777 138.348 80.3337Z" fill="#E4EDF2"/>
<path fill-rule="evenodd" clip-rule="evenodd" d="M107.66 80.9899C106.596 81.8299 105.35 82.4739 104.006 82.6279C102.662 82.7679 101.22 82.3619 100.31 81.3679C96.082 82.5159 91.63 82.7819 87.304 82.1379C86.59 82.0399 85.862 81.8999 85.26 81.4939C84.658 81.1019 84.21 80.3739 84.35 79.6739C84.924 80.7939 86.436 81.0319 87.696 81.1299C89.138 81.2559 90.608 81.1439 92.008 80.8219C91.35 80.6819 90.734 80.3319 90.272 79.8419C94.136 80.7939 98.294 80.4439 101.948 78.8759C101.794 79.5899 102.242 80.3319 102.872 80.6819C103.502 81.0319 104.272 81.0599 104.986 80.9199C107.338 80.4719 109.228 78.2319 109.27 75.8379C109.648 77.5739 109.074 79.8839 107.66 80.9899Z" fill="#E4EDF2"/>
<path fill-rule="evenodd" clip-rule="evenodd" d="M66.8087 163.212C63.4907 161.378 63.1967 156.086 66.6967 154.308C67.1307 154.084 67.7607 153.748 68.2507 153.678C68.4887 153.636 70.0847 153.846 70.0567 154.21C70.1127 152.992 71.0087 151.97 72.0587 151.354C74.6907 149.814 78.4427 150.626 80.1927 153.118C81.9427 155.61 81.4387 159.418 79.1007 161.364C80.0387 160.944 81.2287 161.224 81.8867 162.008C82.5447 162.792 82.6007 164.01 82.0267 164.864C83.2587 164.15 85.0227 164.584 85.7787 165.788C87.6547 165.382 89.6427 165.55 91.4067 166.25C91.7987 166.404 92.2047 166.6 92.4567 166.95C92.7087 167.286 92.7647 167.818 92.4847 168.126C92.3027 168.322 92.0227 168.406 91.7427 168.462C90.7207 168.672 89.6567 168.672 88.6207 168.672C83.7347 168.7 78.8487 168.714 73.9487 168.742C73.4587 168.742 72.9407 168.742 72.4927 168.546C72.0447 168.35 71.6667 167.874 71.7367 167.398C71.0227 167.958 70.1827 168.406 69.2727 168.504C68.3627 168.602 67.3967 168.322 66.7807 167.65C63.9247 168.42 60.9287 168.602 58.0027 168.168C57.5267 168.098 57.0227 168 56.6167 167.734C56.2107 167.468 55.9167 166.978 56.0007 166.502C56.0847 166.026 56.5467 165.676 57.0227 165.578C57.4987 165.48 57.9887 165.564 58.4787 165.662C58.2967 164.738 58.8567 163.772 59.6547 163.254C60.4527 162.736 61.4327 162.582 62.3707 162.554C63.8687 162.498 65.3807 162.736 66.8087 163.212Z" fill="white"/>
<path fill-rule="evenodd" clip-rule="evenodd" d="M57.0364 165.579C56.5604 165.677 56.0984 166.027 56.0144 166.503C55.9304 166.979 56.2244 167.469 56.6304 167.735C57.0364 168.001 57.5264 168.099 58.0164 168.169C60.9424 168.603 63.9524 168.421 66.7944 167.651C67.4104 168.323 68.3764 168.603 69.2864 168.505C70.1964 168.407 71.0364 167.973 71.7504 167.399C71.6804 167.889 72.0584 168.351 72.5064 168.547C72.9544 168.743 73.4584 168.757 73.9624 168.743C78.8484 168.715 83.7344 168.701 88.6344 168.673C89.6844 168.673 90.7344 168.659 91.7564 168.463C92.0224 168.407 92.3024 168.337 92.4984 168.127C92.7924 167.819 92.7364 167.287 92.4704 166.951C92.3724 166.825 92.2604 166.713 92.1344 166.629C90.6504 167.063 89.0124 166.909 87.4584 166.629C86.9264 166.531 86.3664 166.405 86.0024 166.013C85.9324 165.943 85.8904 165.859 85.8484 165.775C85.8204 165.775 85.8064 165.789 85.7784 165.789C85.0224 164.585 83.2584 164.151 82.0264 164.865C82.6004 164.025 82.5444 162.793 81.8864 162.009C81.2284 161.225 80.0384 160.945 79.1004 161.365C80.8504 159.909 81.5784 157.417 81.1024 155.205C80.8784 156.731 80.3464 158.215 79.4084 159.419C78.2884 160.847 76.5524 161.827 74.7464 161.785C74.5084 159.923 73.3044 158.215 71.6244 157.361C72.5344 158.047 72.5484 159.559 71.7784 160.399C71.0084 161.239 69.6504 161.379 68.6284 160.889C67.6064 160.385 66.9064 159.349 66.6404 158.243C66.2344 156.591 66.8084 155.205 67.6624 153.889C67.3264 154.029 66.9764 154.197 66.7104 154.337C63.2104 156.115 63.5044 161.407 66.8224 163.241C66.4724 163.115 66.1084 163.017 65.7444 162.933C64.5404 163.255 63.2104 163.451 62.0204 163.773C60.7604 164.109 59.5004 164.893 59.1224 166.139C58.9264 165.985 58.7304 165.831 58.5064 165.691C58.0024 165.565 57.5124 165.481 57.0364 165.579Z" fill="#EFF2F9"/>
<path fill-rule="evenodd" clip-rule="evenodd" d="M66.8084 163.211C63.4904 161.377 63.1964 156.085 66.6964 154.307C66.9624 154.167 67.3124 153.999 67.6484 153.859C65.8984 154.713 64.9884 156.729 64.9604 158.675C64.9464 159.683 65.1144 160.747 65.7724 161.517C66.3604 162.203 67.2844 162.553 68.1944 162.609C69.1044 162.665 70.0004 162.455 70.8684 162.189C69.8324 163.169 68.0404 163.897 66.8084 163.211ZM82.0124 164.863C82.5864 164.023 82.5304 162.791 81.8724 162.007C81.2144 161.223 80.0244 160.943 79.0864 161.363C79.7724 161.237 80.4304 161.881 80.5704 162.567C80.7104 163.253 80.4304 163.967 80.0104 164.527C79.8424 164.765 79.6324 164.989 79.3804 165.129C78.9884 165.339 78.5264 165.353 78.0924 165.339C77.0844 165.297 75.9364 165.003 75.4744 164.107C75.3904 164.807 75.8664 165.479 76.4684 165.815C77.0844 166.151 77.7984 166.221 78.4984 166.235C79.1564 166.249 79.8284 166.221 80.4584 166.025C81.1024 165.829 81.6344 165.409 82.0124 164.863ZM92.4424 166.949C92.6944 167.285 92.7504 167.817 92.4704 168.125C92.2884 168.321 92.0084 168.405 91.7284 168.461C90.7064 168.671 89.6424 168.671 88.6064 168.671C83.7204 168.699 78.8344 168.713 73.9344 168.741C73.4444 168.741 72.9264 168.741 72.4784 168.545C72.0304 168.349 71.6524 167.873 71.7224 167.397C72.4924 167.943 73.4164 168.055 74.3684 168.083C75.5164 168.125 76.6784 168.125 77.7844 167.859C78.9044 167.593 79.9824 167.033 80.6824 166.137C80.7664 166.879 80.4024 167.677 79.7584 168.069C83.0624 167.663 86.4224 168.041 89.7544 167.985C90.7484 167.957 92.0924 167.859 92.4424 166.949Z" fill="#E4EDF2"/>
<path fill-rule="evenodd" clip-rule="evenodd" d="M71.7367 167.398C71.0227 167.958 70.1827 168.406 69.2727 168.504C68.3627 168.602 67.3967 168.322 66.7807 167.65C63.9247 168.42 60.9287 168.602 58.0027 168.168C57.5267 168.098 57.0227 168 56.6167 167.734C56.2107 167.468 55.9167 166.978 56.0007 166.502C56.3927 167.258 57.4147 167.412 58.2547 167.496C59.2347 167.58 60.2147 167.51 61.1667 167.286C60.7187 167.188 60.3127 166.95 60.0047 166.614C62.6087 167.258 65.4227 167.02 67.8867 165.956C67.7887 166.432 68.0827 166.936 68.5027 167.174C68.9227 167.412 69.4547 167.426 69.9307 167.328C71.5127 167.02 72.7867 165.508 72.8287 163.898C73.0807 165.088 72.6887 166.642 71.7367 167.398Z" fill="#E4EDF2"/>
<path fill-rule="evenodd" clip-rule="evenodd" d="M175.055 42.8254C177.323 42.1954 179.843 42.7414 181.621 44.7854C183.707 43.7494 186.283 43.7774 188.341 44.8414C190.413 45.9054 191.925 47.9914 192.289 50.2874C193.507 50.1194 194.753 49.9654 195.943 50.2734C197.133 50.5814 198.239 51.5054 198.407 52.7094C199.877 52.7654 201.431 54.1934 200.885 55.5514C200.577 56.3214 199.723 56.7554 198.897 56.8674C198.071 56.9794 197.231 56.8534 196.391 56.8954C194.599 56.9654 192.919 57.7354 191.211 58.2814C189.797 58.7294 188.243 58.9394 186.759 58.6734C185.611 58.4634 184.491 57.8754 183.903 56.8674C182.293 58.2394 180.067 58.6174 177.953 58.7154C176.385 58.7854 174.761 58.7294 173.291 58.1554C171.821 57.5814 170.519 56.4194 170.113 54.8934C168.027 55.6214 165.619 55.2574 163.981 53.7594C162.763 52.6534 162.805 50.5954 163.939 49.4194C164.835 48.4954 166.263 48.4254 167.551 48.4534C168.447 48.4674 169.399 48.5374 170.127 49.0414C169.931 47.7114 170.463 46.3534 171.303 45.3034C172.297 44.0854 173.627 43.2174 175.055 42.8254Z" fill="white"/>
<path fill-rule="evenodd" clip-rule="evenodd" d="M175.055 42.8262C173.627 43.2182 172.297 44.0862 171.289 45.3462C170.449 46.3962 169.917 47.7542 170.113 49.0842C170.267 50.1062 170.631 50.9882 171.415 51.6462C172.199 52.3042 173.179 52.6962 174.159 53.0182C172.745 49.7282 172.997 45.7662 175.055 42.8262Z" fill="#EFF2F9"/>
<path fill-rule="evenodd" clip-rule="evenodd" d="M163.981 53.8017C165.619 55.2997 168.041 55.6637 170.113 54.9357C170.519 56.4617 171.835 57.6238 173.291 58.1978C174.761 58.7718 176.371 58.8278 177.953 58.7578C180.067 58.6598 182.293 58.2818 183.903 56.9097C184.491 57.9038 185.611 58.5057 186.759 58.7157C188.229 58.9817 189.797 58.7718 191.211 58.3238C192.919 57.7778 194.599 57.0078 196.391 56.9378C197.231 56.9098 198.071 57.0358 198.897 56.9097C199.723 56.7978 200.577 56.3638 200.885 55.5938C201.431 54.2218 199.891 52.7937 198.407 52.7517C198.393 52.6117 198.351 52.4717 198.309 52.3457C197.735 52.2897 197.133 52.3038 196.559 52.3878C193.591 52.8078 190.945 54.6277 187.977 54.9917C187.179 55.0897 186.339 55.0757 185.583 54.8097C184.911 54.5717 184.323 54.1657 183.805 53.6757C182.811 52.7657 182.055 51.6178 181.607 50.3438C182.069 52.1498 180.641 54.0117 178.891 54.6417C177.141 55.2577 175.195 54.9218 173.417 54.4038C172.297 54.0678 171.051 53.5357 170.715 52.4157C169.399 53.5077 167.285 53.6618 166.011 52.5138C164.569 51.2118 165.297 49.9378 165.843 48.5938C165.115 48.7058 164.443 48.9577 163.939 49.4757C162.805 50.6377 162.763 52.6957 163.981 53.8017Z" fill="#EFF2F9"/>
<path fill-rule="evenodd" clip-rule="evenodd" d="M183.918 56.8951C182.308 58.2671 180.082 58.6451 177.968 58.7431C176.4 58.8131 174.776 58.7571 173.306 58.1831C171.836 57.6091 170.534 56.4471 170.128 54.9211C168.042 55.6491 165.634 55.2851 163.996 53.7871C166.138 54.6271 168.476 54.8231 170.702 54.2491C171.556 55.9291 173.376 56.9931 175.252 57.2171C177.128 57.4411 179.032 56.9091 180.684 56.0131C180.656 56.8111 180.18 57.5671 179.466 57.9311C181.034 57.9591 182.532 57.6511 183.918 56.8951Z" fill="#E4EDF2"/>
<path fill-rule="evenodd" clip-rule="evenodd" d="M200.884 55.5661C200.576 56.3361 199.722 56.7701 198.896 56.8821C198.07 56.9941 197.23 56.8681 196.39 56.9101C194.598 56.9801 192.918 57.7501 191.21 58.2961C189.796 58.7441 188.242 58.9541 186.758 58.6881C185.61 58.4781 184.49 57.8901 183.902 56.8821C185.694 57.5681 187.864 57.5401 189.712 56.9941C190.762 56.6861 191.742 56.1821 192.764 55.8041C195.298 54.8941 198.308 54.7961 200.884 55.5661Z" fill="#E4EDF2"/>
<path fill-rule="evenodd" clip-rule="evenodd" d="M57.4144 196.392H83.4964C83.9164 196.392 84.2524 196.056 84.2524 195.636C84.2524 195.216 83.9164 194.88 83.4964 194.88H57.4144C56.9944 194.88 56.6584 195.216 56.6584 195.636C56.6584 196.056 56.9944 196.392 57.4144 196.392ZM94.6824 190.19H97.7904C98.2104 190.19 98.5464 189.854 98.5464 189.434C98.5464 189.014 98.2104 188.678 97.7904 188.678H94.6824C94.2624 188.678 93.9264 189.014 93.9264 189.434C93.9404 189.854 94.2624 190.19 94.6824 190.19ZM89.7124 196.392H92.1904C92.6104 196.392 92.9464 196.056 92.9464 195.636C92.9464 195.216 92.6104 194.88 92.1904 194.88H89.7124C89.2924 194.88 88.9564 195.216 88.9564 195.636C88.9704 196.056 89.2924 196.392 89.7124 196.392ZM62.3844 190.19H89.7124C90.1324 190.19 90.4684 189.854 90.4684 189.434C90.4684 189.014 90.1324 188.678 89.7124 188.678H62.3844C61.9644 188.678 61.6284 189.014 61.6284 189.434C61.6284 189.854 61.9644 190.19 62.3844 190.19ZM169.246 132.944H195.328C195.748 132.944 196.084 132.608 196.084 132.188C196.084 131.768 195.748 131.432 195.328 131.432H169.246C168.826 131.432 168.49 131.768 168.49 132.188C168.49 132.608 168.826 132.944 169.246 132.944ZM206.514 126.728H209.622C210.042 126.728 210.378 126.392 210.378 125.972C210.378 125.552 210.042 125.216 209.622 125.216H206.514C206.094 125.216 205.758 125.552 205.758 125.972C205.758 126.392 206.094 126.728 206.514 126.728ZM201.544 132.944H204.022C204.442 132.944 204.778 132.608 204.778 132.188C204.778 131.768 204.442 131.432 204.022 131.432H201.544C201.124 131.432 200.788 131.768 200.788 132.188C200.788 132.608 201.124 132.944 201.544 132.944ZM174.216 126.728H201.544C201.964 126.728 202.3 126.392 202.3 125.972C202.3 125.552 201.964 125.216 201.544 125.216H174.216C173.796 125.216 173.46 125.552 173.46 125.972C173.46 126.392 173.796 126.728 174.216 126.728ZM52.6544 109.158H78.7364C79.1564 109.158 79.4924 108.822 79.4924 108.402C79.4924 107.982 79.1564 107.646 78.7364 107.646H52.6544C52.2344 107.646 51.8984 107.982 51.8984 108.402C51.9124 108.822 52.2344 109.158 52.6544 109.158ZM89.9224 102.942H93.0304C93.4504 102.942 93.7864 102.606 93.7864 102.186C93.7864 101.766 93.4504 101.43 93.0304 101.43H89.9224C89.5024 101.43 89.1664 101.766 89.1664 102.186C89.1804 102.606 89.5164 102.942 89.9224 102.942ZM84.9524 109.158H87.4304C87.8504 109.158 88.1864 108.822 88.1864 108.402C88.1864 107.982 87.8504 107.646 87.4304 107.646H84.9524C84.5324 107.646 84.1964 107.982 84.1964 108.402C84.2104 108.822 84.5464 109.158 84.9524 109.158ZM57.6244 102.942H84.9524C85.3724 102.942 85.7084 102.606 85.7084 102.186C85.7084 101.766 85.3724 101.43 84.9524 101.43H57.6244C57.2044 101.43 56.8684 101.766 56.8684 102.186C56.8684 102.606 57.2044 102.942 57.6244 102.942Z" fill="white"/>
</svg>
