<svg width="236" height="236" viewBox="0 0 236 236" fill="none" xmlns="http://www.w3.org/2000/svg">
<g clip-path="url(#clip0_1766_6951)">
<path d="M26.0992 139.323C11.6867 139.323 0 129.609 0 117.627C0 111.638 2.92404 106.214 7.6464 102.29C12.3688 98.3627 18.8942 95.9366 26.1016 95.9366H35.6195C38.8739 95.9366 41.9868 95.4433 44.8565 94.5371L37.5901 140.885C34.5811 139.877 31.2936 139.323 27.8527 139.323H26.1016H26.0992Z" fill="url(#paint0_linear_1766_6951)"/>
<path d="M236 204.402C236 210.394 233.076 215.815 228.354 219.74C223.631 223.667 217.103 226.093 209.898 226.093H26.0992C11.6867 226.093 0 216.379 0 204.4C0 198.41 2.92404 192.987 7.6464 189.062C12.3688 185.137 18.8942 182.706 26.1016 182.706H27.8527C30.916 182.706 33.8542 182.267 36.5824 181.463C36.8467 181.484 37.1204 181.489 37.3966 181.467L133.732 174.451C138.513 179.48 145.914 182.706 154.226 182.706H209.903C224.316 182.706 236.002 192.42 236.002 204.402H236Z" fill="url(#paint1_linear_1766_6951)"/>
<path d="M209.901 95.9357H203.132C188.715 95.9357 177.033 86.222 177.033 74.2426C177.033 68.2529 179.957 62.8296 184.679 58.905C189.402 54.9803 195.927 52.5495 203.135 52.5495H209.903C217.108 52.5495 223.636 50.121 228.358 46.1964C233.081 42.2717 236.005 36.8484 236.005 30.8587C236.005 18.8794 224.318 9.16797 209.905 9.16797H26.0992C18.8918 9.16797 12.3664 11.594 7.64404 15.5211C2.92404 19.4434 0 24.8643 0 30.8564C0 42.8381 11.6867 52.5495 26.0992 52.5495H35.6171C49.7205 52.5495 61.2137 61.8503 61.6998 73.478L103.038 68.3969L162.93 61.036C168.067 60.4059 172.912 63.5825 174.38 68.5503L185.456 106.027L190.237 122.205C192.01 128.195 188.236 134.411 182.102 135.605L162.977 139.327H209.896C217.101 139.327 223.629 136.901 228.351 132.974C233.074 129.049 235.998 123.626 235.998 117.634C235.998 105.654 224.311 95.9428 209.898 95.9428L209.901 95.9357ZM173.13 48.3558H142.4L135.063 54.867C133.463 56.2877 130.93 55.1502 130.93 53.0097V48.3558H122.935C120.207 48.3558 117.998 46.1445 117.998 43.4187V14.6904C117.998 11.9622 120.209 9.75325 122.935 9.75325H173.127C175.855 9.75325 178.064 11.9646 178.064 14.6904V43.4187C178.064 46.1468 175.853 48.3558 173.127 48.3558H173.13Z" fill="url(#paint2_linear_1766_6951)"/>
<path d="M200.496 87.3636C208.327 87.3636 214.675 81.0155 214.675 73.1847C214.675 65.354 208.327 59.0059 200.496 59.0059C192.665 59.0059 186.317 65.354 186.317 73.1847C186.317 81.0155 192.665 87.3636 200.496 87.3636Z" fill="url(#paint3_linear_1766_6951)"/>
<path d="M36.6482 146.86L32.3082 174.545C24.4824 174.541 18.1411 168.195 18.1411 160.366C18.1411 152.538 24.4895 146.188 32.32 146.188C33.8304 146.188 35.2842 146.421 36.6482 146.86Z" fill="url(#paint4_linear_1766_6951)"/>
<path d="M190.24 122.201L174.381 68.5487C172.913 63.5832 168.068 60.4043 162.93 61.0344L55.6538 74.2198C50.1384 74.8947 46.2138 79.6619 46.3506 84.9908C46.3695 85.6681 46.4521 86.3596 46.6079 87.0464L63.8949 164.327C65.1221 169.812 70.4203 173.385 75.9639 172.467L96.2835 169.101C100.307 168.436 103.592 165.523 104.728 161.606L106.295 156.209C107.404 152.395 110.55 149.52 114.444 148.765L160.398 139.823L182.105 135.599C188.236 134.404 192.012 128.188 190.24 122.196V122.201ZM134.884 109.721L134.86 109.643C134.372 107.947 135.391 106.181 137.102 105.756L162.925 99.3396C164.53 98.9408 166.163 99.8635 166.654 101.44C166.751 101.747 166.796 102.061 166.796 102.365C166.796 103.755 165.859 105.027 164.438 105.386L138.636 111.876C137.008 112.287 135.346 111.331 134.884 109.717V109.721ZM165.502 121.986L145.992 126.801C142.938 127.558 139.877 125.585 139.302 122.489C139.238 122.154 139.207 121.816 139.207 121.488C139.207 119.064 140.824 116.872 143.238 116.216L162.635 110.915C165.644 110.096 168.726 111.947 169.413 114.989L169.521 115.468C170.177 118.375 168.391 121.271 165.5 121.986H165.502Z" fill="url(#paint5_linear_1766_6951)"/>
<path d="M160.4 139.825L157.348 163.68C156.666 168.994 152.338 173.096 146.995 173.483L37.3942 181.467C34.2035 181.698 31.6264 178.899 32.1244 175.739L46.3528 84.9902C46.3717 85.6676 46.4543 86.359 46.61 87.0458L63.897 164.326C65.1242 169.811 70.4224 173.384 75.9661 172.466L96.2857 169.101C100.309 168.435 103.595 165.523 104.73 161.605L106.297 156.208C107.406 152.394 110.552 149.52 114.446 148.765L160.4 139.822V139.825Z" fill="url(#paint6_linear_1766_6951)"/>
<path d="M165.502 121.988L145.992 126.802C142.938 127.56 139.877 125.587 139.301 122.49C139.238 122.155 139.207 121.818 139.207 121.49C139.207 119.066 140.824 116.873 143.238 116.217L162.635 110.917C165.644 110.098 168.726 111.948 169.413 114.99L169.521 115.469C170.177 118.377 168.391 121.272 165.5 121.988H165.502Z" fill="url(#paint7_linear_1766_6951)"/>
<path d="M166.795 102.369C166.795 103.759 165.858 105.031 164.438 105.39L138.636 111.88C137.007 112.29 135.346 111.335 134.883 109.72L134.86 109.643C134.371 107.946 135.391 106.18 137.102 105.756L162.925 99.3388C164.53 98.94 166.163 99.8627 166.654 101.439C166.75 101.746 166.795 102.06 166.795 102.364V102.369Z" fill="url(#paint8_linear_1766_6951)"/>
<g opacity="0.5">
<path d="M54.2944 83.4361C53.9475 83.4361 53.6454 83.1812 53.5935 82.8296C53.5368 82.4426 53.8059 82.0838 54.1929 82.0272L160.296 66.7863C160.683 66.732 161.042 66.9987 161.099 67.3857C161.155 67.7728 160.886 68.1315 160.499 68.1881L54.3959 83.429C54.3628 83.4338 54.3274 83.4361 54.2944 83.4361ZM57.9901 94.0585C57.6432 94.0585 57.3411 93.8036 57.2892 93.452C57.2326 93.0649 57.5016 92.7062 57.8887 92.6495L91.6036 87.7997C91.9907 87.7431 92.3494 88.0122 92.406 88.3992C92.4627 88.7862 92.1936 89.145 91.8066 89.2016L58.0916 94.0514C58.0562 94.0561 58.0232 94.0585 57.9901 94.0585ZM106.297 156.922C106.231 156.922 106.162 156.912 106.094 156.891C105.719 156.78 105.506 156.384 105.617 156.011L114.349 126.763C114.46 126.388 114.854 126.176 115.23 126.287C115.605 126.398 115.817 126.794 115.706 127.167L106.974 156.414C106.882 156.721 106.601 156.919 106.297 156.919V156.922Z" fill="#CCD2D6"/>
</g>
<path d="M171.457 185.931C164.683 185.931 156.303 184.577 148.971 179.418C140.67 173.579 135.181 164.745 134.282 155.787C134.242 155.398 134.527 155.051 134.917 155.013C135.309 154.977 135.653 155.258 135.691 155.648C136.548 164.203 141.817 172.656 149.785 178.261C158.399 184.319 168.568 184.916 175.582 184.348C185.263 183.564 193.343 179.566 198.335 173.088C203.135 166.858 204.235 157.488 201.009 150.302C198.448 144.598 193.591 141.212 187.328 140.77C183.394 140.492 179.448 141.83 176.774 144.348C173.954 147.003 172.571 151.043 173.248 154.635C173.958 158.404 176.953 161.562 180.528 162.315C184.024 163.051 187.738 161.286 188.984 158.298C189.622 156.771 189.461 154.831 188.564 153.236C187.767 151.817 186.513 150.88 185.121 150.666C184.734 150.607 184.47 150.246 184.529 149.859C184.588 149.472 184.951 149.205 185.336 149.266C187.16 149.547 188.788 150.741 189.799 152.542C190.92 154.538 191.104 156.891 190.289 158.841C188.791 162.435 184.375 164.571 180.236 163.698C176.115 162.832 172.67 159.211 171.855 154.895C171.091 150.84 172.639 146.293 175.801 143.314C178.758 140.53 183.103 139.047 187.424 139.354C194.231 139.836 199.512 143.517 202.297 149.719C205.726 157.361 204.556 167.325 199.453 173.949C194.216 180.746 185.777 184.94 175.693 185.757C174.378 185.863 172.955 185.929 171.454 185.929L171.457 185.931ZM113.842 223.922C112.206 223.922 110.609 223.528 109.091 222.735C105.504 220.866 102.797 216.852 102.025 212.264C101.502 209.151 101.95 206.09 103.286 203.645C104.775 200.922 107.215 199.18 110.34 198.611C112.782 198.165 114.85 198.862 116.162 200.568C117.668 202.529 117.901 205.496 116.742 207.95C115.624 210.319 113.424 211.731 110.703 211.823C110.311 211.827 109.986 211.53 109.972 211.138C109.957 210.747 110.264 210.421 110.656 210.407C113.63 210.305 114.944 208.446 115.463 207.346C116.386 205.389 116.211 202.956 115.041 201.429C114.054 200.145 112.518 199.65 110.595 200.002C104.466 201.12 102.58 207.018 103.423 212.028C104.121 216.189 106.545 219.809 109.747 221.48C112.367 222.846 115.286 222.842 118.184 221.466C130.678 215.537 131.405 196.943 130.725 186.389C130.02 175.42 128.266 166.94 125.205 159.702C125.052 159.341 125.222 158.926 125.581 158.775C125.939 158.621 126.357 158.791 126.508 159.15C129.633 166.537 131.422 175.163 132.137 186.297C132.481 191.642 132.5 199.506 130.636 206.61C128.545 214.579 124.559 220.007 118.791 222.745C117.137 223.531 115.473 223.922 113.842 223.922ZM141.631 227.543C141.239 227.543 140.923 227.224 140.925 226.832C140.984 209.366 140.066 189.051 132.833 170.797C132.689 170.433 132.866 170.022 133.229 169.878C133.593 169.735 134.003 169.912 134.147 170.275C141.47 188.751 142.398 209.236 142.339 226.837C142.339 227.226 142.02 227.543 141.631 227.543ZM157.188 195.968C157.084 195.968 156.98 195.945 156.881 195.897C150.521 192.834 144.966 187.848 141.237 181.855C141.029 181.523 141.133 181.086 141.463 180.881C141.796 180.673 142.233 180.777 142.438 181.107C146.028 186.875 151.375 191.675 157.495 194.623C157.847 194.793 157.995 195.215 157.825 195.567C157.703 195.82 157.45 195.968 157.186 195.968H157.188Z" fill="#CCD2D6"/>
<path d="M173.13 9.75391H122.937C120.209 9.75391 118 11.9652 118 14.691V43.4217C118 46.1498 120.211 48.3588 122.937 48.3588H130.933V53.0127C130.933 55.1532 133.463 56.2907 135.063 54.87L142.4 48.3611H173.13C175.858 48.3611 178.067 46.1498 178.067 43.424V14.691C178.067 11.9629 175.855 9.75391 173.13 9.75391Z" fill="url(#paint9_linear_1766_6951)"/>
<path d="M156.478 30.6501C156.478 33.9235 155.744 36.4463 154.273 38.221C152.803 39.9957 150.731 40.8831 148.059 40.8831C145.364 40.8831 143.278 39.991 141.803 38.2045C140.328 36.418 139.589 33.8999 139.589 30.6501V26.2251C139.589 22.9518 140.323 20.429 141.794 18.6543C143.264 16.8795 145.341 15.9922 148.024 15.9922C150.707 15.9922 152.789 16.8843 154.264 18.6708C155.739 20.4573 156.478 22.9801 156.478 26.2417V30.6501ZM150.87 25.5077C150.87 23.766 150.644 22.4657 150.188 21.6066C149.733 20.7476 149.013 20.3181 148.024 20.3181C147.035 20.3181 146.358 20.7169 145.919 21.5169C145.48 22.3146 145.244 23.5253 145.211 25.1443V31.3345C145.211 33.1423 145.437 34.4663 145.893 35.3041C146.348 36.1419 147.068 36.5596 148.057 36.5596C149.01 36.5596 149.716 36.1513 150.169 35.3371C150.625 34.5229 150.856 33.2438 150.868 31.5021V25.5124L150.87 25.5077Z" fill="url(#paint10_linear_1766_6951)"/>
</g>
<defs>
<linearGradient id="paint0_linear_1766_6951" x1="22.4271" y1="35.9666" x2="22.4271" y2="199.456" gradientUnits="userSpaceOnUse">
<stop stop-color="#CCD2D6" stop-opacity="0.1"/>
<stop offset="1" stop-color="#CCD2D6" stop-opacity="0.25"/>
</linearGradient>
<linearGradient id="paint1_linear_1766_6951" x1="118" y1="35.9664" x2="118" y2="199.455" gradientUnits="userSpaceOnUse">
<stop stop-color="#CCD2D6" stop-opacity="0.1"/>
<stop offset="1" stop-color="#CCD2D6" stop-opacity="0.25"/>
</linearGradient>
<linearGradient id="paint2_linear_1766_6951" x1="118" y1="35.9658" x2="118" y2="199.455" gradientUnits="userSpaceOnUse">
<stop stop-color="#CCD2D6" stop-opacity="0.1"/>
<stop offset="1" stop-color="#CCD2D6" stop-opacity="0.25"/>
</linearGradient>
<linearGradient id="paint3_linear_1766_6951" x1="200.496" y1="35.9652" x2="200.496" y2="199.454" gradientUnits="userSpaceOnUse">
<stop stop-color="#CCD2D6" stop-opacity="0.1"/>
<stop offset="1" stop-color="#CCD2D6" stop-opacity="0.25"/>
</linearGradient>
<linearGradient id="paint4_linear_1766_6951" x1="27.3947" y1="35.9661" x2="27.3947" y2="199.455" gradientUnits="userSpaceOnUse">
<stop stop-color="#CCD2D6" stop-opacity="0.1"/>
<stop offset="1" stop-color="#CCD2D6" stop-opacity="0.25"/>
</linearGradient>
<linearGradient id="paint5_linear_1766_6951" x1="110.613" y1="86.0363" x2="128.689" y2="148.942" gradientUnits="userSpaceOnUse">
<stop stop-color="#CCD2D6" stop-opacity="0.25"/>
<stop offset="1" stop-color="#CCD2D6" stop-opacity="0.5"/>
</linearGradient>
<linearGradient id="paint6_linear_1766_6951" x1="52.9584" y1="210.757" x2="115.14" y2="101.937" gradientUnits="userSpaceOnUse">
<stop stop-color="#CCD2D6" stop-opacity="0.5"/>
<stop offset="1" stop-color="#CCD2D6"/>
</linearGradient>
<linearGradient id="paint7_linear_1766_6951" x1="146.759" y1="100.379" x2="157.606" y2="126.651" gradientUnits="userSpaceOnUse">
<stop stop-color="#CCD2D6" stop-opacity="0.1"/>
<stop offset="1" stop-color="#CCD2D6" stop-opacity="0.25"/>
</linearGradient>
<linearGradient id="paint8_linear_1766_6951" x1="148.347" y1="99.7235" x2="159.191" y2="125.995" gradientUnits="userSpaceOnUse">
<stop stop-color="#CCD2D6" stop-opacity="0.1"/>
<stop offset="1" stop-color="#CCD2D6" stop-opacity="0.25"/>
</linearGradient>
<linearGradient id="paint9_linear_1766_6951" x1="148.033" y1="12.3475" x2="148.033" y2="58.7546" gradientUnits="userSpaceOnUse">
<stop stop-color="#CCD2D6" stop-opacity="0.25"/>
<stop offset="1" stop-color="#CCD2D6" stop-opacity="0.5"/>
</linearGradient>
<linearGradient id="paint10_linear_1766_6951" x1="148.033" y1="19.0153" x2="148.033" y2="38.7072" gradientUnits="userSpaceOnUse">
<stop stop-color="#CCD2D6" stop-opacity="0.5"/>
<stop offset="1" stop-color="#CCD2D6"/>
</linearGradient>
<clipPath id="clip0_1766_6951">
<rect width="236" height="236" fill="white"/>
</clipPath>
</defs>
</svg>
