<svg width="214" height="fit-content" viewBox="0 0 214 214" fill="none" xmlns="http://www.w3.org/2000/svg">
<path d="M51.8845 138.571C32.6164 144.604 20.7535 162.144 22.2475 185.369C22.4655 188.781 25.1546 191.534 28.5665 191.76C43.7363 192.762 56.5198 188.098 65.2413 179.377C69.9008 174.717 73.3571 168.866 75.4568 162.14L51.8845 138.571Z" fill="#F9B938"/>
<path d="M71.7227 170.784L62.6902 161.752C58.0321 157.098 51.7266 154.469 45.1422 154.436C36.8689 154.395 28.7975 158.393 24.4004 166.226C28.5189 152.679 38.3871 142.807 51.8974 138.567L75.4778 162.148C74.5135 165.143 73.2557 168.036 71.7227 170.784Z" fill="#E5A320"/>
<path d="M57.6015 144.288C47.6647 147.397 41.5475 156.442 42.3147 168.422C42.3646 169.274 42.7234 170.079 43.3238 170.686C43.9243 171.293 44.7253 171.661 45.5772 171.72C53.3982 172.233 59.9919 169.831 64.4899 165.333C66.9434 162.842 68.7521 159.79 69.7592 156.442L57.6015 144.288Z" fill="#F7F363"/>
<path d="M65.3313 164.388L62.6906 161.751C58.0324 157.098 51.727 154.469 45.1426 154.435C47.7833 149.562 52.14 146 57.6151 144.284L69.7687 156.438C68.8717 159.375 67.3574 162.087 65.3272 164.392L65.3313 164.388Z" fill="#F7E839"/>
<path d="M49.6205 104.392C47.6218 104.311 45.5828 104.352 43.5841 104.513C35.9755 105.02 28.5312 106.96 21.643 110.231C18.5622 111.708 15.005 111.03 12.5662 108.591L12.5258 108.551C11.2866 107.337 10.4702 105.758 10.1968 104.045C9.92349 102.332 10.2077 100.577 11.0076 99.0379C14.6992 91.5095 19.6169 84.6473 25.5596 78.7322C38.0277 66.2991 54.3453 58.4641 71.8442 56.5085C74.5616 56.2662 77.2386 56.0684 79.96 56.0684C66.9666 69.6998 56.6138 86.0485 49.6205 104.392ZM115.052 203.082C113.511 203.873 111.757 204.152 110.046 203.879C108.336 203.605 106.757 202.793 105.539 201.56L105.458 201.479C104.281 200.322 103.492 198.828 103.198 197.203C102.905 195.579 103.122 193.903 103.819 192.407C107.092 185.507 109.018 178.047 109.496 170.425C109.698 168.386 109.738 166.347 109.658 164.268C127.763 157.436 144.152 147.2 157.941 134.053C157.9 136.811 157.779 139.569 157.42 142.246C156.023 155.954 150.984 169.226 142.351 180.495C134.918 190.17 125.724 197.765 115.052 203.082Z" fill="#FC6559"/>
<path d="M79.955 56.0684C66.9656 69.6998 56.6169 86.0485 49.6195 104.392C48.1676 104.325 46.7132 104.339 45.2628 104.432C44.7016 104.432 44.104 104.473 43.5831 104.513C45.368 99.5797 47.4058 94.7415 49.6882 90.0176C54.376 80.315 44.5724 70.1802 34.8293 74.7752C29.8265 77.1332 25.2599 79.7537 22.0781 82.5276C23.1602 81.2113 24.3594 79.9314 25.5587 78.7322C38.0267 66.2991 54.3443 58.4641 71.8432 56.5085C74.5606 56.2662 77.2336 56.0684 79.955 56.0684ZM131.517 192.047C132.68 190.731 133.798 189.37 134.917 187.929C136.835 185.425 138.652 182.094 140.319 178.42C144.712 168.729 134.537 159.095 124.992 163.799C119.948 166.282 114.775 168.492 109.495 170.421C109.576 169.864 109.616 169.266 109.616 168.705C109.737 167.227 109.697 165.749 109.657 164.268C127.762 157.436 144.151 147.2 157.94 134.053C157.899 136.811 157.778 139.569 157.419 142.246C156.022 155.954 150.983 169.226 142.35 180.495C139.117 184.684 135.489 188.552 131.517 192.047Z" fill="#F05543"/>
<path d="M160.738 131.412C141.313 150.838 116.372 164.429 88.6324 170.663C84.2313 171.624 79.5192 170.186 76.2769 166.948L47.0276 137.687C43.7489 134.408 42.3478 129.652 43.3492 125.291C58.8945 56.3466 118.015 10.0176 190.44 10.0176C197.914 10.058 203.95 16.0944 203.91 23.4875C203.991 65.2175 188.603 103.552 160.742 131.408L160.738 131.412Z" fill="#E4E3FF"/>
<path opacity="0.6" d="M58.136 110.638C60.7858 101.838 64.3872 93.3528 68.8764 85.3335C69.1474 84.8443 69.5124 84.4137 69.9505 84.0662C70.3886 83.7188 70.8912 83.4614 71.4291 83.309C71.9671 83.1565 72.5299 83.112 73.0852 83.178C73.6404 83.244 74.1771 83.4191 74.6644 83.6934C75.1517 83.9676 75.5799 84.3356 75.9244 84.776C76.2689 85.2165 76.5229 85.7207 76.6717 86.2597C76.8205 86.7987 76.8612 87.3618 76.7915 87.9166C76.7218 88.4714 76.543 89.0069 76.2655 89.4923C72.0783 96.9697 68.7205 104.882 66.2519 113.089C65.9114 114.146 65.1694 115.028 64.1854 115.544C63.2014 116.06 62.0542 116.17 60.9905 115.848C59.9269 115.527 59.0318 114.801 58.498 113.827C57.9641 112.852 57.8342 111.707 58.136 110.638ZM80.7797 73.943C80.039 73.2 79.6001 72.2087 79.5479 71.1608C79.4957 70.113 79.8338 69.083 80.497 68.27C82.1525 66.239 83.8766 64.2605 85.6532 62.3507C86.4193 61.5289 87.4802 61.0448 88.6029 61.0047C89.7256 60.9645 90.8184 61.3717 91.6412 62.1367C93.3855 63.6145 93.4541 66.4167 91.8632 68.1246C90.2078 69.9053 88.6048 71.7384 87.0664 73.6281C86.6914 74.0878 86.2241 74.4638 85.6947 74.7316C85.1653 74.9994 84.5856 75.1531 83.993 75.1828C83.4005 75.2125 82.8083 75.1175 82.2548 74.9039C81.7012 74.6904 81.1987 74.363 80.7797 73.943Z" fill="white"/>
<path d="M160.738 131.412C141.313 150.837 116.372 164.428 88.6326 170.663C84.2315 171.623 79.5194 170.186 76.2771 166.948L67.8867 158.549C71.125 161.792 75.8411 163.229 80.2382 162.268C107.977 156.034 132.918 142.443 152.344 123.021C180.204 95.1609 195.588 56.8266 195.511 15.1007C195.511 13.5784 195.269 12.141 194.793 10.7803C200.147 12.6215 203.946 17.6162 203.906 23.4911C203.987 65.2211 188.599 103.555 160.738 131.412Z" fill="#D0D0F7"/>
<path d="M45.8447 116.045C44.9564 119.101 44.056 122.15 43.3413 125.299C42.344 129.656 43.745 134.413 47.0237 137.691L76.2811 166.949C79.5194 170.187 84.2355 171.624 88.6326 170.663C91.784 169.946 94.9121 169.13 98.0122 168.217L45.8447 116.045Z" fill="#FC6559"/>
<path d="M98.0237 168.224C94.9066 169.105 91.8298 169.944 88.6319 170.663C84.2308 171.624 79.5187 170.187 76.2764 166.948L67.6074 158.275C70.8416 161.51 75.5618 162.951 79.9548 161.99C83.1082 161.262 86.2413 160.449 89.3506 159.551L98.0237 168.224Z" fill="#E24B40"/>
<path d="M197.114 70.2443C201.678 55.0816 203.966 39.3258 203.906 23.4914C203.946 16.1023 197.91 10.0619 190.436 10.0215C174.083 10.0215 158.465 12.5007 143.82 16.9502L197.118 70.2484L197.114 70.2443Z" fill="#FC6559"/>
<path d="M197.109 70.2563L188.953 62.1041C193.522 46.9398 195.813 31.1807 195.749 15.3431C195.749 13.7441 195.47 12.2663 194.949 10.8652C197.573 11.772 199.847 13.4769 201.453 15.7411C203.059 18.0053 203.916 20.7153 203.905 23.4912C203.945 39.7633 201.587 55.4661 197.109 70.2563Z" fill="#E24B40"/>
<path d="M159.813 102.555C146.496 115.871 124.894 115.871 111.533 102.51C105.139 96.1128 101.547 87.4379 101.547 78.3927C101.547 69.3476 105.139 60.6727 111.533 54.2753C124.898 40.9104 146.5 40.9104 159.813 54.2309C162.989 57.4018 165.51 61.168 167.229 65.314C168.949 69.46 169.834 73.9043 169.834 78.3927C169.834 82.8811 168.949 87.3255 167.229 91.4715C165.51 95.6174 162.989 99.3836 159.813 102.555Z" fill="#474646"/>
<path opacity="0.3" d="M118.907 57.4004C118.762 57.2556 118.65 57.0809 118.579 56.8885C118.508 56.6961 118.48 56.4906 118.497 56.2862C118.513 56.0818 118.574 55.8835 118.675 55.705C118.776 55.5264 118.914 55.372 119.081 55.2523C122.538 52.7507 126.514 51.0578 130.713 50.2989C134.913 49.5399 139.229 49.7342 143.344 50.8674C143.523 50.9161 143.69 50.9997 143.837 51.1133C143.983 51.2268 144.106 51.3681 144.198 51.5292C144.29 51.6902 144.35 51.8678 144.373 52.0518C144.397 52.2358 144.384 52.4226 144.335 52.6016C144.286 52.7805 144.202 52.9481 144.089 53.0948C143.975 53.2415 143.834 53.3643 143.673 53.4564C143.512 53.5484 143.334 53.6078 143.15 53.6313C142.966 53.6547 142.78 53.6416 142.601 53.5928C138.891 52.5725 135.001 52.3979 131.215 53.0821C127.429 53.7662 123.846 55.2917 120.728 57.5458C120.457 57.741 120.125 57.8335 119.791 57.8069C119.458 57.7803 119.144 57.6362 118.907 57.4004ZM150.042 56.9684C149.787 56.72 149.635 56.3846 149.617 56.029C149.598 55.6735 149.715 55.3241 149.943 55.0507C150.171 54.7773 150.494 54.6 150.847 54.5543C151.2 54.5086 151.557 54.5978 151.847 54.8042C153.297 55.8015 154.653 56.9361 155.885 58.1676C156.438 58.7167 156.45 59.6293 155.901 60.1784C155.748 60.322 155.566 60.4308 155.367 60.4972C155.168 60.5637 154.957 60.5861 154.749 60.5631C154.54 60.5401 154.339 60.4721 154.16 60.3638C153.98 60.2556 153.826 60.1097 153.708 59.9361C152.626 58.9142 151.467 57.9774 150.24 57.1339C150.169 57.0851 150.103 57.0297 150.042 56.9684Z" fill="white"/>
<path d="M159.777 102.558C146.469 115.866 124.883 115.866 111.535 102.518C108.046 99.038 105.358 94.8385 103.66 90.2127C101.962 85.5868 101.294 80.6461 101.703 75.7354C101.876 84.4316 105.432 92.7179 111.615 98.8352C114.783 102.016 118.546 104.542 122.691 106.266C126.836 107.99 131.28 108.879 135.769 108.883C140.258 108.887 144.703 108.005 148.851 106.288C152.999 104.57 156.767 102.052 159.939 98.8756C165.549 93.2807 169.027 85.9008 169.771 78.0126C169.848 82.566 169.002 87.0878 167.285 91.3056C165.567 95.5233 163.013 99.3537 159.777 102.558Z" fill="#2D2C2C"/>
<path d="M149.667 92.3636C147.832 94.2048 145.651 95.6658 143.251 96.6626C140.85 97.6595 138.276 98.1726 135.676 98.1726C133.077 98.1726 130.503 97.6595 128.102 96.6626C125.701 95.6658 123.52 94.2048 121.685 92.3636C119.894 90.5867 118.479 88.4662 117.526 86.1293C116.77 84.486 116.285 82.7312 116.089 80.9328C115.81 79.0512 115.887 77.1373 116.21 75.2961C116.848 71.2987 118.689 67.4629 121.726 64.4224C129.438 56.7104 141.955 56.67 149.667 64.3821C150.507 65.2219 151.266 66.1425 151.904 67.1035C153.022 68.6217 153.862 70.3377 154.423 72.0982C155.021 73.8183 155.38 75.6151 155.421 77.4118C155.597 80.652 154.951 83.8841 153.543 86.8077C152.622 88.8467 151.306 90.7243 149.667 92.3636Z" fill="#A2A2F9"/>
<path opacity="0.3" d="M154.423 72.0974L116.089 80.9319C115.81 79.0503 115.887 77.1364 116.21 75.2952L151.904 67.0986C153.022 68.6209 153.862 70.3369 154.423 72.0974ZM153.543 86.8068L123.244 93.7598C122.706 93.3153 122.186 92.8493 121.685 92.3627C119.894 90.5858 118.479 88.4653 117.526 86.1285L155.421 77.411C155.597 80.6512 154.951 83.8833 153.543 86.8068Z" fill="white"/>
<path d="M154.863 83.0082C154.86 80.4496 154.35 77.917 153.361 75.5571C152.373 73.1971 150.926 71.0567 149.105 69.2597C141.393 61.5476 128.88 61.588 121.164 69.3C118.595 71.8721 116.797 75.1111 115.971 78.6514C115.928 76.0151 116.415 73.397 117.403 70.9526C118.392 68.5083 119.862 66.2876 121.725 64.4224C129.437 56.7104 141.954 56.67 149.666 64.3821C152.076 66.7677 153.823 69.74 154.734 73.0062C155.645 76.2723 155.69 79.7196 154.863 83.0082Z" fill="#5E5EEF"/>
</svg>
