<svg version="1.1" id="Layer_1" xmlns="http://www.w3.org/2000/svg" xmlns:xlink="http://www.w3.org/1999/xlink" x="0px" y="0px"
	 width="100%" viewBox="0 0 688 752" enable-background="new 0 0 688 752" xml:space="preserve" fill="#fff">
<path fill="#E7E9F9" opacity="1.000000" stroke="none" 
	d="
M436.000000,0.999998 
	C444.354218,1.000000 452.708466,1.000000 461.174744,1.376065 
	C461.524323,3.508585 461.967102,5.264758 461.969543,7.021540 
	C462.041504,59.330448 462.069916,111.639412 462.045044,164.400742 
	C461.323273,180.959518 460.115479,197.064987 460.088684,213.172455 
	C459.915497,317.287354 460.001465,421.402740 459.995728,525.517944 
	C459.995453,530.680908 459.932861,535.843872 459.583984,541.101624 
	C450.759338,549.050537 442.258362,556.913879 433.738098,564.756226 
	C425.705963,572.149475 417.635834,579.501526 409.613556,586.905396 
	C391.961029,603.197083 374.342926,619.526123 356.682037,635.808716 
	C344.637573,646.913269 332.521484,657.940063 320.478699,669.046387 
	C302.698792,685.443787 284.930054,701.853516 267.206146,718.311340 
	C256.166565,728.562317 245.233612,738.928040 234.206238,749.192322 
	C233.088089,750.233032 231.648514,750.928406 229.952789,752.052795 
	C229.952789,681.628052 229.952789,611.866760 229.966888,541.630371 
	C229.987335,477.550323 229.399765,413.938141 230.167191,350.342316 
	C230.933258,286.858612 226.637680,223.288437 233.431427,159.777893 
	C238.100830,147.045715 241.289810,133.913742 246.897659,121.911972 
	C260.534546,92.726791 281.612427,69.404465 307.316925,50.193329 
	C331.988220,31.754360 359.196991,18.390745 389.113617,11.122536 
	C403.733978,7.570539 418.756836,5.681468 433.577911,2.934070 
	C434.473969,2.767963 435.196655,1.666325 436.000000,0.999998 
z"/>
<path fill="#FFEAEC" opacity="1.000000" stroke="none" 
	d="
M233.051285,159.892197 
	C226.637680,223.288437 230.933258,286.858612 230.167191,350.342316 
	C229.399765,413.938141 229.987335,477.550323 229.635971,541.671570 
	C221.500854,549.315186 213.692490,556.422791 205.924805,563.574524 
	C192.919540,575.548523 179.945801,587.556763 166.948395,599.539246 
	C154.317322,611.184021 141.670197,622.811401 129.035446,634.452209 
	C116.281357,646.202881 103.533043,657.959839 90.783600,669.715637 
	C77.909744,681.586121 64.999535,693.417542 52.174603,705.340759 
	C36.675968,719.749695 21.265184,734.253052 5.767491,748.663025 
	C4.360487,749.971252 2.597593,750.896729 0.999994,752.000000 
	C1.000000,558.312439 1.000000,364.624878 1.347012,170.781845 
	C2.784360,166.796448 4.144661,163.020462 4.922190,159.128052 
	C10.971643,128.843521 25.482410,102.758881 45.809792,80.074112 
	C55.759495,68.970528 67.159798,58.916531 78.995094,49.805382 
	C103.049240,31.287819 130.284058,18.848957 159.608719,10.972431 
	C174.535645,6.963099 189.582962,3.754414 205.070663,2.916587 
	C205.746353,2.880033 206.358337,1.665699 207.000000,0.999998 
	C215.354233,1.000000 223.708466,1.000000 232.174164,1.375588 
	C232.523743,3.506081 232.968155,5.260767 232.970016,7.015923 
	C233.024216,57.974651 233.034195,108.933426 233.051285,159.892197 
z"/>
<path fill="#5366CD" opacity="1.000000" stroke="none" 
	d="
M459.899292,541.006836 
	C459.932861,535.843872 459.995453,530.680908 459.995728,525.517944 
	C460.001465,421.402740 459.915497,317.287354 460.088684,213.172455 
	C460.115479,197.064987 461.323273,180.959518 462.385284,164.215729 
	C465.342682,148.985855 470.339600,135.182800 476.672638,121.869591 
	C489.319061,95.284424 508.172241,73.514366 530.709717,55.042702 
	C551.929871,37.650681 575.898621,24.793568 601.933716,15.979762 
	C621.997681,9.187395 642.468140,4.235007 663.707947,2.914571 
	C664.508545,2.864799 665.237610,1.664273 666.000000,1.000000 
	C673.660706,1.000000 681.321472,1.000000 689.000000,1.000000 
	C689.000000,181.354233 689.000000,361.708466 688.709595,542.252075 
	C686.451660,543.956726 684.361389,545.337830 682.536316,547.008667 
	C669.800781,558.667542 657.107117,570.372253 644.425049,582.089417 
	C626.519714,598.632324 608.643860,615.206970 590.740784,631.752258 
	C577.938049,643.584106 565.103577,655.381775 552.297058,667.209595 
	C534.646057,683.511658 516.974731,699.791809 499.376190,716.150391 
	C487.688934,727.014221 476.126343,738.012085 464.468750,748.907959 
	C463.325287,749.976746 461.906830,750.751160 460.000000,752.096985 
	C460.000000,746.686584 460.002045,742.078369 459.999725,737.470154 
	C459.966614,671.982361 459.932861,606.494629 459.899292,541.006836 
z"/>
<path fill="#fff" opacity="1.000000" stroke="none" 
	d="
M459.583984,541.101624 
	C459.932861,606.494629 459.966614,671.982361 459.999725,737.470154 
	C460.002045,742.078369 460.000000,746.686584 460.000000,752.096985 
	C461.906830,750.751160 463.325287,749.976746 464.468750,748.907959 
	C476.126343,738.012085 487.688934,727.014221 499.376190,716.150391 
	C516.974731,699.791809 534.646057,683.511658 552.297058,667.209595 
	C565.103577,655.381775 577.938049,643.584106 590.740784,631.752258 
	C608.643860,615.206970 626.519714,598.632324 644.425049,582.089417 
	C657.107117,570.372253 669.800781,558.667542 682.536316,547.008667 
	C684.361389,545.337830 686.451660,543.956726 688.709595,542.720703 
	C689.000000,613.000000 689.000000,683.000000 689.000000,753.000000 
	C459.666656,753.000000 230.333328,753.000000 0.999994,752.500000 
	C2.597593,750.896729 4.360487,749.971252 5.767491,748.663025 
	C21.265184,734.253052 36.675968,719.749695 52.174603,705.340759 
	C64.999535,693.417542 77.909744,681.586121 90.783600,669.715637 
	C103.533043,657.959839 116.281357,646.202881 129.035446,634.452209 
	C141.670197,622.811401 154.317322,611.184021 166.948395,599.539246 
	C179.945801,587.556763 192.919540,575.548523 205.924805,563.574524 
	C213.692490,556.422791 221.500854,549.315186 229.621872,542.146606 
	C229.952789,611.866760 229.952789,681.628052 229.952789,752.052795 
	C231.648514,750.928406 233.088089,750.233032 234.206238,749.192322 
	C245.233612,738.928040 256.166565,728.562317 267.206146,718.311340 
	C284.930054,701.853516 302.698792,685.443787 320.478699,669.046387 
	C332.521484,657.940063 344.637573,646.913269 356.682037,635.808716 
	C374.342926,619.526123 391.961029,603.197083 409.613556,586.905396 
	C417.635834,579.501526 425.705963,572.149475 433.738098,564.756226 
	C442.258362,556.913879 450.759338,549.050537 459.583984,541.101624 
z"/>
<path fill="#fff" opacity="1.000000" stroke="none" 
	d="
M206.531342,0.999998 
	C206.358337,1.665699 205.746353,2.880033 205.070663,2.916587 
	C189.582962,3.754414 174.535645,6.963099 159.608719,10.972431 
	C130.284058,18.848957 103.049240,31.287819 78.995094,49.805382 
	C67.159798,58.916531 55.759495,68.970528 45.809792,80.074112 
	C25.482410,102.758881 10.971643,128.843521 4.922190,159.128052 
	C4.144661,163.020462 2.784360,166.796448 1.347012,170.313187 
	C1.000000,113.732445 1.000000,57.464882 1.000000,1.000000 
	C69.354103,1.000000 137.708389,1.000000 206.531342,0.999998 
z"/>
<path fill="#fff" opacity="1.000000" stroke="none" 
	d="
M665.531372,1.000000 
	C665.237610,1.664273 664.508545,2.864799 663.707947,2.914571 
	C642.468140,4.235007 621.997681,9.187395 601.933716,15.979762 
	C575.898621,24.793568 551.929871,37.650681 530.709717,55.042702 
	C508.172241,73.514366 489.319061,95.284424 476.672638,121.869591 
	C470.339600,135.182800 465.342682,148.985855 462.445435,163.763351 
	C462.069916,111.639412 462.041504,59.330448 461.969543,7.021540 
	C461.967102,5.264758 461.524323,3.508585 461.643372,1.376065 
	C529.687561,1.000000 597.375122,1.000000 665.531372,1.000000 
z"/>
<path fill="#fff" opacity="1.000000" stroke="none" 
	d="
M233.431427,159.777893 
	C233.034195,108.933426 233.024216,57.974651 232.970016,7.015923 
	C232.968155,5.260767 232.523743,3.506081 232.642807,1.375588 
	C300.354218,1.000000 367.708466,1.000000 435.531342,0.999998 
	C435.196655,1.666325 434.473969,2.767963 433.577911,2.934070 
	C418.756836,5.681468 403.733978,7.570539 389.113617,11.122536 
	C359.196991,18.390745 331.988220,31.754360 307.316925,50.193329 
	C281.612427,69.404465 260.534546,92.726791 246.897659,121.911972 
	C241.289810,133.913742 238.100830,147.045715 233.431427,159.777893 
z"/>
</svg>